<?xml version="1.0" encoding="utf-8"?>
<!-- Generator: Adobe Illustrator 16.0.0, SVG Export Plug-In . SVG Version: 6.00 Build 0)  -->
<!DOCTYPE svg PUBLIC "-//W3C//DTD SVG 1.1//EN" "http://www.w3.org/Graphics/SVG/1.1/DTD/svg11.dtd">
<svg version="1.1" id="Layer_1" xmlns="http://www.w3.org/2000/svg" xmlns:xlink="http://www.w3.org/1999/xlink" x="0px" y="0px"
	 width="156px" height="210.898px" viewBox="0 0 156 210.898" enable-background="new 0 0 156 210.898" xml:space="preserve">
<path fill="#0B9E5C" d="M73.842,70.52c0.697,0.133,2.515,2.244,2.857,3.573c0.217-0.74,1.574-1.554,2.484-2.532
	c-0.313,1.362,0.215,2.095-0.74,3.273c-0.664,0.9-1.139,0.616-1.418,0.816c-0.238-0.59-0.669-1.073-1.088-1.458
	c0.361,0.531,0.55,1.231,0.702,1.898c-0.306-0.356-0.168-0.667-1.28-1.28C73.762,73.022,74.378,72.577,73.842,70.52"/>
<path fill="#0B9E5C" d="M73.869,76.231c0.674,0.037,2.646,1.783,3.145,3.07c0.081-0.822,1.27-1.813,1.955-2.916
	c-0.072,1.451,0.567,2.176-0.175,3.447c-0.508,0.964-1.004,0.833-1.212,0.964c-0.37-0.517-0.824-0.964-1.32-1.312
	c0.476,0.494,0.775,1.181,1.014,1.856c-0.33-0.363-0.284-0.676-1.467-1.179C73.013,77.699,75.965,81.002,73.869,76.231"/>
<g>
	<path fill="#FFFFFF" d="M76.447,119.73c-19.19,0-34.062-20.988-34.062-45.742h68.113C110.499,98.818,95.71,119.73,76.447,119.73"/>
	<path fill="#231F20" d="M83.967,16.903l0.559,0.02c0,0-0.338-2.499-4.801-2.209H78.67c-0.016,0.056-0.484,1.404-0.484,1.404
		l3.041-0.216C81.227,15.902,83.323,15.701,83.967,16.903"/>
	<path fill="#231F20" d="M79.061,18.576c0.016-0.11,0.696-0.749,0.696-0.749s0.103,0.023,0.142,0.023
		c-0.039,0.117-0.127,0.194-0.127,0.313c0,0.484,0.293,0.896,0.75,1.074c0.123,0.042,0.754,0,0.754,0
		c0.466-0.179,0.732-0.6,0.732-1.074c0-0.119-0.087-0.196-0.087-0.307c0.41,0.097,0.88,0.307,1.101,0.751l0.944,0.04
		c0,0-0.547-2.358-4.78-1.709c0,0-1.05,1.5-1.084,1.627C78.101,18.639,79.061,18.639,79.061,18.576"/>
	<path fill="#231F20" d="M69.386,18.576l0.977-0.11c0.21-0.461,0.678-0.639,1.071-0.714c-0.047,0.105-0.086,0.202-0.086,0.293
		c0,0.521,0.264,0.905,0.716,1.083c0,0,0.652,0.087,0.744,0c0.472-0.178,0.786-0.562,0.786-1.083c0-0.077-0.082-0.077-0.082-0.136
		c0.131-0.052,0.196-0.052,0.196-0.052s0.564,0.582,0.602,0.608c0,0.101,1.001,0.101,0.968-0.026
		c-0.007-0.103-1.041-1.576-1.041-1.576C69.966,16.103,69.386,18.576,69.386,18.576"/>
	<path fill="#231F20" d="M71.952,15.853l3.156,0.192c0,0-0.362-1.275-0.362-1.329h-0.822c-4.768-0.29-5.177,2.134-5.177,2.134
		l0.564-0.052C69.933,15.603,71.952,15.853,71.952,15.853"/>
	<path fill="#231F20" d="M81.053,48.745c-0.091-0.033-0.201-0.087-0.201-0.087C80.962,48.745,81.009,48.804,81.053,48.745"/>
	<path fill="#231F20" d="M80.28,125.807c3.266-0.384,13.079-4.56,16.354-7.359c3.734,0.311,5.188-2.573,7.884-3.984
		c-0.152-0.229-0.435-0.354-0.75-0.494c1.569-0.933,2.36-2.234,4.063-3.561c-0.271-0.261-0.763-0.394-1.324-0.405
		c2.522-0.877,0.796-1.893,3.233-3.68c-0.09-0.132-0.278-0.223-0.422-0.298c1.613-1.06,1.515-2.541,2.97-4.105
		c-0.315-0.253-0.835-0.377-1.455-0.377c2.774-0.887,2.521-2.8,4.265-4.609c-0.13,0-0.561-0.052-1.149-0.115
		c1.502-1.251,1.053-2.88,2.258-4.679c-0.421-0.243-0.995-0.33-1.668-0.211c2.468-1.097,2.131-3.371,3.487-5.58
		c-0.254-0.21-0.625-0.277-1.075-0.277c1.968-1.942-0.511-1.257,1.021-5.274c-0.436-0.245-1.021-0.131-1.59,0.12
		c2.018-1.655,1.612-3.678,2.738-6.175c-1.348-0.241-4.34,1.855-5.204,3.561v-0.288c0.29-0.559,0.655-1.261,1.753-1.932
		c3.001-2.171,1.857-4.118,2.697-7.029c-1.446-0.104-4.057,2.226-4.646,3.971c-0.033-0.196-0.1-0.374-0.128-0.521
		c0.415-0.704,0.515-1.736,2.148-2.576c2.575-1.418,1.795-3.973,2.625-6.822c-0.396-0.074-0.938,0.082-1.462,0.355
		c0.565-1.813-0.604-3.116-0.392-5.327c-1.45,0-3.222,2.646-3.393,4.431c-0.089-0.255-0.233-0.492-0.456-0.709
		c0.223-0.696,0.341-1.511,1.572-2.412c2.517-2.94,0.393-4.608,0.701-7.51c-0.31,0-0.558,0.072-0.806,0.228
		c-0.126-1.458-1.177-2.392-1.336-4.254c-1.481,0.154-2.813,2.887-2.614,4.67c-0.166-0.278-0.425-0.503-0.676-0.719
		c0.169-0.672,0.293-1.603,1.327-2.508c1.388-2.852,0-4.251-0.201-7.075c-0.444,0.01-0.892,0.283-1.325,0.655
		c-0.031-1.851-1.055-2.728-1.64-4.808c-0.928,0.148-1.808,1.442-2.161,2.776c0-0.587,0.104-1.277,0.354-1.99
		c0.068-3.726-1.474-4.058-2.678-6.961c-0.494,0.307-0.863,1.208-1.144,2.149c-0.421-2.487-1.462-3.128-2.782-5.46
		c-0.861,0.755-1.27,3.17-0.957,4.883c-0.222-0.581-0.353-1.237-0.105-2.298c-0.323-2.98-1.803-3.897-3.213-5.685
		c0.689-0.064,1.41-0.266,2.3-0.888c0,0-1.277,0.105-1.972-0.24c-0.75-0.328-1.235-1.158-1.949-1.486
		c-0.826-0.391-1.557,0.108-2.891-0.753l7.323-1.528c-0.078-0.025-7.214-1.401-7.214-1.401s0.404-0.449,1.23-0.553
		c0.658,0.064,1.549-0.046,2.264-0.718c0.297-0.388,1.296-1.48,3.314-1.28c-1.679-0.986-2.504-0.645-3.988-0.128
		c-1.032,0.635-1.506,0.105-3.161,0.143c0,0,6.034-3.807,6.034-3.889l-7.232,1.517c1.145-1.774,2.26-0.932,2.945-3.093
		c0.197-0.48,1.031-1.418,2.293-1.994c-1.326-0.397-2.73,0.484-4.199,1.994c-0.534,0.224-1.773,0.758-2.471,0.896
		c-0.063-0.051,4.072-6.081,4.072-6.081s-4.201,2.955-6.138,4.083v-0.091c0.276-1.641,1.374-1.414,1.629-3.186
		c-0.11-0.55,0-2.098,1.319-3.401c-1.646,0.384-2.432,1.563-3.067,3.401c-0.313,0.693-1.286,0.995-2.006,1.86
		c-0.017,0.06,1.435-7.199,1.435-7.199l-4.125,6.083c0,0-0.328-0.255-0.232-0.899c0.55-1.263,0.557-1.847,0.468-2.459
		c-0.442-0.922-0.899-2.216,0-3.819c-2.335,1.406-1.239,3.354-1.888,4.804c-0.283,0.608-0.711,1.348-1.069,1.909L76.902,0
		l-1.444,7.139c-0.898-1.156-0.351-1.577-0.821-2.742c-0.669-1.343-1.83-1.088-1.872-4.05c-0.482,1.074-1.046,1.729,0.222,4.674
		c0.199,0.316-0.18,1.634-0.07,2.583l-4.029-6.083l1.475,7.199c-0.91-0.089-1.158-1.633-1.89-2.276
		c-1.011-0.781-2.487-0.557-3.243-2.985c-0.332,1.624,0.267,2.595,1.778,3.968c0.583,0.716,0.896,1.961,1.102,2.71l-6.123-4.083
		l4.165,6.081c-1.404,0.185-1.453-1.664-4.111-1.565c-1.755,0-2.712-1.561-2.595-1.284c0.84,3.138,3.075,2.204,3.891,3.488
		c0.237,0.25,1.154,1.212,1.332,1.507l-7.129-1.507l6.141,3.916c-1.083,0.591-2.412-0.837-3.696-0.128
		c-2.347,1.174-3.482,0.061-3.676,0.061c1.42,1.82,2.363,1.383,3.792,1.5c1.051-0.047,1.816,0.52,3.089,1.095l-7.26,1.439
		l7.176,1.341c-0.861,0.815-2.258,0.217-3.238,1.09c-2.139,2.45-4.31,1.123-3.559,1.528c1.869,1.276,2.85,0.922,3.945,0.537
		c-0.707,0.58-1.329,1.074-1.851,1.767c-0.117-0.56-0.297-1.027-0.604-1.272c-1.324,2.015-3.09,2.211-3.645,4.784
		c-0.131-0.688-0.386-1.27-0.721-1.591c-1.23,2.204-2.578,2.555-3.079,4.956c-0.17-0.641-0.442-1.135-0.786-1.346
		c-1.174,2.806-3.147,3.399-2.566,7.114c0.325,0.925,0.325,1.568,0.231,2.095c-0.175-1.457-0.879-2.925-1.888-3.116
		c-0.903,1.558-1.822,2.864-1.993,4.541c-0.37-0.283-0.697-0.468-1.053-0.489c-0.215,2.784-2.433,3.739-0.351,7.033
		c1.123,1.055,0.964,1.884,1.09,2.637c-0.138,0.087-0.287,0.278-0.358,0.421c0.148-1.71-1.38-4.377-2.813-4.511
		c-0.183,2.057-1.182,3.011-1.03,4.708c-0.381-0.197-0.669-0.307-0.989-0.307c0.306,2.843-1.79,4.008,0.837,6.866
		c1.271,0.881,1.327,1.688,1.563,2.335c-0.236,0.268-0.356,0.427-0.452,0.709c-0.173-1.764-1.948-4.218-3.357-4.218
		c0.288,3.135-1.277,3.012-0.328,5.163c-0.538-0.313-1.05-0.437-1.476-0.433c0.789,2.819-0.11,5.117,2.614,6.722
		c1.588,0.8,1.684,1.842,2.126,2.48c-0.107,0.187-0.14,0.34-0.156,0.55c-0.571-1.75-3.168-4.018-4.584-3.921
		c0.77,2.448,0.286,4.737,1.734,6.2c-0.81-0.494-1.699-0.749-2.461-0.6c1.312,2.803,0.584,4.305,3.158,6.663
		c-0.816-0.428-1.642-0.542-2.202-0.297c0.709,1.916,0.487,3.369,1.187,4.73c-0.417,0-0.791,0.112-1.088,0.232
		c1.418,2.295,0.947,4.08,3.191,5.489c-0.552-0.033-1.041,0-1.334,0.224c1.028,1.646,1.088,3.07,1.886,4.364
		c-0.313,0.063-0.608,0.124-0.858,0.365c1.743,1.668,1.775,3.469,3.743,4.506c-0.536,0-0.992,0.124-1.275,0.351
		c1.366,1.408,1.872,2.751,3.144,3.792c-0.582,0.038-1.071,0.23-1.352,0.536c2.026,1.444,2.174,3.044,4.354,3.826
		c-0.592,0-1.057,0.159-1.368,0.383c2.538,2.034,0.879,2.756,3.254,3.678c-0.208,0.129-0.357,0.202-0.431,0.356
		c2.696,1.462,2.974,4.759,8.861,4.721h0.005c2.807,3.049,10.404,6.654,16.012,7.366L80.28,125.807z M116.381,82.319
		c-0.674,1.847,0.061,2.979-1.602,4.317c-1.131,0.22-1.037,0.555-1.377,0.91c0.207-0.69,0.44-1.353,0.841-1.797
		c-0.476,0.288-0.89,0.641-1.148,1.14c-0.265-0.253-0.722-0.191-1.319-1.362c-0.816-1.567-0.258-2.171-0.461-3.747
		c0.797,1.338,2.041,2.659,2.209,3.587C113.915,84.004,115.707,82.153,116.381,82.319 M113.354,83.283
		c0.295-0.479,0.752-0.965,1.608-1.472c-0.7,0.6-1.276,1.306-1.56,2.057C113.402,83.653,113.38,83.461,113.354,83.283
		 M117.18,76.049c-0.881,1.965-0.23,2.883-2.082,4.541c-1.192,0.503-1.148,0.796-1.488,1.189c0.25-0.687,0.555-1.366,1.021-1.909
		c-0.522,0.393-1.009,0.84-1.338,1.375c-0.253-0.161-0.744-0.023-1.254-0.996c-0.724-1.317-0.08-2.066-0.185-3.496
		c0.713,1.1,1.916,2.057,2.006,2.946C114.381,78.302,116.508,76.054,117.18,76.049 M113.915,74.414
		c0.29-1.449,2.017-3.895,2.714-3.985c-0.54,2.043,0.29,2.845-1.331,4.665c-1.135,0.639-1.035,0.955-1.291,1.383
		c0.099-0.744,0.315-1.415,0.681-2.047c-0.443,0.482-0.844,0.962-1.078,1.514c-0.289-0.119-0.778,0.11-1.492-0.8
		c-0.91-1.17-0.421-1.975-0.764-3.309C112.27,72.764,113.688,73.567,113.915,74.414 M111.775,70.132
		c0.73,0.84,1.181,1.079,1.451,1.827c-0.396-0.416-0.899-0.833-1.428-1.193C111.8,70.588,111.775,70.359,111.775,70.132
		 M116.629,64.419c-0.49,1.983,0.319,2.809-1.311,4.529c-1.137,0.557-0.996,0.892-1.313,1.261c0.126-0.704,0.334-1.38,0.682-1.888
		c-0.426,0.379-0.828,0.833-1.078,1.408c-0.291-0.171-0.779,0.01-1.498-0.9c-0.98-1.212-0.442-1.907-0.823-3.305
		c0.961,0.997,2.397,1.814,2.627,2.643C114.205,66.782,115.932,64.465,116.629,64.419 M113.62,63.925
		c0.028-1.362,1.343-3.884,2.038-4.031c-0.161,1.96,0.85,2.669-0.447,4.571c-1.048,0.74-0.842,0.995-1.105,1.416
		c0-0.676,0.101-1.376,0.369-1.956c-0.436,0.494-0.705,0.929-0.854,1.535c-0.329-0.136-0.758,0.166-1.646-0.697
		c-1.222-0.993-0.843-1.769-1.477-3.068C111.669,62.563,113.229,63.134,113.62,63.925 M109.463,90.471
		c0.084-0.307,0.213-0.686,0.278-1.06c0,0.114,0.017,0.158,0.059,0.215c0.751,2.384,1.382,2.513,1.158,4.144
		c-0.024,0.086-0.124,0.133-0.124,0.221C111.002,92.865,110.15,91.578,109.463,90.471 M106.571,102.399
		c-0.063-0.786-0.464-1.609-0.866-2.387c0.12-0.215,0.234-0.503,0.402-0.739C106.37,100.931,106.74,101.383,106.571,102.399
		 M108.973,101.853c-0.996,0.279-1.914,0.769-2.498,1.344c0.056-0.101,0.056-0.174,0.098-0.256
		C107.207,102.717,107.668,101.945,108.973,101.853 M104.365,98.477c0,0-6.065,0.983-13.508-3.949
		c0.586-0.725,0.896-2.741,0.586-3.913c-0.194-0.957-0.194-0.144-0.459,0.437c-0.707,1.722-1.238,1.914-2.004,2.508
		c-2.229-2.244-2.504-2.262-5.356-3.901c-2.036-1.101-2.188-1.828-3.344-2.541c-1.951,0.938-5.054,2.723-6.581,1.644
		c-1.304-0.643,1.481-1.382,2.601-3.121c0.953-1.305,2.115-1.694,3.724-1.338c3.026,0.662,4.567,1.769,9.092,3.72
		c5.514,0.403,9.615,2.076,15.224,3.276c0.933,0.281,2.326,0.396,2.965,0.449C106.571,93.994,105.867,95.567,104.365,98.477
		 M80.121,92.455c1.668,1.859,3.156,2.211,4.174,4.455c-0.33,0.647-0.973,0.8-1.645,0.421c-2.484-2.804-4.792-3.206-3.858-4.502
		c-0.468-0.072-0.933,0.59-0.802,1.046c0.425,1.961,2.672,2.737,3.285,4.434c-0.288,1.373-2.951,0.168-4.206-3.302L77,94.848
		c-0.484,0.988-0.92,1.354,0.859,3.461c0.404,0.772,0.663,1.659-0.691,1.488c0.253,0.215-0.648-0.087-0.238,0h0.238
		c-0.023-0.063-0.098-0.087-0.266-0.146c0.631-3.45-2.539-2.741-2.415-2.741c0.461-1.238-1.309-2.479-3.101-1.684
		c0.257-0.912-1.645-2.362-4.267-1.352c-0.387-0.91-2.714-1.865-4.963,0.929c-3.98,0.365-10.498,3.879-14.438,2.106
		c-0.15,0.148-2.478-6.439-2.571-6.612c4.614-0.459,15.011-1.156,18.719-2.71c2.895-1.888,8.33-2.821,9.6-2.131
		c-0.091,0.992-2.429,2.88-1.214,3.857c2.019,1.934,5.28,1.019,7.505-0.273c2.284,2.326,5.999,2.652,7.434,5.807l-0.439,1.002
		c-0.775,0.552-0.833,0.552-1.727-0.719c-2.213-2.919-4.299-2.278-4.658-4.281C79.598,91.1,80.121,91.978,80.121,92.455
		 M69.466,98.426c-0.816,0.362,0.361-0.466,0.637-0.662l0.346-0.433c0.704-0.655,1.645-1.495,2.288-0.197
		c0.374,0.826-2.375,2.375-2.805,2.518c-0.48,0.146-0.548,0.146-0.854-0.265C68.804,98.957,69.022,98.559,69.466,98.426
		 M67.073,98.185c-0.499,0.124-0.859,0.183-1.128-0.225c-0.208-0.529,0.629-1.429,0.959-1.81c0.281-0.314,0.571-0.379,0.639-0.401
		l0.489-0.465c1.046-0.153,0.915,0,1.123,0.465C69.38,96.201,67.543,98.147,67.073,98.185 M73.699,98.618
		c0,0,1.09-1.188,1.577,0.463c0.182,0.652-1.02,1.405-2.097,1.708C72.541,100.488,71.261,100.534,73.699,98.618 M64.307,96.334
		c-0.419,0.173-1.118-0.585-0.734-0.768l0.446-0.856c0.728-0.278,1.21-0.629,1.477-0.278C65.711,94.891,64.698,96.201,64.307,96.334
		 M46.802,99.172c-0.138,0.255-0.267,0.51-0.391,0.753c0.084-0.243,0.192-0.638,0.253-1.045
		C46.725,99.025,46.788,99.025,46.802,99.172 M46.023,102.298c-0.368-0.379-0.901-0.718-1.537-0.988
		c0.575,0.164,1.052,0.412,1.436,0.609C45.948,102.005,45.971,102.169,46.023,102.298 M42.083,93.29
		c-0.045-0.102-0.059-0.102-0.094-0.15c-0.217-1.668,0.342-1.772,1.081-4.054c0.096,0.315,0.164,0.585,0.248,0.905
		C42.679,91.009,41.907,92.258,42.083,93.29 M42.438,60.462c-0.355,0.169-0.758,0.351-1.139,0.552c0.29-0.292,0.69-0.5,1.245-0.954
		C42.521,60.239,42.48,60.343,42.438,60.462 M42.75,74.414h31.938v9.394c-1.387-0.298-3.921-0.313-6.09,0
		c-5.868,1.073-3.916,3.953-24.173,4.246C42.6,81.966,42.75,74.414,42.75,74.414 M62.548,27.938c0.278-0.351,0.641-0.351,0.87-1.602
		c0.8-2.546,2.192-2.221,3.942-3.414c0.592,0.777-1.527,3.596-2.87,4.46c0.823-0.134,2.017,0.91,3.203,1.343
		c-1.404,0.225-1.982,0.952-3.386,0.52c-1.06-0.374-0.971-0.875-1.202-1.104c0.468-0.384,0.783-0.927,1.127-1.498
		C63.762,27.187,63.189,27.599,62.548,27.938 M86.98,27.127c-0.545,0-1.086-0.171-1.618-0.398c0.767-0.201,1.546-0.543,2.185-0.92
		c1.367,0.248,2.532,0.92,2.639,2.12c-1.158-0.342-1.399,0.412-3.123,0.707c-1.58,0.318-2.408-0.557-3.84-0.88
		c-0.422-0.3-0.572-0.629-0.572-0.859c0.701,0.139,1.424,0.139,2.144,0.015l-0.042,0.209C85.48,27.391,86.249,27.323,86.98,27.127
		 M81.855,25.07c0.738,0.082,1.442-0.133,2.108-0.455c-0.479,0.091-1.032,0.091-1.539,0.034c0.976-0.612,1.647-1.398,2.957-1.361
		c1.79,0,1.79,1.055,2.864,0.503C88.368,24.754,83.174,27.08,81.855,25.07 M79.333,24.754c0.788,0.25,1.654,1.701,2.667,2.702
		c-1.357-0.421-2.071,0.073-3.29-1.001c-0.851-0.724-0.72-1.185-0.851-1.519c0.556-0.183,0.933-0.528,1.375-0.992
		c-0.564,0.345-1.229,0.511-1.871,0.585c0.369-0.24,0.643-0.121,1.209-1.22c1.633-1.548,2.473-0.691,4.402-1.105
		C82.891,22.922,80.697,24.518,79.333,24.754 M75.154,25.117c0.84,0.054,1.846,1.338,2.98,2.096
		c-1.378-0.093-1.996,0.452-3.299-0.295c-1.03-0.56-0.913-1.027-1.128-1.315c0.526-0.332,0.887-0.744,1.24-1.261
		c-0.498,0.457-1.104,0.728-1.759,0.929c0.337-0.334,0.655-0.267,1.045-1.442c1.416-1.832,2.066-1.105,3.901-1.952
		C78.212,22.581,76.445,24.615,75.154,25.117 M72.283,27.66c-1.387,0-2.01,0.681-3.343,0c-1.037-0.447-0.929-0.932-1.154-1.143
		c0.494-0.332,0.899-0.872,1.161-1.4c-0.468,0.485-1.044,0.86-1.708,1.127c0.327-0.354,0.664-0.312,1.004-1.539
		c1.368-1.982,2.33-1.396,4.108-2.372c0.044,0.651-1.841,2.887-3.147,3.5C70.056,25.891,71.153,26.956,72.283,27.66 M95.38,34.337
		c0.195,0.026,0.37,0,0.539,0c-0.169,0.026-0.288,0.115-0.415,0.115C95.465,34.452,95.404,34.364,95.38,34.337 M107.175,50.593
		c0.338,0.248,0.601,0.382,0.865,0.541c-0.267-0.091-0.515-0.201-0.753-0.26C107.229,50.792,107.229,50.701,107.175,50.593
		 M90.316,86.318c-3.145-0.604-7.297-4.165-11.987-3.906v-7.997h31.821c0.031,1.055-0.543,9.581-2.243,15.348
		C101.496,89.671,95.504,86.138,90.316,86.318 M110.314,60.109c0.52,0.422,0.974,0.704,1.313,1.014
		c-0.381-0.243-0.82-0.445-1.189-0.608C110.366,60.343,110.366,60.239,110.314,60.109 M114.039,54.035
		c-0.124,1.95,0.898,2.688-0.419,4.539c-1.015,0.641-0.823,0.969-1.073,1.319c0-0.679,0.059-1.319,0.315-1.931
		c-0.355,0.461-0.659,0.929-0.825,1.479c-0.3-0.069-0.723,0.169-1.671-0.671c-1.245-1.095-0.819-1.828-1.435-3.171
		c1.133,0.901,2.702,1.589,3.104,2.361C112.094,56.583,113.354,54.164,114.039,54.035 M110.934,53.855
		c-0.256-1.365,0.541-3.897,1.217-4.157c0.271,1.948,1.403,2.566,0.465,4.527c-0.877,0.795-0.657,1.05-0.795,1.472
		c-0.124-0.677-0.192-1.346-0.045-1.984c-0.301,0.513-0.516,1.037-0.528,1.61c-0.412-0.048-0.749,0.26-1.815-0.474
		c-1.455-0.891-1.197-1.724-2.08-2.952C108.691,52.685,110.366,53.104,110.934,53.855 M109.4,44.066
		c0.207,1.995,1.373,2.585,0.398,4.551c-0.912,0.732-0.679,1.002-0.796,1.428c-0.14-0.667-0.188-1.332-0.067-1.968
		c-0.272,0.486-0.507,0.979-0.521,1.551c-0.342-0.063-0.747,0.197-1.799-0.571c-1.411-0.91-1.177-1.701-2.034-2.938
		c1.285,0.748,2.995,1.274,3.55,2.027C107.907,46.756,108.725,44.248,109.4,44.066 M106.74,39.925
		c0.609,1.93,1.816,2.409,1.291,4.461c-0.744,0.864-0.484,1.105-0.551,1.528c-0.252-0.657-0.439-1.304-0.412-1.939
		c-0.211,0.526-0.328,1.073-0.211,1.607c-0.385-0.023-0.709,0.332-1.871-0.295c-1.606-0.786-1.549-1.614-2.633-2.73
		c1.439,0.627,3.226,0.91,3.903,1.577C105.771,42.8,106.129,40.201,106.74,39.925 M105.338,42.988
		c-0.257-0.325-0.564-0.536-0.999-0.739c0.271,0.071,0.576,0.269,0.957,0.552C105.311,42.854,105.311,42.929,105.338,42.988
		 M103.04,34.452c0.854,1.928,1.542,1.722,1.478,4.186c-0.439,1.287-0.179,1.406-0.111,1.928c-0.361-0.641-0.637-1.321-0.727-2.023
		c-0.062,0.607-0.062,1.287,0.114,1.909c-0.302,0.076-0.508,0.517-1.598,0.225c-1.474-0.363-1.572-1.304-2.691-2.186
		c1.367,0.243,2.906-0.05,3.587,0.535C102.463,37.746,102.563,34.981,103.04,34.452 M99.777,35.451
		c-0.688-1.151-0.896-3.843-0.48-4.388c1.072,1.77,1.743,1.399,1.932,3.786c-0.33,1.287-0.045,1.439,0.063,1.923
		c-0.418-0.599-0.783-1.207-0.921-1.923c0,0.682,0.069,1.287,0.312,1.872c-0.312,0.105-0.484,0.566-1.59,0.458
		c-1.535-0.11-1.742-1.043-2.943-1.729C97.518,35.451,99.091,34.981,99.777,35.451 M94.629,26.918
		c1.137,1.718,2.344,1.601,2.541,3.973c-0.297,1.231,0,1.338,0.11,1.802c-0.447-0.57-0.8-1.113-0.994-1.802
		c0.022,0.64,0.104,1.231,0.362,1.802c-0.327,0.097-0.461,0.595-1.654,0.524c-1.546,0-1.747-0.903-3.053-1.544
		c1.457-0.033,3.014-0.553,3.769-0.16C94.824,30.379,94.221,27.53,94.629,26.918 M93.804,25.536
		c-0.042,0.195-0.116,0.47-0.155,0.744c-0.217-0.348-0.479-0.635-0.733-0.837C93.247,25.472,93.546,25.536,93.804,25.536
		 M93.346,27.248c-0.201,1.388,0.245,1.341,0.416,1.912c-0.171-0.053-0.272-0.1-0.361-0.1c-0.485-0.519-0.946-1.123-1.131-1.474
		c0.221,1.049,0.221,1.43,0.646,1.939c-0.159,0.216-0.425,0.4-1.092,0.438c-1.886,0.152-2.222-0.288-2.96-0.7
		c1.259-0.54,1.837-1.192,3.078-0.809c0-0.087-0.047-0.164-0.118-0.377c0,0,0.044,0.037,0.071,0.037l-0.071-0.037
		c-0.169-0.414-0.522-0.893-1.069-1.369c-0.568-0.979-0.949-2.096-0.794-2.459C91.408,25.646,92.755,25.07,93.346,27.248
		 M92.141,23.945h-1.562c-0.196-0.154-0.365-0.351-0.533-0.521C90.877,23.594,91.822,23.828,92.141,23.945 M64.682,22.653
		c1.38-0.621,1.724-1.063,1.724-1.063l-4.42-1.131l4.544-0.942c0,0-0.124-0.236-2.775-1.074c-0.508-0.166-0.075-0.688-2.286-1.137
		c0.8-0.159,0.557,0.215,2.062,0.449c1.032,0.018,1.839,0.201,3.306-0.129c0,0-2.697-2.078-4.468-3.017c0,0,2.945,0.777,5.278,1.332
		c0-0.238-1.862-1.661-3.084-3.149c-0.283-0.358-0.369-0.571-0.674-0.868c1.285,0.499,1.285,0.868,1.952,1.28
		c0.793,0.293,2.3,1.146,2.845,1.076c-1.334-1.857-3.173-4.551-3.173-4.551l4.628,3.154c-0.175-1.198-1.048-2.125-1.118-2.586
		c-0.583-1.965-0.393-1.797-0.826-2.543c1.256,1.893,1.736,2.913,3.629,4.048L71.02,6.053l2.779,5.065
		c0.169-0.704-0.049-2.11-0.1-2.618c0.269-2.613,0.29-1.074-0.04-3.016c0.309,1.093,0.309,0.898,0.475,2.243
		c0.503,1.109,0.873,1.952,1.502,2.979l1.151-5.37c0,0,0.884,5.37,0.746,5.421c0.602-1.116,0.515-1.75,1.095-2.616
		c0.854-1.438,1.13-2.636,1.13-2.636c-0.425,2.222-0.367,1.481-0.572,2.636c0.049,1.163-0.05,2.747,0.297,2.953L82.8,6.31
		l-1.317,5.613c0.373-0.128,1.738-1.86,2.963-2.779c0.348-0.364,0.979-1.289,0.979-1.289c-0.729,0.992-0.979,1.628-1.387,2.4
		c-0.545,1.35-0.414,0.896-1.018,2.768l4.733-3.257l-3.228,4.658c0,0,0.266,0.117,2.381-1.066c1.279-0.309,2.298-0.845,2.965-1.29
		c-1.567,1.396-2.266,1.29-4.3,3.977l5.331-1.095c0,0-4.418,2.649-4.655,2.805c0.237,0.292,2.119-0.253,3.497,0
		c1.203,0.072,1.203,0.098,2.395-0.129c-1.388,0.496-1.781,0.227-3.313,0.816c-0.639,0.362-1.981,0.885-2.147,1.191l5.366,0.982
		c0,0-5.294,1.217-6.184,1.554c-0.318,0-0.619-0.033-0.952-0.033c-0.257,0-0.466,0.033-0.688,0.068
		c0.222-0.372,0.304-0.769,0.267-1.17c-1.795,0.454-3.479-0.055-4.893,0.302c0.161-0.417,0.161-0.811,0.055-1.027
		c-2.23,0.999-4.088,0.52-5.901,1.991c0.045-0.433-0.051-0.964-0.283-1.472c-1.902,1.048-3.58,0.384-4.927,1.582
		c0.058-0.414,0.058-0.735-0.068-0.975c-2.021,0.769-3.596,1.039-5.082,2.509c-0.351-0.063-0.793-0.116-1.217-0.154
		c-0.016-0.091-0.093-0.141-0.133-0.21c-0.072,0.069-0.136,0.119-0.194,0.205c-0.279-0.032-0.578,0-0.945,0.043
		C62.81,23.25,63.867,23.109,64.682,22.653 M58.35,29.017c0.597-2.12,1.75-1.854,3.119-3.208c0.349,0.611-0.704,3.179-1.708,4.061
		c0.814-0.192,2.279,0.549,3.699,0.844c-1.345,0.37-1.673,1.135-3.257,0.927c-1.158-0.127-1.256-0.634-1.555-0.763
		c0.358-0.498,0.51-1.027,0.599-1.612c-0.241,0.585-0.747,1.046-1.245,1.477C58.177,30.325,58.5,30.311,58.35,29.017 M61.24,29.305
		c-0.089,0.037-0.124,0.037-0.166,0.086c0.004-0.049,0.004-0.049,0.042-0.086H61.24z M54.984,31.815
		c0.238-2.33,1.352-2.189,2.512-3.886c0.389,0.59-0.215,3.394-1.078,4.488c0.765-0.401,2.297,0.128,3.682,0.219
		c-1.237,0.581-1.452,1.46-2.985,1.495c-1.158,0.096-1.301-0.425-1.605-0.526c0.25-0.523,0.312-1.142,0.367-1.757
		c-0.208,0.653-0.57,1.238-0.961,1.757C54.984,33.155,55.307,33.027,54.984,31.815 M54.052,33.729
		c-0.064,0.335-0.182,0.635-0.264,0.873c-0.044,0.077-0.072,0.077-0.072,0.077C53.854,34.452,53.952,34.064,54.052,33.729
		 M51.1,34.981c0.231-2.412,0.877-2.191,1.935-3.917c0.426,0.545,0.245,3.3-0.468,4.468c0.713-0.474,2.19,0,3.568-0.048
		c-1.186,0.729-1.378,1.641-2.854,1.736c-1.16,0.105-1.303-0.342-1.603-0.393c0.217-0.615,0.299-1.2,0.299-1.847
		c-0.136,0.682-0.47,1.267-0.901,1.847C51.17,36.319,51.438,36.212,51.1,34.981 M49.455,34.77c0.433,0.522,0.491,3.352-0.133,4.621
		c0.647-0.531,2.185-0.325,3.514-0.531c-1.102,0.878-1.24,1.816-2.637,2.139c-1.058,0.276-1.28-0.154-1.582-0.212
		c0.157-0.604,0.213-1.223,0.136-1.865c-0.103,0.643-0.381,1.39-0.723,1.986c0.049-0.516,0.315-0.644-0.115-1.842
		C47.88,36.607,48.578,36.722,49.455,34.77 M47.132,43.106c0.269-0.177,0.47-0.348,0.683-0.443
		c-0.286,0.138-0.524,0.362-0.709,0.576C47.106,43.239,47.125,43.163,47.132,43.106 M45.681,40.313
		c0.641,0.253,0.983,2.851,0.466,4.132c0.641-0.654,2.353-0.978,3.823-1.591c-1.081,1.107-0.995,1.918-2.541,2.669
		c-1.21,0.596-1.507,0.274-1.832,0.316c0.058-0.531-0.059-1.067-0.239-1.591c0.045,0.599-0.159,1.274-0.433,1.888
		c-0.014-0.411,0.26-0.613-0.5-1.48C43.856,42.662,45.122,42.157,45.681,40.313 M42.679,48.804
		c-0.961-1.938,0.173-2.537,0.391-4.464c0.632,0.196,1.49,2.636,1.242,3.968c0.548-0.684,2.223-1.245,3.484-2.041
		c-0.837,1.238-0.589,2.041-2.007,3.004c-1.037,0.722-1.411,0.427-1.757,0.554c-0.02-0.554-0.227-1.079-0.51-1.53
		c0.147,0.61,0.077,1.27-0.059,1.898C43.351,49.768,43.589,49.541,42.679,48.804 M45.597,50.582
		c-0.059,0.187-0.112,0.319-0.194,0.489c-0.543,0.162-1.091,0.388-1.58,0.647C44.28,51.295,44.764,51.103,45.597,50.582
		 M40.712,49.864c0.68,0.181,1.45,2.712,1.235,4.073c0.533-0.704,2.188-1.175,3.477-1.879c-0.843,1.175-0.609,1.978-2.038,2.866
		c-1.055,0.676-1.396,0.379-1.75,0.494c-0.031-0.569-0.244-1.126-0.487-1.605c0.15,0.62,0.035,1.242-0.096,1.909
		c-0.093-0.399,0.096-0.667-0.765-1.448C39.352,52.351,40.503,51.794,40.712,49.864 M39.266,58.574
		c-1.243-1.81-0.267-2.547-0.407-4.459c0.73,0.109,1.935,2.521,2.002,3.848c0.356-0.751,1.935-1.462,3.056-2.346
		c-0.599,1.347-0.236,2.074-1.458,3.153c-0.87,0.823-1.31,0.602-1.644,0.671c-0.103-0.55-0.431-1.011-0.805-1.479
		c0.278,0.611,0.325,1.236,0.325,1.931C40.127,59.442,40.314,59.199,39.266,58.574 M37.275,59.856
		c0.737,0.157,1.991,2.63,1.991,3.95c0.435-0.776,1.951-1.32,3.065-2.202c-0.585,1.313-0.225,2.058-1.416,3.079
		c-0.858,0.777-1.294,0.522-1.649,0.604c-0.108-0.524-0.431-1.019-0.812-1.484c0.25,0.616,0.365,1.269,0.365,1.933
		c-0.204-0.411-0.024-0.664-1.079-1.376C36.475,62.495,37.457,61.777,37.275,59.856 M39.31,69.486
		c-0.217-0.537-0.627-0.978-1.078-1.429c0.383,0.566,0.587,1.261,0.699,1.909c-0.311-0.36-0.227-0.648-1.291-1.233
		c-1.591-1.717-0.948-2.129-1.451-4.08c0.697,0.03,2.494,2.115,2.857,3.366c0.187-0.791,1.574-1.616,2.543-2.65
		c-0.367,1.399,0.183,2.057-0.795,3.255C40.106,69.538,39.621,69.346,39.31,69.486 M41.149,69.84v0.68
		c-0.529,0.356-1.092,0.749-1.448,1.183C39.977,70.972,40.415,70.729,41.149,69.84 M36.189,70.52
		c0.674,0.131,2.515,2.244,2.857,3.573c0.187-0.819,1.574-1.553,2.485-2.55c-0.314,1.338,0.187,2.109-0.737,3.268
		c-0.688,0.873-1.173,0.64-1.442,0.809c-0.241-0.558-0.648-1.042-1.076-1.463c0.344,0.565,0.559,1.235,0.695,1.933
		c-0.288-0.405-0.176-0.697-1.289-1.348C36.095,73.024,36.725,72.54,36.189,70.52 M39.046,77.635v0.218
		c-0.363-0.643-0.983-1.467-1.771-2.12C38.391,76.374,38.763,77.018,39.046,77.635 M35.948,76.232
		c0.665,0.037,2.642,1.782,3.145,3.063c0.065-0.861,1.242-1.806,1.96-2.908c-0.068,1.451,0.552,2.176-0.192,3.428
		c-0.477,0.982-0.971,0.776-1.209,0.982c-0.342-0.533-0.803-0.964-1.289-1.366c0.456,0.55,0.773,1.235,0.989,1.897
		c-0.316-0.349-0.259-0.662-1.446-1.165C35.113,77.699,38.063,80.979,35.948,76.232 M39.589,82.939
		c-0.031,0.129-0.031,0.279-0.061,0.459c-0.311-0.741-1.074-1.46-1.818-1.998C38.536,81.875,39.137,82.464,39.589,82.939
		 M39.455,84.867c0.134-0.908,1.339-2.174,2.134-3.54c-0.197,1.498,0.358,2.125-0.44,3.636c-0.575,1.149-1.022,1.106-1.284,1.385
		c-0.276-0.507-0.669-0.821-1.161-1.137c0.433,0.489,0.648,1.074,0.854,1.773c-0.325-0.349-0.248-0.667-1.326-0.934
		c-1.664-1.27-0.904-1.874-1.589-3.701C37.275,82.195,39.093,83.653,39.455,84.867 M36.938,86.636
		c0.65-0.246,2.835,1.235,3.446,2.45c-0.049-0.878,0.966-2.293,1.563-3.72c0.042,1.489,0.707,1.998,0.136,3.522
		c-0.365,1.275-0.866,1.275-1.086,1.573c-0.377-0.471-0.812-0.74-1.345-0.937c0.475,0.347,0.821,0.945,1.142,1.525
		c-0.379-0.22-0.354-0.58-1.528-0.589C37.392,89.411,37.906,88.309,36.938,86.636 M42.324,94.675
		c-0.066-0.872,0.959-2.29,1.499-3.682c0.094,1.462,0.758,1.927,0.209,3.521c-0.363,1.158-0.824,1.158-1.051,1.446
		c-0.381-0.394-0.875-0.676-1.376-0.893c0.492,0.407,0.833,0.95,1.166,1.545c-0.384-0.211-0.361-0.566-1.549-0.595
		c-1.956-0.95-1.39-2.115-2.427-3.748C39.455,92.024,41.68,93.488,42.324,94.675 M40.01,96.718c0.61-0.316,3.156,0.758,4.003,1.813
		c-0.208-0.85,0.585-2.33,0.912-3.808c0.34,1.427,1.098,1.783,0.819,3.352c-0.147,1.197-0.622,1.312-0.819,1.595
		c-0.439-0.383-0.975-0.589-1.539-0.646c0.564,0.263,1.015,0.772,1.437,1.284c-0.421-0.187-0.444-0.512-1.656-0.384
		C41.053,99.336,41.35,98.147,40.01,96.718 M42.459,101.666c0.625-0.283,3.173,0.873,4.029,1.975
		c-0.194-0.833,0.644-2.258,1.041-3.673c0.267,1.415,1.049,1.766,0.726,3.32c-0.225,1.162-0.686,1.258-0.892,1.522
		c-0.463-0.36-1.003-0.604-1.574-0.732c0.571,0.297,1.013,0.796,1.443,1.336c-0.43-0.201-0.444-0.526-1.689-0.407
		C43.386,104.298,43.805,103.142,42.459,101.666 M44.378,105.78c0.629-0.365,3.404,0.393,4.452,1.284
		c-0.348-0.741,0.241-2.229,0.389-3.643c0.543,1.308,1.392,1.586,1.368,3.077c-0.051,1.146-0.507,1.286-0.666,1.584
		c-0.517-0.298-1.091-0.38-1.699-0.438c0.62,0.197,1.182,0.558,1.642,1.037c-0.409-0.132-0.517-0.438-1.754-0.183
		C45.828,108.147,45.971,107.008,44.378,105.78 M50.632,109.86c0.042,0.201,0.117,0.436,0.199,0.637
		c-0.543-0.482-1.376-0.838-2.253-1.039C49.404,109.457,50.08,109.658,50.632,109.86 M47.026,110.147
		c0.637-0.324,3.447,0.638,4.481,1.626c-0.337-0.802,0.341-2.206,0.529-3.571c0.531,1.316,1.396,1.64,1.27,3.126
		c-0.026,1.123-0.529,1.232-0.683,1.504c-0.524-0.367-1.116-0.48-1.734-0.594c0.658,0.227,1.21,0.711,1.692,1.19
		c-0.482-0.155-0.51-0.479-1.82-0.337C48.444,112.56,48.617,111.437,47.026,110.147 M57.115,117.309
		c-0.438-0.372-0.922-0.833-1.874-0.58c-2.464-0.253-3.095-1.797-4.93-2.816c0.576-0.396,3.559,0.161,4.787,0.934
		c-0.444-0.681-0.077-2.08-0.149-3.447c0.776,1.185,1.7,1.367,1.867,2.834c0.198,1.202,0.198,1.897,0.439,2.593
		c-0.362-0.35-0.837-0.669-1.314-0.883C56.418,116.331,56.781,116.769,57.115,117.309 M54.172,113.734v-0.034l0.026,0.034H54.172z
		 M69.965,123.638c-5.342-1.624-9.981-4.154-11.179-5.997c-0.436-0.978-0.567-2.151-0.836-3.673c0-0.056-0.039-0.056-0.039-0.124
		c3.785,3.222,7.929,5.542,12.374,6.635h-0.391C68.402,122.312,69.204,123.236,69.965,123.638 M76.275,119.31
		c-14.684-0.302-23.362-12.27-26.68-18.07c-0.523-0.675,8.355-3.475,10.342-4.004l2.456-0.622c0.089,1.098,1.973,1.448,1.839,1.021
		c0.45,0.236-0.135,0.926,0.962,1.754c1.212,0.831,1.926,0.347,2.066,0.122c-0.718,0.767,1.818,2.104,3.313,1.198
		c-0.211,0.739,1.036,1.015,1.303,1.026c0.519,0.307,1.832,0.595,2.812,0v8.089c0.148,1.505,0.216,1.874,0.929,2.121
		c3.25,0.294,2.567-0.762,2.904-1.729c-0.106-3.476-0.192-8.493-0.192-8.481c2.265-0.287,1.675-0.767,2.522-1.026
		c0.938,0.14,1.445,0.129,2.267-0.997c1.177,0.124,2.204-0.25,2.561-1.229c0.979,0.352,2.394-0.612,3.185-2.409
		c2.162,0.689,10.076,4.895,13.731,6.043C100.932,104.834,91.822,119.31,76.275,119.31 M101.784,110.81
		c0.344-0.149,0.771-0.307,1.271-0.313c-0.554,0.218-1.07,0.452-1.438,0.721C101.689,111.086,101.756,110.948,101.784,110.81
		 M98.162,114.462c0,0-0.024,0-0.024,0.022C98.138,114.462,98.162,114.462,98.162,114.462 M94.345,114.635
		c-0.271,1.399-0.394,2.386-0.657,3.327c-1.352,2.518-8.113,4.733-10.94,5.653c0.845-0.787,1.327-2.368,0.146-3.137H82.65
		c4.194-1.063,8.16-3.152,11.757-6.018C94.345,114.497,94.345,114.581,94.345,114.635 M97.704,117.066
		c-1.069-0.255-1.785,0.394-2.324,0.819c0.431-0.576,0.894-1.226,1.36-1.554c-0.521,0.145-1.03,0.397-1.432,0.672
		c0.039-0.527-0.026-1.103,0.129-2.09c0.192-1.462,1.162-1.641,1.95-2.882c-0.107,1.396,0.315,2.873-0.219,3.596
		c1.271-0.781,4.326-1.322,4.926-0.92C100.195,115.723,100.17,116.907,97.704,117.066 M101.618,113.844
		c-1.287-0.145-1.358,0.178-1.851,0.321c0.543-0.48,1.104-0.893,1.729-1.194c-0.624,0.12-1.236,0.265-1.752,0.613
		c-0.131-0.312-0.653-0.421-0.653-1.581c-0.096-1.507,0.804-1.823,1.359-3.117c0.159,1.371,0.776,2.811,0.446,3.634
		c1.08-1.011,3.987-1.928,4.609-1.609C103.854,112.232,104.023,113.379,101.618,113.844 M104.365,109.518
		c-1.254-0.215-1.344,0.077-1.812,0.236c0.52-0.451,1.063-0.91,1.708-1.127c-0.635,0.054-1.188,0.177-1.748,0.498
		c-0.104-0.321-0.635-0.444-0.635-1.643c-0.058-1.574,0.801-1.804,1.396-3.107c0.104,1.404,0.729,2.898,0.402,3.707
		c1.051-0.983,3.867-1.736,4.46-1.312C106.529,107.986,106.725,109.146,104.365,109.518 M106.973,105.908
		c-1.268-0.062-1.285,0.264-1.701,0.479c0.416-0.541,0.857-1.07,1.453-1.356c-0.596,0.126-1.146,0.354-1.57,0.7
		c-0.215-0.317-0.709-0.346-0.95-1.524c-0.339-1.586,0.446-1.956,0.784-3.371c0.351,1.415,1.212,2.877,1.046,3.759
		c0.868-1.174,3.43-2.339,4.085-2.033C108.814,104.039,109.154,105.213,106.973,105.908 M109.741,100.761
		c-1.237-0.105-1.269,0.206-1.668,0.412c0.399-0.518,0.862-0.988,1.474-1.339c-0.609,0.134-1.132,0.351-1.598,0.7
		c-0.176-0.316-0.662-0.427-0.844-1.654c-0.281-1.624,0.522-1.97,0.844-3.388c0.349,1.44,1.148,2.989,0.938,3.844
		c0.854-1.083,3.422-2.153,4.026-1.804C111.573,98.957,111.882,100.185,109.741,100.761 M111.695,96.762
		c-1.198,0.01-1.168,0.372-1.545,0.623c0.307-0.613,0.684-1.184,1.164-1.549c-0.525,0.21-1,0.456-1.381,0.926
		c-0.231-0.292-0.73-0.36-1.069-1.502c-0.566-1.604,0.14-2.12,0.208-3.615c0.58,1.436,1.561,2.869,1.561,3.734
		c0.682-1.193,2.921-2.622,3.572-2.459C113.135,94.607,113.688,95.836,111.695,96.762 M112.132,92.829
		c0.271-0.229,0.532-0.374,0.906-0.465C112.748,92.481,112.434,92.6,112.132,92.829 M113.688,91.051
		c-1.181,0.073-1.153,0.421-1.537,0.643c0.314-0.594,0.681-1.164,1.17-1.529c-0.522,0.216-0.992,0.45-1.362,0.887
		c-0.22-0.255-0.697-0.255-1.123-1.481c-0.576-1.626,0.124-2.147,0.168-3.649c0.558,1.444,1.612,2.887,1.604,3.802
		c0.576-1.261,2.813-2.798,3.467-2.531C115.063,88.889,115.633,90.097,113.688,91.051"/>
	<path fill="#FACC63" d="M64.681,22.652c1.38-0.621,1.769-1.064,1.769-1.064l-4.464-1.127l4.543-0.946c0,0-0.121-0.232-2.775-1.073
		c-0.507-0.167-0.074-0.688-2.285-1.135c0.8-0.162,0.556,0.215,2.062,0.447c1.032,0.018,1.839,0.201,3.306-0.127
		c0,0-2.695-2.08-4.469-3.019c0,0,2.948,0.779,5.278,1.334c0-0.24-1.86-1.66-3.083-3.151c-0.281-0.355-0.368-0.571-0.674-0.868
		c1.284,0.499,1.284,0.868,1.951,1.28c0.793,0.293,2.3,1.146,2.845,1.079c-1.324-1.86-3.172-4.552-3.172-4.552l4.645,3.151
		c-0.192-1.195-1.053-2.124-1.135-2.583c-0.559-1.967-0.393-1.799-0.826-2.543c1.259,1.891,1.736,2.911,3.652,4.046l-0.828-5.749
		l2.78,5.065c0.189-0.701-0.003-2.11-0.101-2.618c0.29-2.613,0.29-1.074-0.04-3.017c0.309,1.094,0.309,0.901,0.475,2.244
		c0.503,1.112,0.875,1.952,1.505,2.981l1.148-5.37c0,0,0.885,5.37,0.749,5.419c0.599-1.116,0.513-1.75,1.093-2.613
		c0.865-1.438,1.13-2.637,1.13-2.637c-0.424,2.22-0.365,1.481-0.57,2.637c0.047,1.16-0.013,2.747,0.297,2.952l3.317-4.784
		l-1.317,5.61c0.369-0.128,1.738-1.86,2.959-2.777c0.352-0.367,1.033-1.289,1.033-1.289c-0.781,0.992-1.033,1.626-1.439,2.398
		c-0.545,1.35-0.414,0.896-1.018,2.77l4.735-3.259l-3.229,4.658c0,0,0.27,0.117,2.383-1.067c1.279-0.306,2.297-0.844,2.964-1.286
		c-1.563,1.393-2.265,1.286-4.3,3.976l5.332-1.098c0,0-4.415,2.653-4.656,2.806c0.241,0.292,2.12-0.251,3.498,0
		c1.205,0.072,1.205,0.098,2.393-0.127c-1.385,0.494-1.777,0.225-3.281,0.814c-0.668,0.362-2.013,0.885-2.179,1.19l5.369,0.983
		c0,0-5.297,1.217-6.187,1.554c-0.289-0.033-0.619-0.033-0.951-0.033c-0.258,0-0.467,0.033-0.688,0.07
		c0.222-0.374,0.304-0.81,0.268-1.17c-1.796,0.451-3.479-0.057-4.894,0.302c0.162-0.416,0.162-0.81,0.055-1.029
		c-2.228,1.001-4.087,0.521-5.9,1.993c0.046-0.435-0.052-0.964-0.265-1.472c-1.921,1.046-3.598,0.384-4.946,1.58
		c0.059-0.412,0.059-0.735-0.065-1.014c-2.024,0.81-3.578,1.08-5.085,2.551c-0.35-0.066-0.793-0.119-1.202-0.157
		c-0.031-0.091-0.108-0.139-0.145-0.211c-0.075,0.072-0.138,0.12-0.194,0.206c-0.281-0.03-0.578,0-0.946,0.043
		C62.812,23.251,63.867,23.108,64.681,22.652"/>
	<path fill="#231F20" d="M83.967,16.903l0.559,0.02c0,0-0.338-2.499-4.801-2.209H78.67c0,0.056-0.484,1.404-0.484,1.404l3.041-0.216
		C81.227,15.902,83.323,15.701,83.967,16.903"/>
	<path fill="#231F20" d="M79.061,18.576c0.016-0.11,0.696-0.749,0.696-0.749s0.103,0.023,0.142,0.023
		c-0.039,0.117-0.08,0.194-0.08,0.313c0,0.484,0.246,0.896,0.703,1.074c0.123,0.042,0.777,0,0.777,0
		c0.442-0.179,0.709-0.6,0.709-1.074c0-0.119-0.051-0.196-0.087-0.307c0.41,0.097,0.892,0.307,1.109,0.751l0.937,0.04
		c0,0-0.531-2.358-4.779-1.709c0,0-1.051,1.5-1.051,1.627C78.101,18.639,79.061,18.639,79.061,18.576"/>
	<path fill="#231F20" d="M69.386,18.576l0.977-0.11c0.243-0.461,0.702-0.639,1.071-0.714c-0.047,0.105-0.086,0.202-0.086,0.293
		c0,0.521,0.264,0.905,0.716,1.083c0,0,0.652,0.087,0.76,0c0.456-0.178,0.77-0.562,0.77-1.083c0-0.077-0.082-0.077-0.082-0.136
		c0.131-0.052,0.196-0.052,0.196-0.052s0.602,0.582,0.602,0.608c0,0.101,1.001,0.101,0.968-0.026
		c-0.007-0.103-1.02-1.576-1.02-1.576C69.966,16.103,69.386,18.576,69.386,18.576"/>
	<path fill="#231F20" d="M71.952,15.853l3.156,0.192c0,0-0.362-1.275-0.362-1.329h-0.822c-4.768-0.29-5.177,2.091-5.177,2.091
		l0.582-0.009C69.965,15.567,71.952,15.853,71.952,15.853"/>
	<path fill="#0B9E5C" d="M116.439,82.318c-0.698,1.86,0,3.021-1.66,4.319c-1.094,0.218-1.036,0.599-1.338,0.908
		c0.178-0.69,0.416-1.353,0.817-1.795c-0.458,0.302-0.879,0.639-1.139,1.142c-0.29-0.241-0.7-0.197-1.304-1.366
		c-0.816-1.567-0.258-2.172-0.504-3.716c0.802,1.391,2.041,2.628,2.224,3.558C113.916,84.049,115.741,82.155,116.439,82.318"/>
	<path fill="#0B9E5C" d="M117.18,76.053c-0.828,1.961-0.229,2.878-2.082,4.537c-1.182,0.503-1.133,0.809-1.477,1.221
		c0.238-0.718,0.541-1.398,1.009-1.941c-0.524,0.412-0.981,0.862-1.31,1.376c-0.26-0.152-0.756,0-1.283-0.983
		c-0.725-1.331-0.063-2.08-0.182-3.51c0.75,1.114,1.945,2.144,2.049,2.979C114.422,78.315,116.506,76.053,117.18,76.053"/>
	<path fill="#0B9E5C" d="M113.916,74.413c0.32-1.391,2.05-3.894,2.754-3.984c-0.531,2.042,0.25,2.847-1.352,4.665
		c-1.156,0.662-1.01,0.959-1.313,1.385c0.127-0.723,0.335-1.418,0.717-1.998c-0.464,0.431-0.863,0.943-1.113,1.462
		c-0.256-0.116-0.747,0.11-1.461-0.8c-0.941-1.155-0.411-1.972-0.782-3.308C112.309,72.787,113.688,73.568,113.916,74.413"/>
	<path fill="#0B9E5C" d="M116.67,64.437c-0.532,1.965,0.281,2.791-1.318,4.512c-1.146,0.589-1.027,0.891-1.313,1.261
		c0.124-0.672,0.332-1.38,0.685-1.888c-0.462,0.411-0.816,0.833-1.104,1.407c-0.264-0.124-0.756,0.026-1.504-0.899
		c-0.937-1.212-0.419-1.898-0.803-3.305c0.938,1.051,2.375,1.869,2.637,2.665C114.234,66.81,115.966,64.496,116.67,64.437"/>
	<path fill="#0B9E5C" d="M113.648,63.925c0.037-1.362,1.319-3.865,2.01-4.034c-0.122,2.005,0.85,2.672-0.424,4.572
		c-1.07,0.742-0.865,0.997-1.1,1.418c0-0.676,0.069-1.357,0.362-1.956c-0.394,0.494-0.729,0.927-0.851,1.535
		c-0.33-0.092-0.763,0.166-1.666-0.7c-1.209-0.99-0.802-1.766-1.455-3.065C111.693,62.563,113.243,63.153,113.648,63.925"/>
	<path fill="#0B9E5C" d="M62.564,27.955c0.274-0.367,0.625-0.367,0.87-1.619c0.786-2.511,2.176-2.223,3.95-3.414
		c0.62,0.777-1.544,3.605-2.894,4.46c0.844-0.134,2.019,0.91,3.245,1.406c-1.446,0.166-2.024,0.919-3.402,0.456
		c-1.039-0.367-0.983-0.875-1.229-1.056c0.468-0.433,0.815-0.976,1.128-1.544C63.79,27.213,63.189,27.627,62.564,27.955"/>
	<path fill="#0B9E5C" d="M86.982,27.126c-0.545,0-1.074-0.168-1.59-0.356c0.783-0.243,1.515-0.545,2.154-0.959
		c1.404,0.29,2.574,0.959,2.667,2.129c-1.174-0.341-1.389,0.403-3.121,0.697c-1.602,0.349-2.44-0.559-3.83-0.811
		c-0.454-0.368-0.614-0.7-0.614-0.93c0.711,0.139,1.465,0.139,2.145,0.015l-0.037,0.208C85.513,27.39,86.25,27.323,86.982,27.126"/>
	<path fill="#0B9E5C" d="M81.867,25.118c0.783,0.051,1.455-0.181,2.099-0.469c-0.473,0.105-0.989,0.055-1.502,0
		c0.938-0.612,1.609-1.398,2.931-1.361c1.781,0.023,1.797,1.064,2.912,0.538C88.388,24.754,83.225,27.118,81.867,25.118"/>
	<path fill="#0B9E5C" d="M79.334,24.754c0.833,0.25,1.675,1.701,2.674,2.702c-1.331-0.421-2.035,0.073-3.247-0.938
		c-0.901-0.786-0.756-1.247-0.875-1.535c0.531-0.229,0.957-0.574,1.371-1.039c-0.557,0.358-1.207,0.512-1.888,0.586
		c0.362-0.228,0.681-0.121,1.205-1.22c1.633-1.548,2.479-0.691,4.402-1.105C82.893,22.922,80.698,24.53,79.334,24.754"/>
	<path fill="#0B9E5C" d="M75.181,25.118c0.845,0.103,1.839,1.336,2.983,2.131c-1.406-0.131-2.014,0.466-3.327-0.301
		c-0.994-0.591-0.87-1.057-1.086-1.302c0.52-0.32,0.887-0.786,1.233-1.303c-0.496,0.453-1.127,0.725-1.766,0.982
		c0.323-0.389,0.639-0.32,1.037-1.5c1.436-1.829,2.056-1.102,3.93-1.951C78.213,22.619,76.447,24.615,75.181,25.118"/>
	<path fill="#0B9E5C" d="M72.332,27.661c-1.411,0-2.047,0.681-3.393,0.005c-1.029-0.417-0.905-0.897-1.144-1.147
		c0.503-0.332,0.889-0.837,1.226-1.4c-0.491,0.485-1.118,0.889-1.759,1.127c0.328-0.354,0.641-0.27,1.019-1.541
		c1.345-1.959,2.293-1.386,4.115-2.371c0.061,0.698-1.86,2.906-3.168,3.501C70.056,25.892,71.155,27.034,72.332,27.661"/>
	<path fill="#0B9E5C" d="M114.079,54.034c-0.131,1.996,0.884,2.699-0.431,4.539c-1.043,0.686-0.853,0.969-1.084,1.354
		c0-0.669,0.05-1.354,0.321-1.963c-0.379,0.465-0.665,0.947-0.793,1.577c-0.354-0.171-0.78,0.093-1.657-0.773
		c-1.281-1.078-0.89-1.806-1.504-3.17c1.15,0.903,2.736,1.591,3.161,2.366C112.094,56.602,113.354,54.174,114.079,54.034"/>
	<path fill="#0B9E5C" d="M110.958,53.854c-0.255-1.365,0.56-3.897,1.245-4.154c0.217,1.97,1.389,2.563,0.411,4.535
		c-0.877,0.784-0.632,1.039-0.763,1.46c-0.156-0.676-0.219-1.343-0.076-1.932c-0.258,0.472-0.487,0.987-0.517,1.559
		c-0.346-0.048-0.763,0.26-1.797-0.471c-1.43-0.878-1.214-1.701-2.069-2.918C108.707,52.684,110.438,53.124,110.958,53.854"/>
	<path fill="#0B9E5C" d="M109.4,44.084c0.25,1.979,1.391,2.568,0.397,4.532c-0.866,0.76-0.644,1.011-0.789,1.427
		c-0.124-0.667-0.188-1.329-0.04-1.93c-0.279,0.448-0.503,0.991-0.54,1.542c-0.356-0.093-0.729,0.168-1.786-0.551
		c-1.438-0.959-1.168-1.75-2.06-2.987c1.284,0.749,3.001,1.284,3.577,2.028C107.908,46.758,108.741,44.248,109.4,44.084"/>
	<path fill="#0B9E5C" d="M106.74,39.971c0.611,1.883,1.844,2.363,1.292,4.437c-0.745,0.849-0.472,1.115-0.521,1.507
		c-0.285-0.627-0.455-1.292-0.441-1.94c-0.17,0.563-0.33,1.074-0.215,1.678c-0.385-0.076-0.691,0.263-1.867-0.344
		c-1.609-0.771-1.506-1.572-2.576-2.742c1.43,0.617,3.189,0.901,3.872,1.634C105.788,42.832,106.13,40.263,106.74,39.971"/>
	<path fill="#0B9E5C" d="M103.054,34.451c0.873,1.928,1.53,1.722,1.462,4.236c-0.433,1.238-0.147,1.411-0.11,1.934
		c-0.328-0.651-0.611-1.376-0.724-2.08c-0.063,0.609-0.055,1.289,0.158,1.909c-0.33,0.08-0.552,0.517-1.621,0.225
		c-1.458-0.326-1.568-1.301-2.695-2.183c1.351,0.24,2.918,0,3.586,0.532C102.502,37.745,102.593,34.982,103.054,34.451"/>
	<path fill="#0B9E5C" d="M99.813,35.452c-0.723-1.128-0.918-3.812-0.477-4.388c1.036,1.77,1.743,1.399,1.891,3.83
		c-0.295,1.28-0.006,1.393,0.092,1.876c-0.422-0.561-0.813-1.204-0.949-1.876c0.004,0.635,0.081,1.242,0.332,1.827
		c-0.328,0.106-0.479,0.604-1.61,0.457c-1.516-0.11-1.717-1.042-2.934-1.727C97.52,35.452,99.091,35.017,99.813,35.452"/>
	<path fill="#0B9E5C" d="M94.65,26.948c1.158,1.688,2.322,1.571,2.564,3.944c-0.324,1.229,0,1.361,0.089,1.799
		c-0.431-0.57-0.813-1.113-1.019-1.764c0.033,0.65,0.142,1.193,0.398,1.764c-0.342,0.144-0.469,0.633-1.649,0.526
		c-1.55,0-1.79-0.87-3.05-1.544c1.421-0.033,2.968-0.554,3.748-0.146C94.877,30.379,94.221,27.552,94.65,26.948"/>
	<path fill="#0B9E5C" d="M93.359,27.323c-0.19,1.361,0.234,1.266,0.4,1.837c-0.166-0.033-0.236-0.1-0.354-0.1
		c-0.492-0.519-0.917-1.12-1.137-1.474c0.22,1.098,0.264,1.432,0.645,1.975c-0.114,0.181-0.381,0.365-1.048,0.447
		c-1.907,0.108-2.265-0.332-3.004-0.744c1.266-0.538,1.858-1.192,3.079-0.793c0-0.103-0.018-0.18-0.119-0.355h0.072
		c-0.028,0-0.072-0.037-0.072-0.037c-0.141-0.414-0.506-0.866-1.069-1.351c-0.567-0.997-0.95-2.08-0.709-2.476
		C91.415,25.646,92.755,25.069,93.359,27.323"/>
	<path fill="#0B9E5C" d="M58.376,29.061c0.585-2.164,1.736-1.874,3.098-3.252c0.372,0.629-0.641,3.207-1.689,4.118
		c0.814-0.251,2.295,0.503,3.708,0.814c-1.336,0.379-1.706,1.199-3.241,0.931c-1.204-0.143-1.291-0.629-1.581-0.795
		c0.337-0.499,0.501-1.009,0.615-1.612c-0.278,0.604-0.758,1.06-1.275,1.497C58.177,30.357,58.5,30.31,58.376,29.061"/>
	<path fill="#0B9E5C" d="M54.999,31.814c0.241-2.288,1.383-2.189,2.541-3.875c0.344,0.581-0.236,3.407-1.074,4.51
		c0.716-0.392,2.267,0.096,3.648,0.206c-1.25,0.563-1.444,1.442-2.984,1.494c-1.151,0.077-1.307-0.441-1.621-0.543
		c0.25-0.521,0.367-1.106,0.367-1.757c-0.163,0.679-0.563,1.235-0.959,1.774C54.999,33.152,55.313,33.08,54.999,31.814"/>
	<path fill="#0B9E5C" d="M51.17,35.018c0.19-2.45,0.826-2.185,1.895-3.952c0.396,0.576,0.215,3.387-0.498,4.488
		c0.713-0.449,2.197,0,3.598-0.07c-1.216,0.759-1.408,1.658-2.885,1.787c-1.134,0.055-1.303-0.393-1.577-0.443
		c0.227-0.585,0.293-1.166,0.293-1.847c-0.112,0.681-0.489,1.308-0.913,1.847C51.17,36.37,51.477,36.242,51.17,35.018"/>
	<path fill="#0B9E5C" d="M49.455,34.771c0.456,0.558,0.515,3.351-0.133,4.621c0.718-0.531,2.185-0.315,3.558-0.531
		c-1.134,0.892-1.221,1.813-2.651,2.177c-1.088,0.269-1.31-0.192-1.609-0.253c0.21-0.585,0.21-1.22,0.154-1.847
		c-0.1,0.682-0.381,1.371-0.702,1.971c0.014-0.456,0.3-0.6-0.149-1.832C47.887,36.608,48.587,36.722,49.455,34.771"/>
	<path fill="#0B9E5C" d="M45.708,40.314c0.629,0.25,0.957,2.851,0.44,4.133c0.655-0.613,2.398-0.979,3.86-1.592
		c-1.088,1.106-0.999,1.916-2.55,2.702c-1.165,0.56-1.488,0.281-1.86,0.358c0.084-0.602,0-1.132-0.218-1.666
		c0.045,0.647-0.161,1.308-0.43,1.947c-0.038-0.471,0.248-0.673-0.508-1.506C43.902,42.663,45.142,42.156,45.708,40.314"/>
	<path fill="#0B9E5C" d="M42.685,48.804c-0.938-1.937,0.192-2.536,0.386-4.443c0.655,0.204,1.511,2.636,1.274,3.987
		c0.513-0.714,2.19-1.285,3.51-2.017c-0.887,1.172-0.623,1.977-2.029,2.938c-1.034,0.724-1.427,0.429-1.762,0.555
		c-0.035-0.555-0.259-1.039-0.542-1.517c0.159,0.611,0.11,1.254-0.031,1.886C43.363,49.824,43.6,49.562,42.685,48.804"/>
	<path fill="#0B9E5C" d="M40.755,49.895c0.636,0.19,1.432,2.682,1.193,4.064c0.562-0.726,2.223-1.196,3.535-1.886
		c-0.9,1.16-0.659,1.963-2.082,2.85c-1.015,0.676-1.378,0.381-1.722,0.494c-0.044-0.567-0.248-1.084-0.531-1.563
		c0.15,0.6,0.07,1.202-0.079,1.906c-0.11-0.438,0.117-0.704-0.754-1.466C39.375,52.365,40.505,51.794,40.755,49.895"/>
	<path fill="#0B9E5C" d="M39.312,58.574c-1.284-1.783-0.276-2.522-0.419-4.435c0.697,0.096,1.968,2.497,1.968,3.861
		c0.36-0.789,1.968-1.456,3.088-2.347c-0.629,1.31-0.245,2.07-1.439,3.116c-0.905,0.823-1.324,0.602-1.649,0.671
		c-0.148-0.528-0.445-1.013-0.805-1.44c0.26,0.573,0.328,1.212,0.328,1.89C40.153,59.543,40.333,59.213,39.312,58.574"/>
	<path fill="#0B9E5C" d="M37.33,59.893c0.695,0.122,1.937,2.592,1.982,3.954c0.404-0.744,1.911-1.362,3.076-2.244
		c-0.641,1.313-0.243,2.058-1.427,3.082c-0.903,0.776-1.308,0.528-1.649,0.639c-0.117-0.562-0.454-1.056-0.808-1.521
		c0.291,0.617,0.333,1.275,0.333,1.97c-0.223-0.449-0.017-0.694-1.06-1.399C36.503,62.495,37.481,61.837,37.33,59.893"/>
	<path fill="#0B9E5C" d="M39.352,69.505c-0.239-0.557-0.646-0.997-1.076-1.39c0.346,0.508,0.561,1.202,0.657,1.879
		c-0.25-0.385-0.138-0.677-1.263-1.238c-1.622-1.74-0.945-2.152-1.479-4.104c0.697,0.087,2.515,2.115,2.857,3.366
		c0.217-0.791,1.607-1.616,2.557-2.65c-0.325,1.399,0.19,2.057-0.812,3.255C40.128,69.538,39.653,69.346,39.352,69.505"/>
	<path fill="#0B9E5C" d="M39.49,84.882c0.098-0.887,1.324-2.19,2.115-3.542c-0.173,1.485,0.384,2.122-0.419,3.624
		c-0.599,1.174-1.06,1.107-1.296,1.385c-0.302-0.483-0.674-0.824-1.184-1.137c0.431,0.489,0.669,1.104,0.882,1.771
		c-0.323-0.332-0.276-0.667-1.357-0.911c-1.626-1.258-0.898-1.894-1.539-3.692C37.33,82.197,39.095,83.655,39.49,84.882"/>
	<path fill="#0B9E5C" d="M36.961,86.637c0.639-0.246,2.833,1.271,3.423,2.503c-0.049-0.896,1.008-2.349,1.563-3.773
		c0.077,1.49,0.731,1.999,0.15,3.557c-0.379,1.242-0.88,1.242-1.072,1.539c-0.372-0.47-0.826-0.741-1.343-0.938
		c0.503,0.407,0.821,0.948,1.111,1.55c-0.348-0.241-0.348-0.602-1.483-0.611C37.424,89.48,37.923,88.31,36.961,86.637"/>
	<path fill="#0B9E5C" d="M42.328,94.711c-0.03-0.896,0.955-2.307,1.521-3.72c0.07,1.462,0.751,1.928,0.217,3.522
		c-0.383,1.233-0.856,1.233-1.083,1.505c-0.353-0.454-0.837-0.669-1.345-0.924c0.47,0.397,0.842,0.949,1.16,1.553
		c-0.386-0.246-0.358-0.604-1.518-0.629c-1.968-0.952-1.446-2.118-2.459-3.748C39.489,92.042,41.716,93.488,42.328,94.711"/>
	<path fill="#0B9E5C" d="M40.056,96.763c0.597-0.36,3.138,0.739,3.975,1.77c-0.208-0.824,0.615-2.331,0.894-3.808
		c0.365,1.435,1.118,1.805,0.854,3.381c-0.18,1.165-0.639,1.28-0.828,1.577c-0.447-0.397-0.978-0.512-1.566-0.657
		c0.588,0.312,1.039,0.772,1.474,1.284c-0.435-0.124-0.479-0.512-1.665-0.384C41.053,99.386,41.393,98.148,40.056,96.763"/>
	<path fill="#0B9E5C" d="M42.51,101.721c0.599-0.339,3.147,0.84,3.984,1.918c-0.173-0.83,0.693-2.257,1.037-3.626
		c0.283,1.369,1.076,1.762,0.729,3.309c-0.189,1.128-0.674,1.224-0.859,1.487c-0.47-0.359-1.008-0.603-1.574-0.729
		c0.566,0.297,1.048,0.81,1.406,1.334c-0.391-0.201-0.433-0.524-1.636-0.407C43.401,104.299,43.804,103.141,42.51,101.721"/>
	<path fill="#0B9E5C" d="M44.401,105.797c0.627-0.384,3.381,0.374,4.429,1.266c-0.33-0.739,0.243-2.229,0.395-3.643
		c0.563,1.308,1.409,1.61,1.362,3.121c0,1.16-0.508,1.254-0.639,1.542c-0.493-0.288-1.106-0.382-1.694-0.44
		c0.588,0.196,1.152,0.6,1.657,1.065c-0.433-0.102-0.557-0.466-1.774-0.184C45.868,108.146,45.985,107.009,44.401,105.797"/>
	<path fill="#0B9E5C" d="M47.058,110.147c0.634-0.306,3.432,0.662,4.49,1.626c-0.332-0.767,0.334-2.206,0.522-3.572
		c0.496,1.361,1.368,1.658,1.242,3.126c-0.007,1.123-0.531,1.232-0.662,1.512c-0.531-0.318-1.102-0.489-1.732-0.603
		c0.653,0.284,1.182,0.713,1.692,1.216c-0.466-0.179-0.54-0.503-1.816-0.361C48.443,112.583,48.651,111.437,47.058,110.147"/>
	<path fill="#0B9E5C" d="M57.131,117.308c-0.442-0.319-0.938-0.831-1.89-0.58c-2.459-0.251-3.082-1.755-4.886-2.814
		c0.564-0.398,3.559,0.196,4.78,0.992c-0.482-0.742-0.091-2.139-0.152-3.506c0.756,1.183,1.694,1.393,1.874,2.834
		c0.185,1.2,0.159,1.924,0.424,2.633c-0.382-0.39-0.833-0.687-1.324-0.91C56.417,116.33,56.815,116.81,57.131,117.308"/>
	<path fill="#0B9E5C" d="M97.704,117.066c-1.056-0.255-1.748,0.412-2.302,0.835c0.408-0.592,0.886-1.236,1.338-1.516
		c-0.494,0.091-0.99,0.342-1.393,0.634c0.021-0.543-0.041-1.118,0.116-2.105c0.188-1.438,1.17-1.641,1.981-2.882
		c-0.142,1.396,0.258,2.882-0.231,3.596c1.252-0.781,4.282-1.322,4.881-0.919C100.195,115.772,100.17,116.907,97.704,117.066"/>
	<path fill="#0B9E5C" d="M101.619,113.845c-1.249-0.145-1.359,0.178-1.844,0.32c0.537-0.465,1.098-0.892,1.785-1.193
		c-0.643,0.12-1.252,0.302-1.793,0.613c-0.129-0.312-0.635-0.416-0.677-1.581c-0.079-1.5,0.812-1.823,1.386-3.117
		c0.131,1.406,0.778,2.848,0.453,3.634c1.055-1.011,3.954-1.931,4.577-1.609C103.863,112.239,104.045,113.403,101.619,113.845"/>
	<path fill="#0B9E5C" d="M104.365,109.563c-1.227-0.242-1.324,0.033-1.803,0.192c0.528-0.452,1.064-0.91,1.726-1.128
		c-0.608,0.082-1.196,0.201-1.726,0.498c-0.151-0.32-0.639-0.444-0.684-1.609c-0.058-1.54,0.809-1.837,1.396-3.14
		c0.104,1.404,0.746,2.995,0.402,3.733c1.094-0.944,3.883-1.727,4.48-1.338C106.529,107.986,106.74,109.146,104.365,109.563"/>
	<path fill="#0B9E5C" d="M106.98,105.939c-1.244-0.091-1.274,0.234-1.685,0.447c0.409-0.538,0.853-1.018,1.441-1.348
		c-0.591,0.119-1.138,0.349-1.585,0.694c-0.165-0.277-0.68-0.32-0.924-1.524c-0.334-1.577,0.471-1.952,0.759-3.374
		c0.391,1.422,1.247,2.88,1.077,3.762c0.836-1.111,3.397-2.34,4.084-2.033C108.814,104.039,109.155,105.211,106.98,105.939"/>
	<path fill="#0B9E5C" d="M109.743,100.789c-1.218-0.133-1.242,0.178-1.672,0.384c0.432-0.517,0.898-0.988,1.478-1.338
		c-0.578,0.13-1.119,0.35-1.574,0.699c-0.199-0.316-0.67-0.412-0.834-1.643c-0.285-1.607,0.487-1.981,0.834-3.399
		c0.334,1.485,1.148,2.989,0.912,3.893c0.856-1.132,3.441-2.201,4.071-1.854C111.626,98.989,111.959,100.185,109.743,100.789"/>
	<path fill="#0B9E5C" d="M111.738,96.772c-1.213,0.047-1.188,0.412-1.557,0.613c0.281-0.566,0.653-1.165,1.131-1.537
		c-0.509,0.225-0.998,0.486-1.364,0.915c-0.246-0.293-0.694-0.321-1.063-1.502c-0.56-1.604,0.124-2.085,0.212-3.58
		c0.553,1.399,1.578,2.833,1.533,3.697c0.682-1.191,2.96-2.623,3.604-2.457C113.145,94.652,113.688,95.836,111.738,96.772"/>
	<path fill="#0B9E5C" d="M113.719,91.074c-1.185,0.104-1.185,0.397-1.517,0.672c0.262-0.623,0.629-1.181,1.151-1.582
		c-0.559,0.215-1.025,0.488-1.396,0.91c-0.22-0.278-0.697-0.278-1.123-1.505c-0.541-1.626,0.121-2.139,0.166-3.649
		c0.624,1.457,1.612,2.887,1.603,3.802c0.625-1.261,2.814-2.792,3.483-2.487C115.098,88.889,115.632,90.096,113.719,91.074"/>
	<path fill="#EFB780" d="M104.365,98.481c0,0-6.088,0.979-13.508-3.939c0.558-0.726,0.896-2.754,0.558-3.928
		c-0.166-0.943-0.22-0.144-0.431,0.437c-0.707,1.778-1.27,1.916-2.033,2.508c-2.199-2.244-2.516-2.26-5.327-3.899
		c-2.047-1.103-2.209-1.792-3.344-2.521c-1.956,0.915-5.074,2.703-6.604,1.65c-1.28-0.64,1.504-1.367,2.599-3.089
		c0.978-1.366,2.141-1.754,3.727-1.366c3.028,0.632,4.574,1.735,9.111,3.687c5.517,0.432,9.604,2.076,15.219,3.294
		c0.932,0.264,2.311,0.383,2.955,0.432C106.571,93.994,105.859,95.566,104.365,98.481"/>
	<path fill="#EFB780" d="M80.122,92.454c1.649,1.859,3.142,2.211,4.174,4.455c-0.33,0.649-0.997,0.828-1.701,0.421
		c-2.473-2.787-4.735-3.203-3.802-4.502c-0.529-0.072-0.933,0.646-0.835,1.073c0.414,1.934,2.687,2.747,3.317,4.465
		c-0.313,1.317-3.011,0.114-4.207-3.357l-0.068-0.162c-0.515,0.988-0.92,1.355,0.859,3.52c0.353,0.786,0.615,1.601-0.693,1.432
		c0.253,0.213-0.65-0.086-0.257,0h0.257c-0.056,0-0.147-0.086-0.264-0.147c0.631-3.432-2.539-2.741-2.438-2.741
		c0.484-1.161-1.336-2.477-3.096-1.681c0.26-0.915-1.635-2.362-4.249-1.327c-0.388-0.936-2.744-1.89-4.962,0.945
		c-3.996,0.321-10.5,3.835-14.466,2.063c-0.162,0.17-2.473-6.439-2.55-6.612c4.597-0.456,15.006-1.156,18.675-2.71
		c2.945-1.874,8.352-2.819,9.651-2.129c-0.126,0.992-2.45,2.878-1.27,3.855c2.075,1.934,5.327,1.065,7.559-0.273
		c2.286,2.382,5.983,2.705,7.417,5.807L86.75,95.9c-0.798,0.501-0.842,0.501-1.752-0.745c-2.197-2.943-4.27-2.288-4.633-4.306
		C79.563,91.125,80.122,91.979,80.122,92.454"/>
	<path fill="#EFB780" d="M69.466,98.477c-0.835,0.342,0.363-0.517,0.627-0.714l0.356-0.432c0.681-0.656,1.644-1.496,2.267-0.148
		c0.367,0.777-2.354,2.326-2.822,2.469c-0.44,0.145-0.515,0.145-0.847-0.265C68.804,98.99,69.021,98.606,69.466,98.477"/>
	<path fill="#EFB780" d="M67.072,98.184c-0.498,0.124-0.868,0.184-1.165-0.225c-0.197-0.484,0.641-1.429,0.975-1.799
		c0.302-0.325,0.578-0.389,0.637-0.412l0.515-0.465c1.013-0.129,0.905,0,1.104,0.465C69.363,96.2,67.519,98.147,67.072,98.184"/>
	<path fill="#EFB780" d="M73.675,98.646c0,0,1.116-1.17,1.586,0.436c0.178,0.652-1.027,1.406-2.131,1.708
		C72.54,100.488,71.26,100.534,73.675,98.646"/>
	<path fill="#EFB780" d="M64.306,96.333c-0.44,0.197-1.118-0.585-0.746-0.768l0.444-0.854c0.744-0.279,1.224-0.632,1.455-0.279
		C65.7,94.89,64.68,96.201,64.306,96.333"/>
	<path fill="#168FBA" d="M76.447,29.16c-18.187,0-32.987,19.244-33.677,43.38h67.324C109.4,48.403,94.629,29.16,76.447,29.16"/>
	<path fill="#231F20" d="M78.329,82.41l0.037-19.102c0,0,6.545,0.129,7.983-0.124c0,0,2.377-0.905,2.766-3.011
		c0.248-1.404-0.868-5.681-1.041-6.462c0,0-1.165-0.871-1.289-1.816c0,0-0.63-7.204-2.133-9.303
		c-1.447-2.063-3.643-4.473-8.501-4.382c-4.892,0.061-7.211,3.272-7.553,5.461c-0.458,2.824,2.661,2.78,2.661,2.78
		s-1.327,1.141-1.793,1.722c-0.444,0.631-1.68,1.82-2.957,4.267c-1.313,2.474-2.143,6.329-1.659,7.67
		c0.562,1.291,2.845,2.883,5.482,3.198c2.62,0.265,4.356-0.154,4.356-0.154v19.04L78.329,82.41z"/>
	<path fill="#D93E26" d="M71.257,56.207c-1.928,0.044-2.719,1.068-4.42,1.142c0,0,0.391-3.587,3.889-7.787
		c1.413-1.593,4.81-3.443,6.521-4.249l-0.08-0.388c-1.53,0.222-5.557,0.99-6.68-0.791c-0.203-1.801,2.228-3.783,5.562-3.998
		c2.087-0.092,3.6,0.648,5.159,1.572c1.843,1.28,2.688,3.356,2.962,5.433c-2.303,1.032-2.895,1.477-3.117,1.605
		c0.323,0.04,0.868,0.159,1.512,0.173c0.871,0.019,1.361-0.102,1.731-0.173v1.281c0.191,0.166,0.31,0.345,0.399,0.518
		c-3.998,1.75-6.066,2.56-6.345,2.335c0,0,0.786,0.173,1.673,0.225c1.352,0.044,3.324-0.562,4.77-0.997
		c-0.037,0.772,0,1.418,1.182,1.897l0.037,0.071l-0.049,0.037c-4.107,2.209-5.686,1.997-5.988,1.782L77,55.301
		c0.859,0.298,2.309,1.697,3.865,1.912c1.447,0.231,4.117-1.039,5.607-1.49L87,57.583c-2.477,0-5.145,3.572-8.9,2.262
		C76.201,58.423,73.887,56.207,71.257,56.207"/>
	<path fill="#D93E26" d="M74.688,61.281c-1.893-0.02-4.794,0-4.897-0.124c-0.903-0.197-3.341-1.521-2.992-1.896
		c0.135-0.063,0.896,0.112,3.088-0.838C72.353,57.415,74.53,60.632,74.688,61.281"/>
	<path fill="#D93E26" d="M87.341,59.372c-0.114,0.641-0.709,1.785-1.399,1.907c-0.515-0.05-2.889,0.056-4.25,0.056
		c1.004,0,1.533-0.32,2.181-0.613C87.793,58.771,87.341,59.372,87.341,59.372"/>
	<path fill="#FFFFFF" d="M74.404,129.907c0.233-0.641-0.096-1.481-0.096-1.481s-1.357,1.902-3.142,3.025
		c-1.624,0.955-4.406,1.582-4.876,1.683c0.342,0.397,0.751,0.768,1.17,1.083c0.491-0.073,2.574-0.265,4.632-1.573
		C73.428,131.849,74.404,129.907,74.404,129.907"/>
	<path fill="#168FBA" d="M78.652,129.907c-0.204-0.641,0.059-1.481,0.059-1.481s1.354,1.902,3.156,3.025
		c1.619,0.955,4.333,1.563,4.885,1.683c0.786-0.728,1.305-1.481,1.305-1.481s-2.512-0.329-4.938-1.063
		c-2.442-0.729-3.521-2.281-3.728-2.738c-0.203-0.474,0.207-1.523,0.584-1.862c0.346-0.328,4.416-0.611,4.271-4.044
		c-0.172-4.042-6.875-2.903-7.724-2.732c-0.831-0.171-7.572-1.308-7.698,2.732c-0.138,3.433,3.942,3.716,4.289,4.044
		c0.323,0.339,0.773,1.39,0.547,1.862c-0.224,0.457-1.263,2.009-3.694,2.738c-2.471,0.734-4.965,1.063-4.965,1.063
		s0.526,0.755,1.289,1.481c0.473-0.101,3.255-0.728,4.878-1.683c1.783-1.123,3.143-3.025,3.143-3.025s0.327,0.842,0.096,1.481
		c0,0-0.979,1.94-2.313,2.735c-2.059,1.31-4.141,1.5-4.633,1.573c0.634,0.456,1.343,0.816,1.991,0.781
		c4.247-0.157,5.859-4.871,5.859-4.871s0.522,0.388,1.205,0.461h0.005h0.035c0.69-0.073,1.177-0.461,1.177-0.461
		s1.658,4.714,5.891,4.871c0.653,0.035,1.315-0.325,1.948-0.781c-0.545-0.073-2.598-0.315-4.608-1.573
		C79.65,131.849,78.652,129.907,78.652,129.907"/>
	<path fill="#FFFFFF" d="M86.752,133.133c-0.553-0.119-3.268-0.728-4.886-1.682c-1.802-1.123-3.156-3.025-3.156-3.025
		s-0.262,0.843-0.06,1.481c0,0,1,1.94,2.313,2.736c2.012,1.256,4.064,1.5,4.609,1.571h0.022
		C86.013,133.9,86.436,133.531,86.752,133.133"/>
	<path fill="#FFFFFF" d="M73.376,120.493c0,0-1.093,0.858-1.207,1.797c-0.108,0.932,0.288,1.951,0.288,1.951
		s-2.223-0.731-2.144-2.204C70.449,119.908,73.376,120.493,73.376,120.493"/>
	<path fill="#FFFFFF" d="M79.725,120.493c0,0,1.038,0.858,1.142,1.797c0.145,0.932-0.228,1.951-0.228,1.951s2.221-0.731,2.108-2.204
		C82.596,119.908,79.725,120.493,79.725,120.493"/>
	<path fill="#FFFFFF" d="M76.695,121.266h-0.349c-3.73-0.02-1.6,3.438-1.6,3.438s0.643-0.476,1.565-0.476h0.419
		c0.941,0.013,1.596,0.476,1.596,0.476S80.459,121.246,76.695,121.266"/>
	<path fill="#FFFFFF" d="M76.729,125.881h-0.213h-0.03h-0.141c-1.034,0-0.954,0.512-0.954,0.997c0,0.498,0.245,2.563,1.055,2.563
		h0.04h0.107c0.843,0,1.041-2.063,1.041-2.563C77.634,126.393,77.733,125.881,76.729,125.881"/>
</g>
<g>
	<path fill="#178CCC" d="M26.369,154.33h-5.691v-2.922h14.561v2.922h-5.691v15.022h-3.179V154.33z"/>
	<path fill="#178CCC" d="M38.216,155.818h3.102v3.051c0.846-2.025,2.409-3.409,4.793-3.308v3.281h-0.179
		c-2.718,0-4.614,1.77-4.614,5.358v5.152h-3.102V155.818z"/>
	<path fill="#178CCC" d="M47.909,165.456v-0.052c0-2.922,2.282-4.357,5.589-4.357c1.512,0,2.589,0.23,3.64,0.564v-0.334
		c0-1.922-1.179-2.947-3.358-2.947c-1.512,0-2.64,0.333-3.871,0.846l-0.82-2.436c1.486-0.666,2.948-1.103,5.101-1.103
		c2.025,0,3.538,0.538,4.486,1.513c1,0.975,1.461,2.41,1.461,4.179v8.023h-3.025v-1.692c-0.923,1.103-2.333,1.975-4.409,1.975
		C50.165,169.635,47.909,168.174,47.909,165.456z M57.189,164.483v-0.924c-0.795-0.307-1.846-0.538-3.076-0.538
		c-2,0-3.179,0.847-3.179,2.256v0.052c0,1.307,1.153,2.051,2.64,2.051C55.625,167.379,57.189,166.199,57.189,164.483z
		 M55.831,149.896l2.82,1.257l-3.153,2.947h-2.333L55.831,149.896z"/>
	<path fill="#178CCC" d="M63.858,155.818h3.102v2.051c0.871-1.205,2.051-2.333,4.127-2.333c1.948,0,3.333,0.949,4.05,2.385
		c1.077-1.436,2.512-2.385,4.563-2.385c2.948,0,4.742,1.871,4.742,5.179v8.639h-3.102v-7.69c0-2.153-1-3.307-2.743-3.307
		c-1.691,0-2.896,1.179-2.896,3.357v7.64H72.6v-7.716c0-2.103-1.025-3.281-2.743-3.281s-2.896,1.281-2.896,3.357v7.64h-3.102
		V155.818z"/>
	<path fill="#178CCC" d="M88.269,150.793h3.333v2.948h-3.333V150.793z M88.397,155.818h3.102v13.535h-3.102V155.818z"/>
	<path fill="#178CCC" d="M96.192,165.61v-7.126h-1.718v-2.666h1.718v-3.717h3.102v3.717h3.64v2.666h-3.64v6.64
		c0,1.205,0.615,1.691,1.666,1.691c0.692,0,1.308-0.153,1.923-0.461v2.537c-0.77,0.437-1.615,0.692-2.794,0.692
		C97.807,169.583,96.192,168.584,96.192,165.61z"/>
	<path fill="#178CCC" d="M105.347,162.637v-0.052c0-3.871,2.743-7.05,6.613-7.05c4.307,0,6.485,3.384,6.485,7.28
		c0,0.282-0.025,0.564-0.051,0.872h-9.946c0.333,2.204,1.897,3.435,3.896,3.435c1.513,0,2.589-0.563,3.666-1.614l1.819,1.614
		c-1.281,1.538-3.05,2.538-5.537,2.538C108.371,169.66,105.347,166.815,105.347,162.637z M115.369,161.637
		c-0.205-2-1.384-3.563-3.435-3.563c-1.897,0-3.229,1.461-3.512,3.563H115.369z"/>
	<path fill="#178CCC" d="M120.475,167.584l1.385-2.103c1.486,1.103,3.051,1.667,4.435,1.667c1.333,0,2.103-0.564,2.103-1.462v-0.051
		c0-1.052-1.436-1.41-3.025-1.897c-2-0.563-4.229-1.384-4.229-3.973v-0.052c0-2.563,2.128-4.127,4.819-4.127
		c1.691,0,3.537,0.589,4.973,1.538l-1.23,2.204c-1.307-0.794-2.691-1.281-3.819-1.281c-1.205,0-1.897,0.563-1.897,1.333v0.051
		c0,1,1.462,1.41,3.051,1.923c1.975,0.615,4.204,1.513,4.204,3.948v0.051c0,2.846-2.204,4.256-5.024,4.256
		C124.295,169.61,122.167,168.917,120.475,167.584z"/>
	<path fill="#178CCC" d="M6.37,196.227v-0.051c0-2.923,2.281-4.358,5.588-4.358c1.513,0,2.589,0.23,3.641,0.563v-0.333
		c0-1.923-1.18-2.948-3.358-2.948c-1.513,0-2.641,0.334-3.871,0.847l-0.82-2.436c1.487-0.667,2.948-1.103,5.102-1.103
		c2.025,0,3.538,0.539,4.486,1.513c1,0.974,1.461,2.409,1.461,4.179v8.023h-3.025v-1.691c-0.923,1.102-2.333,1.974-4.409,1.974
		C8.626,200.406,6.37,198.944,6.37,196.227z M15.649,195.252v-0.922c-0.794-0.309-1.846-0.539-3.076-0.539
		c-1.999,0-3.179,0.846-3.179,2.256v0.052c0,1.308,1.154,2.051,2.641,2.051C14.086,198.15,15.649,196.97,15.649,195.252z"/>
	<path fill="#178CCC" d="M30.37,182.179h6.691c5.64,0,9.536,3.871,9.536,8.921v0.051c0,5.051-3.896,8.973-9.536,8.973H30.37V182.179
		z M33.522,185.05v12.202h3.538c3.768,0,6.229-2.538,6.229-6.05v-0.052c0-3.512-2.461-6.101-6.229-6.101H33.522z"/>
	<path fill="#178CCC" d="M50.114,181.564h3.333v2.948h-3.333V181.564z M50.242,186.588h3.102v13.535h-3.102V186.588z"/>
	<path fill="#178CCC" d="M56.294,198.355l1.385-2.103c1.486,1.103,3.05,1.666,4.435,1.666c1.333,0,2.102-0.563,2.102-1.461v-0.051
		c0-1.051-1.436-1.41-3.025-1.897c-2-0.563-4.229-1.384-4.229-3.974v-0.051c0-2.563,2.127-4.127,4.819-4.127
		c1.691,0,3.537,0.59,4.973,1.538l-1.23,2.204c-1.307-0.795-2.691-1.281-3.819-1.281c-1.205,0-1.897,0.563-1.897,1.333v0.051
		c0,1,1.461,1.41,3.05,1.923c1.974,0.615,4.204,1.513,4.204,3.947v0.052c0,2.846-2.204,4.255-5.024,4.255
		C60.114,200.379,57.986,199.688,56.294,198.355z"/>
	<path fill="#178CCC" d="M70.884,196.381v-7.127h-1.718v-2.666h1.718v-3.717h3.102v3.717h3.64v2.666h-3.64v6.64
		c0,1.204,0.615,1.691,1.666,1.691c0.692,0,1.308-0.153,1.923-0.461v2.538c-0.769,0.436-1.615,0.691-2.794,0.691
		C72.499,200.354,70.884,199.354,70.884,196.381z"/>
	<path fill="#178CCC" d="M79.885,196.227v-0.051c0-2.923,2.281-4.358,5.588-4.358c1.513,0,2.589,0.23,3.641,0.563v-0.333
		c0-1.923-1.18-2.948-3.358-2.948c-1.513,0-2.641,0.334-3.871,0.847l-0.82-2.436c1.487-0.667,2.948-1.103,5.102-1.103
		c2.025,0,3.537,0.539,4.486,1.513c0.999,0.974,1.461,2.409,1.461,4.179v8.023h-3.025v-1.691c-0.923,1.102-2.332,1.974-4.409,1.974
		C82.141,200.406,79.885,198.944,79.885,196.227z M89.164,195.252v-0.922c-0.795-0.309-1.846-0.539-3.076-0.539
		c-1.999,0-3.179,0.846-3.179,2.256v0.052c0,1.308,1.153,2.051,2.641,2.051C87.601,198.15,89.164,196.97,89.164,195.252z"/>
	<path fill="#178CCC" d="M95.833,186.588h3.102v2.076c0.872-1.256,2.128-2.358,4.229-2.358c3.051,0,4.82,2.051,4.82,5.179v8.639
		h-3.103v-7.69c0-2.103-1.051-3.307-2.896-3.307c-1.794,0-3.051,1.256-3.051,3.358v7.639h-3.102V186.588z"/>
	<path fill="#178CCC" d="M110.988,193.433v-0.052c0-3.845,2.974-7.075,7.049-7.075c2.538,0,4.128,0.948,5.409,2.333l-1.948,2.076
		c-0.948-1-1.948-1.691-3.486-1.691c-2.256,0-3.922,1.948-3.922,4.307v0.051c0,2.41,1.666,4.332,4.051,4.332
		c1.461,0,2.537-0.666,3.512-1.666l1.871,1.846c-1.333,1.487-2.896,2.538-5.537,2.538
		C113.962,200.431,110.988,197.278,110.988,193.433z"/>
	<path fill="#178CCC" d="M126.424,181.564h3.333v2.948h-3.333V181.564z M126.553,186.588h3.102v13.535h-3.102V186.588z"/>
	<path fill="#178CCC" d="M132.809,196.227v-0.051c0-2.923,2.281-4.358,5.589-4.358c1.513,0,2.589,0.23,3.64,0.563v-0.333
		c0-1.923-1.179-2.948-3.357-2.948c-1.513,0-2.641,0.334-3.871,0.847l-0.82-2.436c1.486-0.667,2.947-1.103,5.102-1.103
		c2.024,0,3.537,0.539,4.485,1.513c1,0.974,1.462,2.409,1.462,4.179v8.023h-3.025v-1.691c-0.923,1.102-2.333,1.974-4.409,1.974
		C135.064,200.406,132.809,198.944,132.809,196.227z M142.089,195.252v-0.922c-0.795-0.309-1.846-0.539-3.076-0.539
		c-2,0-3.179,0.846-3.179,2.256v0.052c0,1.308,1.153,2.051,2.641,2.051C140.525,198.15,142.089,196.97,142.089,195.252z"/>
</g>
</svg>
