<?xml version="1.0" encoding="utf-8"?>
<!-- Generator: Adobe Illustrator 16.0.0, SVG Export Plug-In . SVG Version: 6.00 Build 0)  -->
<!DOCTYPE svg PUBLIC "-//W3C//DTD SVG 1.1//EN" "http://www.w3.org/Graphics/SVG/1.1/DTD/svg11.dtd">
<svg version="1.1" id="Layer_1" xmlns="http://www.w3.org/2000/svg" xmlns:xlink="http://www.w3.org/1999/xlink" x="0px" y="0px"
	 width="790.3px" height="139.197px" viewBox="0 0 790.3 139.197" enable-background="new 0 0 790.3 139.197" xml:space="preserve">
<g>
	<path fill="#FFFFFF" d="M43.113,123.451c-19.786,0-35.119-21.64-35.119-47.164h70.229C78.223,101.89,62.973,123.451,43.113,123.451
		"/>
	<path fill="#231F20" d="M50.866,17.429l0.577,0.02c0,0-0.351-2.576-4.952-2.276h-1.086c-0.02,0.057-0.501,1.448-0.501,1.448
		l3.136-0.224C48.041,16.396,50.201,16.19,50.866,17.429"/>
	<path fill="#231F20" d="M45.807,19.154c0.016-0.114,0.719-0.771,0.719-0.771s0.106,0.024,0.146,0.024
		c-0.04,0.12-0.13,0.199-0.13,0.322c0,0.5,0.301,0.925,0.773,1.108c0.126,0.043,0.778,0,0.778,0c0.48-0.184,0.754-0.616,0.754-1.108
		c0-0.123-0.089-0.202-0.089-0.315c0.421,0.099,0.908,0.315,1.133,0.773l0.975,0.041c0,0-0.565-2.431-4.928-1.761
		c0,0-1.083,1.547-1.119,1.677C44.818,19.221,45.807,19.221,45.807,19.154"/>
	<path fill="#231F20" d="M35.832,19.154l1.007-0.114c0.217-0.474,0.699-0.658,1.106-0.736c-0.051,0.109-0.092,0.208-0.092,0.301
		c0,0.539,0.273,0.934,0.739,1.117c0,0,0.674,0.089,0.768,0c0.488-0.183,0.809-0.579,0.809-1.117c0-0.079-0.084-0.079-0.084-0.138
		c0.137-0.054,0.204-0.054,0.204-0.054s0.582,0.601,0.62,0.626c0,0.104,1.033,0.104,1-0.026c-0.008-0.105-1.074-1.625-1.074-1.625
		C36.43,16.605,35.832,19.154,35.832,19.154"/>
	<path fill="#231F20" d="M38.478,16.346l3.254,0.198c0,0-0.373-1.316-0.373-1.372h-0.848c-4.916-0.299-5.338,2.201-5.338,2.201
		l0.582-0.052C36.396,16.087,38.478,16.346,38.478,16.346"/>
	<path fill="#231F20" d="M47.862,50.26c-0.095-0.033-0.208-0.089-0.208-0.089C47.768,50.26,47.817,50.32,47.862,50.26"/>
	<path fill="#231F20" d="M47.065,129.718c3.368-0.396,13.487-4.703,16.863-7.591c3.849,0.321,5.348-2.653,8.126-4.108
		c-0.157-0.234-0.446-0.362-0.771-0.51c1.618-0.96,2.433-2.303,4.19-3.67c-0.281-0.268-0.786-0.406-1.365-0.417
		c2.6-0.905,0.82-1.952,3.334-3.796c-0.093-0.134-0.289-0.229-0.435-0.305c1.663-1.094,1.561-2.621,3.063-4.234
		c-0.326-0.26-0.863-0.39-1.502-0.39c2.861-0.913,2.599-2.888,4.396-4.751c-0.132,0-0.576-0.053-1.185-0.117
		c1.549-1.291,1.084-2.971,2.329-4.826c-0.435-0.251-1.025-0.339-1.72-0.216c2.544-1.132,2.198-3.476,3.596-5.753
		c-0.264-0.219-0.644-0.288-1.109-0.288c2.029-2.001-0.526-1.295,1.052-5.437c-0.45-0.254-1.055-0.137-1.637,0.121
		c2.079-1.705,1.662-3.791,2.82-6.365c-1.39-0.248-4.475,1.914-5.364,3.673V80.44c0.299-0.576,0.674-1.301,1.806-1.991
		c3.095-2.239,1.917-4.246,2.782-7.249c-1.491-0.107-4.184,2.296-4.792,4.096c-0.033-0.205-0.102-0.388-0.13-0.539
		c0.426-0.726,0.528-1.791,2.214-2.656c2.657-1.461,1.85-4.097,2.708-7.036c-0.408-0.077-0.967,0.085-1.51,0.367
		c0.586-1.868-0.62-3.213-0.401-5.492c-1.495,0-3.323,2.729-3.498,4.569c-0.092-0.262-0.241-0.509-0.47-0.729
		c0.229-0.72,0.353-1.561,1.621-2.487c2.596-3.034,0.404-4.753,0.724-7.744c-0.32,0-0.575,0.074-0.83,0.233
		c-0.131-1.503-1.213-2.464-1.377-4.386c-1.529,0.161-2.902,2.978-2.696,4.815c-0.171-0.287-0.437-0.518-0.695-0.74
		c0.173-0.692,0.301-1.652,1.366-2.586c1.432-2.941,0-4.382-0.207-7.293c-0.458,0.008-0.918,0.291-1.368,0.673
		c-0.031-1.907-1.085-2.812-1.69-4.957c-0.957,0.155-1.863,1.489-2.229,2.865c0-0.606,0.108-1.318,0.366-2.054
		c0.07-3.841-1.52-4.182-2.763-7.177c-0.508,0.315-0.889,1.246-1.176,2.217c-0.435-2.563-1.509-3.226-2.867-5.63
		c-0.891,0.78-1.311,3.27-0.988,5.034c-0.229-0.598-0.363-1.276-0.112-2.37c-0.332-3.072-1.855-4.019-3.312-5.86
		c0.711-0.066,1.456-0.271,2.371-0.916c0,0-1.318,0.109-2.033-0.247c-0.771-0.339-1.275-1.194-2.009-1.533
		c-0.852-0.402-1.604,0.112-2.979-0.777l7.548-1.575c-0.077-0.025-7.436-1.444-7.436-1.444s0.417-0.464,1.269-0.569
		c0.679,0.064,1.598-0.049,2.332-0.741c0.307-0.402,1.336-1.528,3.419-1.319c-1.731-1.019-2.582-0.667-4.114-0.134
		c-1.063,0.653-1.551,0.109-3.258,0.148c0,0,6.222-3.926,6.222-4.011l-7.457,1.565c1.18-1.829,2.331-0.961,3.038-3.19
		c0.203-0.496,1.064-1.462,2.364-2.057c-1.368-0.411-2.815,0.5-4.329,2.057c-0.55,0.23-1.829,0.781-2.549,0.923
		c-0.061-0.053,4.201-6.269,4.201-6.269s-4.333,3.046-6.33,4.209v-0.095c0.285-1.69,1.417-1.456,1.681-3.283
		c-0.117-0.567,0-2.164,1.359-3.508c-1.697,0.395-2.505,1.613-3.161,3.508c-0.324,0.713-1.328,1.025-2.072,1.917
		c-0.016,0.061,1.479-7.421,1.479-7.421l-4.252,6.271c0,0-0.338-0.262-0.24-0.928c0.568-1.301,0.574-1.903,0.483-2.537
		c-0.456-0.951-0.928-2.283,0-3.937c-2.409,1.449-1.279,3.458-1.947,4.954c-0.293,0.626-0.734,1.39-1.104,1.966L43.582,0
		l-1.489,7.359c-0.926-1.189-0.361-1.624-0.845-2.826c-0.691-1.384-1.887-1.122-1.93-4.176c-0.498,1.107-1.079,1.784,0.229,4.822
		c0.204,0.326-0.186,1.684-0.073,2.662L35.319,1.57l1.519,7.421C35.9,8.9,35.644,7.308,34.89,6.645
		c-1.042-0.806-2.563-0.574-3.343-3.079c-0.342,1.674,0.274,2.676,1.834,4.091c0.6,0.739,0.923,2.023,1.135,2.794l-6.314-4.209
		l4.295,6.269c-1.448,0.19-1.499-1.716-4.24-1.614c-1.809,0-2.794-1.609-2.675-1.325c0.866,3.235,3.17,2.272,4.011,3.597
		c0.246,0.259,1.19,1.25,1.374,1.555l-7.35-1.555l6.332,4.04c-1.116,0.606-2.487-0.864-3.812-0.134
		c-2.419,1.212-3.591,0.063-3.79,0.063c1.464,1.877,2.437,1.425,3.912,1.547c1.083-0.049,1.87,0.535,3.184,1.128l-7.486,1.485
		l7.399,1.381c-0.89,0.842-2.329,0.226-3.339,1.124c-2.206,2.526-4.444,1.157-3.67,1.576c1.928,1.318,2.938,0.951,4.068,0.555
		c-0.729,0.598-1.371,1.107-1.909,1.821c-0.12-0.575-0.305-1.058-0.62-1.312c-1.367,2.076-3.188,2.279-3.76,4.932
		c-0.136-0.708-0.397-1.309-0.742-1.639c-1.271,2.272-2.659,2.634-3.176,5.108c-0.176-0.66-0.457-1.169-0.811-1.385
		c-1.21,2.891-3.245,3.503-2.646,7.335c0.334,0.953,0.334,1.617,0.24,2.159c-0.181-1.503-0.908-3.015-1.947-3.213
		c-0.932,1.607-1.88,2.953-2.056,4.681c-0.382-0.291-0.72-0.482-1.086-0.503c-0.222,2.871-2.509,3.854-0.362,7.251
		c1.159,1.088,0.994,1.942,1.124,2.719c-0.142,0.09-0.297,0.287-0.369,0.434c0.152-1.763-1.423-4.512-2.902-4.651
		c-0.187,2.12-1.218,3.104-1.062,4.854c-0.394-0.204-0.689-0.317-1.02-0.317c0.317,2.932-1.846,4.133,0.864,7.082
		c1.309,0.908,1.367,1.738,1.612,2.407c-0.245,0.276-0.367,0.438-0.465,0.731c-0.18-1.819-2.011-4.35-3.463-4.35
		c0.297,3.231-1.318,3.104-0.338,5.322C0.967,65.081,0.439,64.953,0,64.957c0.812,2.908-0.114,5.274,2.695,6.931
		c1.637,0.825,1.737,1.897,2.192,2.559c-0.111,0.19-0.145,0.348-0.16,0.565C4.136,73.208,1.46,70.87,0,70.968
		c0.794,2.527,0.294,4.887,1.788,6.393c-0.834-0.508-1.751-0.771-2.539-0.616c1.355,2.89,0.604,4.438,3.258,6.87
		c-0.843-0.441-1.695-0.559-2.271-0.305c0.73,1.975,0.501,3.473,1.223,4.877c-0.429,0-0.816,0.114-1.122,0.237
		c1.462,2.365,0.977,4.208,3.291,5.659c-0.571-0.033-1.075,0-1.376,0.234c1.059,1.694,1.122,3.162,1.945,4.496
		c-0.323,0.066-0.628,0.129-0.886,0.379c1.798,1.72,1.831,3.578,3.86,4.646c-0.553,0-1.023,0.128-1.316,0.361
		c1.411,1.452,1.93,2.837,3.244,3.911c-0.603,0.037-1.105,0.235-1.394,0.553c2.089,1.486,2.24,3.137,4.49,3.943
		c-0.611,0-1.091,0.166-1.413,0.396c2.617,2.099,0.907,2.843,3.354,3.793c-0.214,0.132-0.37,0.208-0.444,0.367
		c2.78,1.507,3.067,4.905,9.136,4.866h0.005c2.894,3.146,10.728,6.861,16.51,7.595L47.065,129.718z M84.29,84.878
		c-0.696,1.903,0.059,3.07-1.655,4.452c-1.165,0.228-1.068,0.571-1.418,0.938c0.212-0.711,0.454-1.396,0.866-1.854
		c-0.489,0.297-0.916,0.663-1.184,1.175c-0.272-0.26-0.743-0.197-1.361-1.404c-0.841-1.617-0.264-2.238-0.474-3.864
		c0.823,1.38,2.104,2.743,2.276,3.698C81.747,86.616,83.594,84.707,84.29,84.878 M81.167,85.872
		c0.303-0.495,0.773-0.994,1.661-1.518c-0.724,0.619-1.318,1.347-1.611,2.121C81.217,86.253,81.195,86.056,81.167,85.872
		 M85.112,78.412c-0.907,2.026-0.24,2.972-2.148,4.684c-1.229,0.519-1.185,0.82-1.535,1.226c0.26-0.708,0.573-1.409,1.051-1.969
		c-0.54,0.405-1.039,0.865-1.379,1.418c-0.26-0.166-0.767-0.022-1.293-1.027c-0.744-1.359-0.083-2.131-0.189-3.604
		c0.736,1.133,1.976,2.122,2.07,3.037C82.226,80.735,84.419,78.416,85.112,78.412 M81.747,76.726
		c0.299-1.492,2.077-4.013,2.799-4.107c-0.56,2.105,0.298,2.936-1.373,4.812c-1.17,0.659-1.068,0.983-1.333,1.427
		c0.102-0.768,0.327-1.461,0.704-2.111c-0.46,0.498-0.872,0.99-1.114,1.563c-0.299-0.125-0.802,0.109-1.539-0.828
		c-0.938-1.205-0.435-2.035-0.785-3.412C80.047,75.026,81.51,75.854,81.747,76.726 M79.538,72.312
		c0.754,0.868,1.219,1.112,1.5,1.885c-0.411-0.43-0.931-0.858-1.473-1.23C79.565,72.783,79.538,72.546,79.538,72.312 M84.545,66.421
		c-0.507,2.046,0.327,2.898-1.351,4.671c-1.173,0.573-1.029,0.917-1.355,1.3c0.131-0.727,0.348-1.424,0.704-1.947
		c-0.439,0.393-0.854,0.861-1.114,1.453c-0.299-0.176-0.802,0.01-1.542-0.93c-1.01-1.25-0.457-1.965-0.85-3.406
		c0.992,1.029,2.473,1.87,2.709,2.724C82.045,68.856,83.824,66.468,84.545,66.421 M81.441,65.912
		c0.029-1.404,1.387-4.005,2.102-4.155c-0.167,2.021,0.876,2.751-0.46,4.711c-1.081,0.763-0.868,1.027-1.142,1.46
		c0-0.697,0.104-1.418,0.381-2.017c-0.448,0.509-0.729,0.959-0.881,1.583c-0.34-0.14-0.782,0.171-1.697-0.72
		c-1.261-1.022-0.868-1.823-1.522-3.163C79.43,64.508,81.038,65.097,81.441,65.912 M77.154,93.283
		c0.089-0.315,0.222-0.707,0.289-1.093c0,0.119,0.017,0.166,0.061,0.223c0.773,2.458,1.422,2.59,1.193,4.271
		c-0.026,0.09-0.128,0.138-0.128,0.227C78.742,95.751,77.863,94.423,77.154,93.283 M74.174,105.582
		c-0.065-0.812-0.479-1.66-0.893-2.462c0.122-0.221,0.242-0.518,0.415-0.762C73.966,104.067,74.347,104.534,74.174,105.582
		 M76.649,105.021c-1.028,0.285-1.973,0.791-2.578,1.385c0.06-0.105,0.06-0.18,0.103-0.264
		C74.83,105.909,75.304,105.114,76.649,105.021 M71.898,101.539c0,0-6.252,1.012-13.926-4.073c0.604-0.747,0.923-2.826,0.604-4.035
		c-0.202-0.986-0.202-0.147-0.474,0.45c-0.728,1.776-1.276,1.974-2.064,2.587c-2.3-2.313-2.584-2.333-5.525-4.023
		c-2.1-1.133-2.255-1.885-3.448-2.621c-2.011,0.966-5.209,2.809-6.785,1.697c-1.344-0.664,1.526-1.428,2.682-3.22
		c0.982-1.347,2.181-1.747,3.839-1.379c3.12,0.683,4.71,1.823,9.374,3.836c5.688,0.414,9.914,2.14,15.698,3.377
		c0.958,0.289,2.396,0.411,3.056,0.462C74.174,96.917,73.446,98.538,71.898,101.539 M46.901,95.329
		c1.72,1.918,3.255,2.279,4.305,4.593c-0.34,0.668-1.005,0.825-1.698,0.435c-2.561-2.891-4.938-3.306-3.978-4.642
		c-0.482-0.075-0.96,0.608-0.827,1.079c0.439,2.021,2.755,2.823,3.386,4.572c-0.295,1.414-3.042,0.173-4.334-3.405l-0.073-0.163
		c-0.499,1.018-0.949,1.395,0.887,3.568c0.417,0.795,0.682,1.709-0.714,1.533c0.262,0.221-0.667-0.088-0.244,0h0.244
		c-0.022-0.065-0.1-0.088-0.273-0.149c0.651-3.558-2.617-2.828-2.489-2.828c0.474-1.276-1.348-2.556-3.196-1.733
		c0.264-0.941-1.698-2.437-4.402-1.396c-0.397-0.938-2.798-1.922-5.116,0.957c-4.104,0.377-10.825,4-14.887,2.172
		c-0.155,0.155-2.555-6.639-2.652-6.817c4.758-0.473,15.479-1.191,19.302-2.793c2.984-1.945,8.589-2.91,9.899-2.198
		c-0.096,1.022-2.504,2.97-1.252,3.979c2.081,1.991,5.444,1.05,7.738-0.282c2.354,2.397,6.187,2.736,7.665,5.987l-0.454,1.031
		c-0.799,0.569-0.858,0.569-1.779-0.74c-2.283-3.011-4.431-2.349-4.803-4.416C46.362,93.933,46.901,94.836,46.901,95.329
		 M35.915,101.483c-0.841,0.375,0.373-0.479,0.658-0.682l0.355-0.445c0.728-0.676,1.696-1.543,2.36-0.202
		c0.386,0.85-2.45,2.448-2.893,2.595c-0.495,0.148-0.564,0.148-0.881-0.273C35.233,102.033,35.457,101.623,35.915,101.483
		 M33.449,101.237c-0.514,0.128-0.887,0.188-1.163-0.234c-0.215-0.544,0.649-1.472,0.987-1.863c0.291-0.326,0.59-0.39,0.66-0.416
		l0.503-0.479c1.078-0.157,0.944,0,1.159,0.479C35.827,99.19,33.933,101.198,33.449,101.237 M40.28,101.683
		c0,0,1.124-1.224,1.625,0.479c0.187,0.673-1.053,1.449-2.161,1.761C39.086,103.61,37.767,103.658,40.28,101.683 M30.597,99.327
		c-0.431,0.179-1.153-0.604-0.757-0.79l0.46-0.883c0.75-0.289,1.247-0.649,1.521-0.289C32.045,97.841,30.999,99.19,30.597,99.327
		 M12.547,102.253c-0.144,0.264-0.275,0.526-0.403,0.778c0.086-0.251,0.198-0.658,0.26-1.078
		C12.468,102.104,12.531,102.104,12.547,102.253 M11.744,105.478c-0.379-0.391-0.93-0.74-1.586-1.017
		c0.594,0.169,1.086,0.425,1.479,0.626C11.666,105.176,11.69,105.345,11.744,105.478 M7.681,96.19
		c-0.045-0.104-0.059-0.104-0.096-0.154C7.36,94.317,7.937,94.207,8.7,91.854c0.096,0.325,0.167,0.604,0.254,0.934
		C8.296,93.837,7.5,95.126,7.681,96.19 M8.049,62.342c-0.368,0.173-0.782,0.362-1.175,0.569c0.299-0.3,0.711-0.515,1.282-0.982
		C8.133,62.111,8.092,62.218,8.049,62.342 M8.368,76.726H41.3v9.688c-1.429-0.307-4.042-0.324-6.279,0
		c-6.05,1.107-4.038,4.077-24.923,4.377C8.214,84.515,8.368,76.726,8.368,76.726 M28.782,28.807
		c0.287-0.361,0.662-0.361,0.896-1.652c0.828-2.625,2.263-2.289,4.067-3.521c0.61,0.8-1.576,3.708-2.961,4.599
		c0.85-0.138,2.082,0.938,3.304,1.384c-1.448,0.233-2.043,0.981-3.491,0.536c-1.093-0.385-1.003-0.903-1.239-1.138
		c0.482-0.397,0.809-0.955,1.163-1.544C30.034,28.034,29.444,28.459,28.782,28.807 M53.975,27.969c-0.563,0-1.12-0.175-1.67-0.41
		c0.792-0.207,1.594-0.559,2.254-0.946c1.408,0.256,2.61,0.946,2.718,2.183c-1.194-0.35-1.442,0.425-3.221,0.73
		c-1.627,0.328-2.481-0.575-3.958-0.908c-0.435-0.309-0.59-0.649-0.59-0.884c0.722,0.142,1.468,0.142,2.211,0.014l-0.044,0.214
		C52.429,28.243,53.22,28.172,53.975,27.969 M48.69,25.85c0.761,0.085,1.487-0.138,2.176-0.47c-0.496,0.093-1.065,0.093-1.588,0.035
		c1.005-0.631,1.698-1.441,3.05-1.402c1.845,0,1.845,1.086,2.952,0.519C55.404,25.524,50.049,27.922,48.69,25.85 M46.089,25.524
		c0.812,0.258,1.706,1.755,2.749,2.786c-1.398-0.433-2.134,0.075-3.393-1.031c-0.875-0.746-0.742-1.22-0.875-1.567
		c0.573-0.188,0.96-0.544,1.417-1.023c-0.582,0.354-1.268,0.525-1.928,0.604c0.379-0.25,0.662-0.125,1.246-1.258
		c1.685-1.596,2.552-0.714,4.542-1.141C49.759,23.635,47.496,25.281,46.089,25.524 M41.779,25.897
		c0.866,0.056,1.903,1.382,3.075,2.164c-1.421-0.097-2.058,0.464-3.403-0.305c-1.061-0.575-0.939-1.058-1.163-1.355
		c0.545-0.342,0.917-0.767,1.279-1.302c-0.513,0.47-1.138,0.751-1.813,0.96c0.347-0.347,0.675-0.277,1.079-1.49
		c1.458-1.889,2.129-1.138,4.021-2.013C44.933,23.282,43.112,25.379,41.779,25.897 M38.82,28.52c-1.431,0-2.072,0.701-3.447,0
		c-1.068-0.459-0.957-0.96-1.19-1.177c0.51-0.342,0.928-0.899,1.198-1.446c-0.482,0.503-1.076,0.89-1.761,1.163
		c0.339-0.362,0.685-0.319,1.035-1.587c1.411-2.042,2.403-1.438,4.236-2.446c0.045,0.675-1.899,2.978-3.247,3.609
		C36.523,26.698,37.655,27.794,38.82,28.52 M62.635,35.405c0.2,0.025,0.381,0,0.554,0c-0.173,0.025-0.294,0.118-0.427,0.118
		C62.722,35.523,62.659,35.431,62.635,35.405 M74.795,52.165c0.349,0.258,0.619,0.395,0.892,0.559
		c-0.273-0.094-0.53-0.208-0.775-0.268C74.851,52.372,74.851,52.277,74.795,52.165 M57.415,89.002
		c-3.242-0.624-7.525-4.295-12.361-4.03v-8.246h32.811c0.034,1.088-0.558,9.879-2.313,15.824
		C68.94,92.458,62.762,88.813,57.415,89.002 M78.033,61.977c0.535,0.435,1.004,0.727,1.354,1.045
		c-0.394-0.251-0.847-0.46-1.229-0.627C78.086,62.218,78.086,62.111,78.033,61.977 M81.874,55.714
		c-0.127,2.013,0.926,2.772-0.433,4.681c-1.045,0.659-0.849,0.998-1.107,1.361c0-0.702,0.062-1.361,0.325-1.993
		c-0.367,0.477-0.681,0.959-0.852,1.526c-0.308-0.072-0.744,0.173-1.722-0.693c-1.283-1.128-0.843-1.885-1.478-3.268
		c1.167,0.927,2.787,1.637,3.2,2.433C79.866,58.342,81.167,55.848,81.874,55.714 M78.67,55.529
		c-0.262-1.409,0.557-4.021,1.253-4.288c0.28,2.011,1.448,2.646,0.48,4.669c-0.904,0.821-0.679,1.083-0.821,1.517
		c-0.128-0.696-0.196-1.387-0.045-2.045c-0.311,0.528-0.53,1.068-0.544,1.66c-0.425-0.049-0.771,0.268-1.872-0.49
		c-1.501-0.917-1.236-1.777-2.145-3.042C76.358,54.323,78.086,54.756,78.67,55.529 M77.09,45.437
		c0.215,2.059,1.417,2.664,0.413,4.691c-0.941,0.754-0.7,1.033-0.822,1.472c-0.144-0.688-0.195-1.374-0.069-2.029
		c-0.283,0.501-0.524,1.011-0.539,1.598c-0.351-0.064-0.771,0.204-1.854-0.587c-1.456-0.939-1.214-1.755-2.097-3.03
		c1.324,0.771,3.089,1.314,3.661,2.091C75.552,48.21,76.394,45.624,77.09,45.437 M74.347,41.165
		c0.629,1.991,1.875,2.485,1.333,4.601c-0.768,0.891-0.5,1.139-0.567,1.576c-0.262-0.679-0.455-1.344-0.425-2
		c-0.22,0.542-0.34,1.107-0.22,1.658c-0.396-0.024-0.729,0.342-1.926-0.305c-1.657-0.811-1.598-1.664-2.718-2.814
		c1.486,0.647,3.328,0.938,4.028,1.626C73.348,44.131,73.716,41.45,74.347,41.165 M72.902,44.323
		c-0.266-0.334-0.583-0.551-1.028-0.761c0.278,0.074,0.591,0.276,0.986,0.569C72.874,44.187,72.874,44.262,72.902,44.323
		 M70.532,35.523c0.881,1.988,1.59,1.775,1.521,4.316c-0.452,1.326-0.181,1.45-0.116,1.988c-0.372-0.663-0.655-1.363-0.746-2.087
		c-0.064,0.627-0.064,1.326,0.117,1.967c-0.311,0.081-0.524,0.534-1.647,0.233c-1.52-0.374-1.622-1.344-2.774-2.253
		c1.409,0.252,2.997-0.051,3.698,0.553C69.936,38.92,70.042,36.068,70.532,35.523 M67.167,36.553
		c-0.705-1.187-0.919-3.959-0.492-4.521c1.103,1.823,1.795,1.443,1.99,3.904c-0.34,1.325-0.047,1.482,0.063,1.982
		c-0.431-0.617-0.809-1.244-0.951-1.982c0,0.701,0.072,1.325,0.322,1.93c-0.322,0.107-0.5,0.583-1.637,0.472
		c-1.586-0.113-1.799-1.077-3.038-1.783C64.837,36.553,66.462,36.068,67.167,36.553 M61.862,27.755
		c1.169,1.771,2.414,1.65,2.618,4.098c-0.305,1.268,0,1.379,0.113,1.855c-0.46-0.588-0.824-1.149-1.025-1.855
		c0.025,0.657,0.11,1.268,0.374,1.855c-0.336,0.099-0.474,0.612-1.706,0.54c-1.594,0-1.803-0.929-3.147-1.591
		c1.501-0.033,3.105-0.569,3.885-0.164C62.061,31.323,61.439,28.384,61.862,27.755 M61.01,26.33
		c-0.043,0.203-0.122,0.484-0.163,0.768c-0.221-0.357-0.492-0.654-0.755-0.862C60.434,26.264,60.744,26.33,61.01,26.33
		 M60.538,28.096c-0.208,1.431,0.251,1.381,0.429,1.971c-0.177-0.053-0.283-0.101-0.375-0.101c-0.5-0.537-0.974-1.159-1.165-1.521
		c0.226,1.081,0.226,1.472,0.665,1.999c-0.163,0.223-0.439,0.412-1.125,0.451c-1.945,0.157-2.289-0.297-3.052-0.722
		c1.299-0.556,1.895-1.229,3.176-0.833c0-0.091-0.049-0.17-0.124-0.39c0,0,0.045,0.039,0.074,0.039l-0.074-0.039
		c-0.173-0.427-0.538-0.917-1.104-1.411c-0.585-1.008-0.979-2.161-0.817-2.534C58.539,26.444,59.928,25.85,60.538,28.096
		 M59.294,24.689h-1.609c-0.201-0.159-0.376-0.361-0.549-0.539C57.99,24.328,58.966,24.569,59.294,24.689 M30.982,23.359
		c1.422-0.644,1.777-1.1,1.777-1.1l-4.558-1.166l4.685-0.971c0,0-0.127-0.243-2.861-1.106c-0.523-0.171-0.077-0.71-2.356-1.174
		c0.825-0.163,0.573,0.223,2.126,0.464c1.062,0.019,1.895,0.206,3.408-0.132c0,0-2.781-2.143-4.609-3.109c0,0,3.038,0.8,5.442,1.371
		c0-0.246-1.92-1.711-3.18-3.246c-0.291-0.369-0.38-0.59-0.692-0.895c1.324,0.513,1.324,0.895,2.01,1.32
		c0.819,0.301,2.372,1.182,2.934,1.11c-1.375-1.917-3.272-4.694-3.272-4.694l4.771,3.251c-0.179-1.234-1.08-2.19-1.153-2.664
		c-0.6-2.027-0.404-1.854-0.852-2.623C35.9,9.947,36.396,11,38.348,12.169l-0.831-5.927l2.867,5.222
		c0.173-0.726-0.052-2.176-0.104-2.7c0.277-2.693,0.299-1.107-0.041-3.109c0.318,1.128,0.318,0.927,0.489,2.313
		c0.52,1.145,0.902,2.012,1.549,3.07l1.187-5.535c0,0,0.912,5.535,0.77,5.588c0.621-1.15,0.531-1.804,1.128-2.696
		c0.881-1.483,1.166-2.719,1.166-2.719c-0.438,2.292-0.377,1.526-0.59,2.719c0.049,1.2-0.051,2.833,0.305,3.045l3.422-4.934
		l-1.358,5.788c0.384-0.134,1.792-1.917,3.054-2.866c0.359-0.378,1.011-1.331,1.011-1.331c-0.753,1.022-1.011,1.681-1.432,2.477
		c-0.563,1.392-0.427,0.924-1.05,2.854l4.882-3.36l-3.328,4.803c0,0,0.274,0.123,2.454-1.098c1.32-0.32,2.37-0.871,3.058-1.331
		c-1.616,1.438-2.336,1.331-4.435,4.1l5.498-1.13c0,0-4.553,2.735-4.799,2.893c0.246,0.301,2.185-0.26,3.605,0
		c1.241,0.075,1.241,0.102,2.469-0.132c-1.432,0.511-1.835,0.233-3.416,0.842c-0.66,0.373-2.043,0.911-2.214,1.227l5.534,1.015
		c0,0-5.46,1.253-6.375,1.6c-0.331,0-0.64-0.033-0.984-0.033c-0.264,0-0.478,0.033-0.708,0.07c0.23-0.384,0.315-0.791,0.276-1.207
		c-1.85,0.469-3.588-0.055-5.044,0.312c0.165-0.429,0.165-0.835,0.056-1.059c-2.3,1.031-4.215,0.536-6.086,2.053
		c0.049-0.447-0.051-0.994-0.29-1.517c-1.961,1.08-3.691,0.396-5.082,1.631c0.061-0.427,0.061-0.757-0.069-1.004
		c-2.083,0.791-3.708,1.072-5.24,2.585c-0.362-0.064-0.817-0.12-1.254-0.159c-0.017-0.095-0.098-0.145-0.139-0.216
		c-0.074,0.073-0.138,0.122-0.2,0.212c-0.287-0.035-0.596,0-0.974,0.043C29.052,23.973,30.143,23.829,30.982,23.359 M24.456,29.918
		c0.614-2.183,1.804-1.911,3.215-3.305c0.359,0.628-0.726,3.273-1.761,4.184c0.838-0.198,2.348,0.567,3.812,0.872
		c-1.385,0.379-1.724,1.169-3.357,0.956c-1.193-0.131-1.294-0.654-1.604-0.789c0.368-0.513,0.525-1.058,0.618-1.662
		c-0.25,0.604-0.771,1.08-1.285,1.524C24.276,31.267,24.607,31.253,24.456,29.918 M27.433,30.215
		c-0.09,0.039-0.128,0.039-0.171,0.091c0.006-0.052,0.006-0.052,0.043-0.091H27.433z M20.982,32.806
		c0.248-2.404,1.394-2.258,2.592-4.01c0.4,0.609-0.223,3.5-1.114,4.628c0.791-0.413,2.371,0.134,3.799,0.226
		c-1.276,0.598-1.499,1.506-3.079,1.542c-1.194,0.1-1.34-0.439-1.655-0.543c0.26-0.541,0.321-1.176,0.378-1.811
		c-0.214,0.672-0.587,1.276-0.992,1.811C20.982,34.185,21.316,34.054,20.982,32.806 M20.024,34.777
		c-0.069,0.346-0.19,0.653-0.275,0.901c-0.045,0.078-0.073,0.078-0.073,0.078C19.817,35.523,19.918,35.124,20.024,34.777
		 M16.978,36.068c0.239-2.487,0.905-2.26,1.996-4.038c0.44,0.563,0.253,3.4-0.482,4.604c0.735-0.486,2.258,0,3.679-0.047
		c-1.224,0.75-1.421,1.69-2.944,1.789c-1.198,0.108-1.344-0.353-1.653-0.406c0.225-0.633,0.309-1.237,0.309-1.903
		c-0.14,0.704-0.484,1.305-0.928,1.903C17.049,37.447,17.326,37.338,16.978,36.068 M15.282,35.852
		c0.446,0.538,0.508,3.454-0.138,4.764c0.668-0.547,2.254-0.334,3.623-0.547c-1.136,0.905-1.278,1.872-2.718,2.204
		c-1.09,0.285-1.32-0.159-1.631-0.218c0.163-0.624,0.22-1.26,0.14-1.925c-0.105,0.665-0.394,1.434-0.744,2.048
		c0.049-0.529,0.324-0.663-0.12-1.896C13.66,37.745,14.377,37.864,15.282,35.852 M12.887,44.447
		c0.277-0.186,0.484-0.359,0.704-0.458c-0.294,0.142-0.54,0.374-0.732,0.594C12.859,44.583,12.88,44.504,12.887,44.447
		 M11.392,41.566c0.662,0.261,1.012,2.938,0.48,4.26c0.66-0.674,2.427-1.009,3.941-1.639c-1.114,1.14-1.025,1.978-2.619,2.753
		c-1.248,0.612-1.556,0.28-1.889,0.323c0.06-0.546-0.061-1.099-0.246-1.64c0.045,0.616-0.165,1.316-0.447,1.947
		c-0.015-0.424,0.268-0.63-0.517-1.525C9.511,43.989,10.813,43.467,11.392,41.566 M8.296,50.321
		c-0.992-1.998,0.179-2.617,0.404-4.604c0.649,0.203,1.536,2.719,1.281,4.092c0.563-0.706,2.291-1.285,3.593-2.106
		c-0.865,1.277-0.609,2.106-2.072,3.101c-1.068,0.742-1.456,0.437-1.812,0.569c-0.019-0.569-0.232-1.113-0.525-1.578
		c0.152,0.629,0.08,1.31-0.06,1.959C8.989,51.316,9.235,51.081,8.296,50.321 M11.305,52.155c-0.061,0.192-0.115,0.33-0.2,0.503
		c-0.561,0.169-1.124,0.4-1.629,0.667C9.946,52.889,10.445,52.693,11.305,52.155 M6.267,51.413c0.703,0.188,1.496,2.796,1.274,4.201
		c0.551-0.727,2.257-1.211,3.585-1.937c-0.869,1.21-0.628,2.037-2.102,2.955c-1.087,0.698-1.44,0.39-1.805,0.509
		c-0.031-0.588-0.25-1.161-0.501-1.655c0.155,0.638,0.037,1.28-0.099,1.97c-0.098-0.413,0.099-0.69-0.788-1.494
		C4.867,53.979,6.052,53.404,6.267,51.413 M4.776,60.396c-1.28-1.867-0.275-2.625-0.418-4.599c0.753,0.114,1.994,2.6,2.064,3.967
		c0.367-0.773,1.997-1.507,3.15-2.419c-0.618,1.39-0.242,2.141-1.503,3.252c-0.896,0.849-1.35,0.621-1.694,0.693
		c-0.107-0.567-0.443-1.044-0.831-1.526c0.288,0.631,0.335,1.275,0.335,1.993C5.664,61.291,5.856,61.039,4.776,60.396 M2.724,61.717
		c0.759,0.16,2.052,2.712,2.052,4.074c0.449-0.803,2.013-1.361,3.161-2.271c-0.604,1.353-0.231,2.12-1.46,3.173
		c-0.885,0.802-1.334,0.539-1.701,0.624c-0.11-0.541-0.444-1.05-0.838-1.531c0.26,0.636,0.378,1.309,0.378,1.996
		c-0.21-0.425-0.024-0.688-1.112-1.419C1.899,64.438,2.911,63.697,2.724,61.717 M4.823,71.647c-0.224-0.556-0.647-1.01-1.114-1.475
		c0.396,0.583,0.606,1.301,0.722,1.969C4.109,71.769,4.198,71.474,3.1,70.87c-1.64-1.77-0.976-2.194-1.495-4.207
		c0.72,0.03,2.572,2.179,2.945,3.471c0.193-0.815,1.624-1.667,2.623-2.733c-0.379,1.441,0.188,2.12-0.821,3.355
		C5.642,71.698,5.143,71.501,4.823,71.647 M6.718,72.009v0.704c-0.545,0.367-1.126,0.772-1.493,1.22
		C5.51,73.181,5.961,72.928,6.718,72.009 M1.604,72.713c0.694,0.134,2.594,2.313,2.945,3.683c0.193-0.843,1.624-1.602,2.563-2.629
		c-0.323,1.379,0.193,2.176-0.761,3.37c-0.709,0.902-1.208,0.66-1.484,0.833c-0.25-0.574-0.668-1.074-1.11-1.508
		c0.353,0.584,0.575,1.273,0.716,1.992c-0.297-0.416-0.181-0.719-1.33-1.389C1.507,75.295,2.157,74.793,1.604,72.713 M4.549,80.048
		v0.225c-0.373-0.664-1.013-1.512-1.825-2.186C3.875,78.749,4.259,79.41,4.549,80.048 M1.356,78.601
		c0.685,0.039,2.723,1.84,3.243,3.159c0.067-0.889,1.28-1.862,2.021-2.999c-0.07,1.495,0.569,2.244-0.198,3.533
		c-0.49,1.014-1,0.802-1.248,1.014c-0.351-0.551-0.827-0.994-1.328-1.408c0.47,0.565,0.798,1.271,1.021,1.955
		c-0.326-0.357-0.268-0.683-1.491-1.2C0.495,80.114,3.537,83.497,1.356,78.601 M5.11,85.519c-0.031,0.133-0.031,0.285-0.064,0.474
		c-0.319-0.767-1.108-1.507-1.875-2.063C4.023,84.42,4.644,85.028,5.11,85.519 M4.971,87.505c0.139-0.936,1.38-2.24,2.201-3.65
		c-0.202,1.545,0.369,2.19-0.454,3.75c-0.594,1.186-1.054,1.141-1.324,1.429c-0.284-0.524-0.69-0.847-1.196-1.173
		c0.446,0.506,0.668,1.106,0.881,1.83c-0.336-0.359-0.256-0.688-1.37-0.965c-1.713-1.309-0.93-1.932-1.637-3.816
		C2.724,84.75,4.599,86.253,4.971,87.505 M2.375,89.33c0.673-0.253,2.924,1.272,3.556,2.524c-0.052-0.903,0.996-2.363,1.61-3.836
		c0.043,1.539,0.728,2.062,0.14,3.633c-0.376,1.315-0.892,1.315-1.12,1.621c-0.388-0.483-0.836-0.76-1.387-0.963
		c0.49,0.355,0.848,0.975,1.177,1.572c-0.39-0.227-0.363-0.598-1.575-0.607C2.844,92.19,3.375,91.054,2.375,89.33 M7.929,97.617
		c-0.064-0.899,0.99-2.361,1.547-3.796c0.096,1.507,0.781,1.988,0.214,3.629c-0.374,1.193-0.848,1.193-1.083,1.49
		c-0.394-0.403-0.901-0.696-1.419-0.916c0.508,0.418,0.86,0.979,1.203,1.592c-0.396-0.219-0.372-0.584-1.598-0.612
		c-2.017-0.979-1.434-2.182-2.501-3.866C4.971,94.886,7.267,96.394,7.929,97.617 M5.543,99.724c0.63-0.326,3.253,0.782,4.128,1.87
		c-0.214-0.877,0.603-2.401,0.941-3.924c0.35,1.47,1.131,1.836,0.845,3.454c-0.152,1.234-0.644,1.352-0.845,1.646
		c-0.455-0.396-1.007-0.608-1.588-0.666c0.581,0.27,1.047,0.795,1.482,1.323c-0.435-0.194-0.46-0.528-1.71-0.396
		C6.62,102.423,6.927,101.198,5.543,99.724 M8.068,104.827c0.646-0.293,3.272,0.898,4.156,2.036
		c-0.199-0.86,0.663-2.329,1.073-3.789c0.277,1.46,1.081,1.821,0.748,3.423c-0.23,1.2-0.707,1.299-0.919,1.572
		c-0.479-0.372-1.035-0.623-1.624-0.756c0.588,0.306,1.045,0.819,1.49,1.377c-0.445-0.207-0.46-0.545-1.743-0.42
		C9.024,107.541,9.458,106.351,8.068,104.827 M10.046,109.067c0.65-0.375,3.512,0.406,4.592,1.324
		c-0.36-0.766,0.248-2.3,0.401-3.756c0.559,1.35,1.435,1.635,1.41,3.172c-0.054,1.182-0.524,1.327-0.688,1.633
		c-0.534-0.306-1.124-0.391-1.752-0.451c0.639,0.203,1.218,0.574,1.694,1.07c-0.423-0.137-0.534-0.451-1.81-0.189
		C11.543,111.509,11.69,110.333,10.046,109.067 M16.496,113.274c0.043,0.207,0.121,0.449,0.206,0.654
		c-0.561-0.498-1.419-0.861-2.324-1.07C15.229,112.858,15.926,113.067,16.496,113.274 M12.779,113.571
		c0.655-0.336,3.554,0.654,4.62,1.677c-0.35-0.828,0.353-2.274,0.543-3.685c0.549,1.356,1.442,1.69,1.31,3.224
		c-0.025,1.157-0.544,1.271-0.704,1.551c-0.54-0.38-1.15-0.495-1.788-0.612c0.679,0.232,1.248,0.732,1.744,1.228
		c-0.496-0.158-0.525-0.495-1.876-0.347C14.241,116.058,14.418,114.901,12.779,113.571 M23.181,120.956
		c-0.451-0.384-0.95-0.86-1.932-0.598c-2.541-0.263-3.192-1.855-5.083-2.906c0.594-0.407,3.668,0.167,4.937,0.962
		c-0.46-0.701-0.081-2.146-0.155-3.554c0.801,1.222,1.753,1.408,1.924,2.923c0.207,1.239,0.207,1.954,0.453,2.672
		c-0.372-0.36-0.864-0.69-1.354-0.909C22.46,119.947,22.836,120.399,23.181,120.956 M20.145,117.269v-0.035l0.027,0.035H20.145z
		 M36.431,127.479c-5.509-1.674-10.292-4.282-11.528-6.182c-0.447-1.009-0.583-2.219-0.86-3.789c0-0.057-0.041-0.057-0.041-0.128
		c3.901,3.323,8.175,5.716,12.758,6.843h-0.404C34.817,126.113,35.644,127.065,36.431,127.479 M42.937,123.019
		c-15.141-0.313-24.089-12.649-27.509-18.635c-0.541-0.693,8.615-3.582,10.664-4.126l2.532-0.641c0.09,1.13,2.033,1.493,1.897,1.051
		c0.462,0.244-0.14,0.956,0.99,1.808c1.25,0.856,1.985,0.358,2.13,0.127c-0.741,0.791,1.874,2.17,3.417,1.235
		c-0.219,0.763,1.068,1.048,1.342,1.058c0.537,0.317,1.889,0.614,2.9,0v8.34c0.152,1.553,0.223,1.935,0.958,2.188
		c3.351,0.303,2.646-0.787,2.994-1.783c-0.109-3.582-0.198-8.755-0.198-8.744c2.335-0.295,1.727-0.791,2.602-1.059
		c0.967,0.145,1.491,0.132,2.336-1.027c1.216,0.129,2.273-0.259,2.64-1.268c1.01,0.363,2.468-0.631,3.283-2.484
		c2.229,0.713,10.392,5.047,14.16,6.231C68.357,108.092,58.966,123.019,42.937,123.019 M69.237,114.254
		c0.354-0.155,0.794-0.315,1.31-0.323c-0.57,0.225-1.102,0.465-1.481,0.743C69.141,114.538,69.208,114.396,69.237,114.254
		 M65.502,118.019c0,0-0.026,0-0.026,0.025C65.477,118.019,65.502,118.019,65.502,118.019 M61.566,118.198
		c-0.281,1.441-0.405,2.461-0.678,3.43c-1.393,2.598-8.367,4.881-11.281,5.83c0.874-0.811,1.37-2.441,0.152-3.232h-0.25
		c4.327-1.099,8.416-3.252,12.124-6.207C61.566,118.056,61.566,118.144,61.566,118.198 M65.03,120.704
		c-1.103-0.262-1.841,0.406-2.396,0.845c0.441-0.593,0.919-1.264,1.402-1.602c-0.538,0.148-1.063,0.411-1.476,0.692
		c0.042-0.544-0.027-1.137,0.132-2.156c0.203-1.506,1.2-1.689,2.013-2.971c-0.112,1.439,0.325,2.961-0.225,3.708
		c1.31-0.807,4.46-1.362,5.08-0.948C67.6,119.321,67.573,120.542,65.03,120.704 M69.066,117.381
		c-1.326-0.147-1.401,0.185-1.907,0.332c0.559-0.494,1.138-0.919,1.781-1.231c-0.644,0.125-1.276,0.273-1.807,0.634
		c-0.134-0.321-0.671-0.435-0.671-1.632c-0.1-1.555,0.827-1.881,1.399-3.213c0.165,1.414,0.803,2.898,0.462,3.746
		c1.111-1.043,4.11-1.988,4.75-1.66C71.37,115.72,71.547,116.903,69.066,117.381 M71.898,112.921
		c-1.293-0.22-1.384,0.08-1.866,0.246c0.536-0.466,1.097-0.938,1.761-1.163c-0.655,0.056-1.226,0.183-1.802,0.515
		c-0.106-0.332-0.654-0.459-0.654-1.693c-0.061-1.625,0.825-1.861,1.439-3.205c0.108,1.447,0.752,2.99,0.417,3.82
		c1.083-1.013,3.986-1.789,4.597-1.35C74.131,111.342,74.331,112.538,71.898,112.921 M74.587,109.199
		c-1.306-0.063-1.326,0.272-1.755,0.495c0.429-0.558,0.884-1.102,1.499-1.398c-0.615,0.13-1.18,0.366-1.619,0.725
		c-0.223-0.33-0.732-0.358-0.98-1.574c-0.35-1.637,0.46-2.018,0.809-3.478c0.361,1.46,1.25,2.968,1.079,3.877
		c0.895-1.21,3.534-2.413,4.211-2.095C76.486,107.272,76.836,108.483,74.587,109.199 M77.443,103.894
		c-1.277-0.108-1.307,0.211-1.72,0.424c0.413-0.533,0.89-1.019,1.521-1.379c-0.631,0.137-1.17,0.361-1.648,0.721
		c-0.181-0.326-0.683-0.439-0.873-1.706c-0.289-1.675,0.541-2.031,0.873-3.493c0.359,1.486,1.185,3.083,0.967,3.963
		c0.88-1.115,3.526-2.219,4.151-1.859C79.332,102.033,79.65,103.299,77.443,103.894 M79.456,99.771
		c-1.233,0.009-1.202,0.384-1.592,0.642c0.317-0.632,0.705-1.22,1.201-1.599c-0.541,0.22-1.031,0.471-1.423,0.957
		c-0.24-0.303-0.753-0.371-1.104-1.547c-0.583-1.656,0.144-2.187,0.214-3.729c0.598,1.479,1.609,2.957,1.609,3.85
		c0.703-1.229,3.011-2.703,3.684-2.535C80.941,97.548,81.51,98.813,79.456,99.771 M79.908,95.714
		c0.278-0.238,0.548-0.386,0.934-0.48C80.542,95.354,80.217,95.478,79.908,95.714 M81.51,93.881
		c-1.217,0.074-1.19,0.437-1.586,0.665c0.326-0.611,0.703-1.203,1.207-1.578c-0.538,0.221-1.023,0.462-1.405,0.914
		c-0.225-0.262-0.717-0.262-1.157-1.525c-0.593-1.679,0.128-2.215,0.173-3.764c0.576,1.488,1.663,2.977,1.654,3.922
		c0.592-1.303,2.901-2.889,3.574-2.611C82.929,91.651,83.517,92.897,81.51,93.881"/>
	<path fill="#FACC63" d="M30.981,23.357c1.422-0.642,1.823-1.098,1.823-1.098l-4.603-1.163l4.685-0.976c0,0-0.126-0.24-2.861-1.106
		c-0.523-0.171-0.078-0.71-2.357-1.169c0.825-0.167,0.574,0.223,2.125,0.459c1.063,0.021,1.897,0.208,3.408-0.13
		c0,0-2.777-2.145-4.606-3.112c0,0,3.04,0.804,5.442,1.376c0-0.25-1.918-1.714-3.181-3.25c-0.288-0.367-0.376-0.588-0.695-0.896
		c1.326,0.514,1.326,0.896,2.013,1.32c0.819,0.301,2.371,1.181,2.934,1.112c-1.366-1.918-3.272-4.691-3.272-4.691l4.789,3.249
		c-0.198-1.232-1.085-2.19-1.17-2.664c-0.576-2.027-0.405-1.854-0.851-2.621c1.297,1.95,1.79,3.001,3.765,4.169L37.516,6.24
		l2.867,5.224c0.197-0.724-0.002-2.176-0.104-2.7c0.301-2.695,0.301-1.107-0.039-3.109c0.317,1.125,0.317,0.927,0.488,2.313
		c0.52,1.145,0.903,2.009,1.551,3.072l1.186-5.537c0,0,0.912,5.537,0.771,5.588c0.617-1.15,0.528-1.804,1.126-2.694
		c0.893-1.483,1.165-2.719,1.165-2.719c-0.435,2.29-0.375,1.527-0.587,2.719c0.048,1.195-0.012,2.832,0.306,3.043l3.421-4.932
		l-1.356,5.784c0.378-0.132,1.792-1.917,3.05-2.861c0.362-0.38,1.063-1.331,1.063-1.331c-0.804,1.022-1.063,1.677-1.482,2.472
		c-0.563,1.393-0.427,0.925-1.051,2.855l4.883-3.36l-3.329,4.803c0,0,0.277,0.12,2.456-1.1c1.319-0.316,2.37-0.871,3.056-1.326
		c-1.614,1.435-2.334,1.326-4.434,4.097l5.498-1.13c0,0-4.551,2.735-4.801,2.891c0.25,0.303,2.187-0.258,3.607,0
		c1.243,0.077,1.243,0.104,2.468-0.13c-1.429,0.509-1.833,0.233-3.383,0.84c-0.691,0.375-2.075,0.913-2.247,1.229l5.535,1.013
		c0,0-5.46,1.253-6.378,1.602c-0.299-0.035-0.639-0.035-0.982-0.035c-0.264,0-0.48,0.035-0.709,0.074
		c0.229-0.388,0.314-0.834,0.277-1.206c-1.852,0.464-3.589-0.057-5.044,0.311c0.165-0.431,0.165-0.835,0.054-1.061
		c-2.295,1.033-4.212,0.538-6.083,2.053c0.049-0.447-0.053-0.992-0.272-1.515c-1.979,1.078-3.71,0.396-5.1,1.627
		c0.06-0.425,0.06-0.757-0.068-1.043c-2.086,0.834-3.686,1.114-5.242,2.629c-0.361-0.069-0.817-0.124-1.24-0.161
		c-0.03-0.095-0.111-0.142-0.15-0.219c-0.077,0.077-0.142,0.124-0.2,0.213c-0.288-0.031-0.597,0-0.973,0.043
		C29.053,23.973,30.143,23.827,30.981,23.357"/>
	<path fill="#231F20" d="M50.866,17.429l0.577,0.02c0,0-0.351-2.576-4.952-2.276h-1.086c0,0.057-0.501,1.448-0.501,1.448
		l3.136-0.224C48.041,16.396,50.201,16.19,50.866,17.429"/>
	<path fill="#231F20" d="M45.807,19.154c0.016-0.114,0.719-0.771,0.719-0.771s0.106,0.024,0.146,0.024
		c-0.04,0.12-0.083,0.199-0.083,0.322c0,0.5,0.254,0.925,0.726,1.108c0.126,0.043,0.802,0,0.802,0
		c0.456-0.184,0.73-0.616,0.73-1.108c0-0.123-0.054-0.202-0.089-0.315c0.421,0.099,0.918,0.315,1.143,0.773l0.964,0.041
		c0,0-0.545-2.431-4.928-1.761c0,0-1.083,1.547-1.083,1.677C44.818,19.221,45.807,19.221,45.807,19.154"/>
	<path fill="#231F20" d="M35.832,19.154l1.007-0.114c0.25-0.474,0.725-0.658,1.106-0.736c-0.051,0.109-0.092,0.208-0.092,0.301
		c0,0.539,0.273,0.934,0.739,1.117c0,0,0.674,0.089,0.784,0c0.472-0.183,0.793-0.579,0.793-1.117c0-0.079-0.084-0.079-0.084-0.138
		c0.137-0.054,0.204-0.054,0.204-0.054s0.62,0.601,0.62,0.626c0,0.104,1.033,0.104,1-0.026c-0.008-0.105-1.052-1.625-1.052-1.625
		C36.43,16.605,35.832,19.154,35.832,19.154"/>
	<path fill="#231F20" d="M38.478,16.346l3.254,0.198c0,0-0.373-1.316-0.373-1.372h-0.848c-4.916-0.299-5.338,2.157-5.338,2.157
		l0.602-0.008C36.43,16.051,38.478,16.346,38.478,16.346"/>
	<path fill="#0B9E5C" d="M84.349,84.877c-0.721,1.918,0,3.114-1.714,4.453c-1.125,0.226-1.067,0.618-1.379,0.937
		c0.185-0.711,0.429-1.395,0.846-1.85c-0.474,0.311-0.907,0.657-1.175,1.177c-0.299-0.25-0.722-0.202-1.345-1.409
		c-0.841-1.615-0.264-2.238-0.518-3.83c0.826,1.434,2.104,2.709,2.292,3.666C81.748,86.664,83.628,84.708,84.349,84.877"/>
	<path fill="#0B9E5C" d="M85.112,78.417c-0.854,2.021-0.237,2.967-2.147,4.677c-1.218,0.521-1.167,0.835-1.521,1.261
		c0.245-0.74,0.557-1.444,1.04-2.004c-0.541,0.426-1.011,0.892-1.352,1.418c-0.266-0.155-0.778,0-1.321-1.014
		c-0.747-1.372-0.066-2.145-0.186-3.617c0.771,1.148,2.004,2.208,2.11,3.07C82.268,80.75,84.417,78.417,85.112,78.417"/>
	<path fill="#0B9E5C" d="M81.747,76.726c0.329-1.434,2.113-4.015,2.839-4.107c-0.549,2.105,0.258,2.936-1.393,4.81
		c-1.192,0.686-1.041,0.989-1.352,1.429c0.13-0.743,0.344-1.461,0.738-2.06c-0.478,0.443-0.891,0.972-1.149,1.509
		c-0.264-0.121-0.769,0.111-1.505-0.826c-0.973-1.191-0.425-2.032-0.809-3.41C80.088,75.049,81.508,75.856,81.747,76.726"/>
	<path fill="#0B9E5C" d="M84.586,66.44c-0.55,2.027,0.289,2.879-1.36,4.65c-1.18,0.609-1.059,0.92-1.354,1.302
		c0.128-0.692,0.342-1.423,0.706-1.946c-0.477,0.425-0.844,0.856-1.137,1.452c-0.274-0.129-0.779,0.026-1.553-0.928
		c-0.964-1.25-0.431-1.958-0.827-3.407c0.967,1.082,2.448,1.928,2.718,2.747C82.075,68.886,83.861,66.5,84.586,66.44"/>
	<path fill="#0B9E5C" d="M81.471,65.913c0.039-1.405,1.361-3.986,2.073-4.16c-0.126,2.068,0.875,2.755-0.438,4.715
		c-1.104,0.765-0.892,1.027-1.134,1.462c0-0.697,0.073-1.399,0.375-2.017c-0.406,0.509-0.753,0.955-0.876,1.582
		c-0.34-0.092-0.786,0.171-1.718-0.72c-1.248-1.021-0.827-1.823-1.502-3.161C79.456,64.508,81.055,65.117,81.471,65.913"/>
	<path fill="#0B9E5C" d="M28.799,28.825c0.282-0.38,0.644-0.38,0.896-1.671c0.811-2.588,2.244-2.291,4.073-3.519
		c0.639,0.8-1.592,3.716-2.984,4.596c0.87-0.135,2.081,0.938,3.345,1.45c-1.491,0.173-2.087,0.949-3.508,0.473
		c-1.07-0.379-1.013-0.903-1.265-1.089c0.482-0.446,0.838-1.007,1.163-1.591C30.063,28.059,29.443,28.486,28.799,28.825"/>
	<path fill="#0B9E5C" d="M53.975,27.969c-0.563,0-1.107-0.173-1.637-0.367c0.809-0.25,1.561-0.561,2.222-0.988
		c1.447,0.299,2.654,0.988,2.75,2.194c-1.212-0.353-1.434,0.416-3.219,0.72c-1.652,0.358-2.518-0.577-3.95-0.837
		c-0.468-0.379-0.635-0.722-0.635-0.959c0.734,0.143,1.511,0.143,2.213,0.015l-0.038,0.216
		C52.46,28.242,53.221,28.172,53.975,27.969"/>
	<path fill="#0B9E5C" d="M48.701,25.898c0.809,0.054,1.501-0.185,2.163-0.482c-0.486,0.11-1.021,0.056-1.548,0
		c0.967-0.633,1.66-1.443,3.022-1.404c1.835,0.024,1.855,1.097,3.001,0.554C55.423,25.526,50.099,27.96,48.701,25.898"/>
	<path fill="#0B9E5C" d="M46.089,25.524c0.858,0.258,1.729,1.755,2.758,2.786c-1.374-0.433-2.099,0.075-3.349-0.966
		c-0.929-0.811-0.778-1.285-0.902-1.582c0.546-0.237,0.986-0.594,1.413-1.072c-0.574,0.368-1.243,0.525-1.947,0.604
		c0.375-0.236,0.704-0.125,1.244-1.258c1.683-1.596,2.558-0.714,4.54-1.141C49.759,23.635,47.496,25.293,46.089,25.524"/>
	<path fill="#0B9E5C" d="M41.808,25.898c0.87,0.105,1.895,1.377,3.077,2.199c-1.452-0.137-2.079,0.479-3.431-0.312
		c-1.025-0.609-0.897-1.089-1.12-1.343c0.536-0.33,0.916-0.811,1.272-1.342c-0.511,0.468-1.163,0.746-1.821,1.012
		c0.332-0.4,0.658-0.33,1.068-1.547c1.48-1.886,2.12-1.136,4.052-2.01C44.935,23.323,43.113,25.379,41.808,25.898"/>
	<path fill="#0B9E5C" d="M38.871,28.52c-1.454,0-2.112,0.702-3.498,0.004c-1.062-0.429-0.935-0.923-1.179-1.181
		c0.518-0.342,0.916-0.864,1.264-1.446c-0.507,0.503-1.153,0.919-1.814,1.163c0.338-0.362,0.662-0.276,1.049-1.59
		c1.388-2.019,2.363-1.427,4.244-2.443c0.063,0.719-1.918,2.996-3.267,3.609C36.523,26.698,37.657,27.873,38.871,28.52"/>
	<path fill="#0B9E5C" d="M81.915,55.714c-0.136,2.058,0.911,2.784-0.443,4.679c-1.077,0.707-0.879,1-1.118,1.397
		c0-0.69,0.051-1.397,0.331-2.025c-0.39,0.48-0.685,0.978-0.816,1.627c-0.366-0.177-0.805,0.096-1.708-0.797
		c-1.322-1.113-0.918-1.861-1.552-3.269c1.187,0.931,2.822,1.64,3.26,2.438C79.868,58.36,81.167,55.858,81.915,55.714"/>
	<path fill="#0B9E5C" d="M78.697,55.528c-0.264-1.409,0.578-4.02,1.282-4.285c0.225,2.031,1.434,2.646,0.425,4.679
		c-0.904,0.809-0.651,1.07-0.786,1.505c-0.163-0.696-0.224-1.385-0.081-1.994c-0.264,0.489-0.501,1.019-0.53,1.608
		c-0.357-0.049-0.786,0.266-1.854-0.486c-1.472-0.903-1.251-1.753-2.134-3.007C76.376,54.322,78.159,54.775,78.697,55.528"/>
	<path fill="#0B9E5C" d="M77.091,45.455c0.258,2.041,1.433,2.647,0.41,4.673c-0.894,0.784-0.664,1.042-0.812,1.472
		c-0.128-0.688-0.196-1.372-0.042-1.993c-0.29,0.464-0.52,1.022-0.556,1.59c-0.37-0.092-0.753,0.176-1.844-0.567
		c-1.481-0.987-1.204-1.804-2.125-3.078c1.326,0.771,3.095,1.323,3.689,2.09C75.553,48.211,76.411,45.624,77.091,45.455"/>
	<path fill="#0B9E5C" d="M74.347,41.214c0.629,1.943,1.902,2.438,1.333,4.574c-0.766,0.876-0.484,1.151-0.536,1.553
		c-0.295-0.646-0.47-1.33-0.457-1.999c-0.173,0.578-0.34,1.108-0.223,1.729c-0.395-0.079-0.711,0.27-1.924-0.355
		c-1.659-0.795-1.551-1.62-2.656-2.826c1.475,0.636,3.288,0.929,3.993,1.685C73.367,44.165,73.719,41.515,74.347,41.214"/>
	<path fill="#0B9E5C" d="M70.546,35.522c0.899,1.988,1.578,1.775,1.507,4.37c-0.445,1.274-0.154,1.453-0.115,1.991
		c-0.338-0.67-0.629-1.418-0.745-2.144c-0.065,0.629-0.056,1.328,0.163,1.967c-0.34,0.083-0.569,0.534-1.672,0.232
		c-1.501-0.336-1.614-1.342-2.778-2.251c1.393,0.25,3.009,0,3.698,0.551C69.978,38.919,70.072,36.071,70.546,35.522"/>
	<path fill="#0B9E5C" d="M67.207,36.554c-0.745-1.163-0.949-3.931-0.494-4.522c1.071,1.824,1.799,1.442,1.952,3.949
		c-0.305,1.318-0.006,1.436,0.093,1.935c-0.433-0.579-0.838-1.244-0.98-1.935c0.006,0.654,0.084,1.281,0.343,1.883
		c-0.336,0.11-0.491,0.623-1.659,0.47c-1.565-0.113-1.771-1.072-3.025-1.779C64.839,36.554,66.461,36.104,67.207,36.554"/>
	<path fill="#0B9E5C" d="M61.883,27.786c1.194,1.743,2.392,1.621,2.645,4.067c-0.334,1.266,0,1.404,0.092,1.856
		c-0.445-0.59-0.841-1.149-1.049-1.819c0.032,0.67,0.144,1.229,0.41,1.819c-0.353,0.146-0.482,0.651-1.701,0.542
		c-1.599,0-1.846-0.897-3.144-1.592c1.464-0.033,3.058-0.572,3.864-0.149C62.115,31.325,61.44,28.408,61.883,27.786"/>
	<path fill="#0B9E5C" d="M60.551,28.172c-0.196,1.404,0.244,1.305,0.415,1.893c-0.171-0.033-0.246-0.101-0.367-0.101
		c-0.504-0.536-0.945-1.155-1.171-1.521c0.227,1.133,0.271,1.478,0.667,2.039c-0.12,0.186-0.395,0.375-1.082,0.46
		c-1.966,0.111-2.336-0.342-3.097-0.768c1.304-0.554,1.918-1.231,3.173-0.818c0-0.105-0.016-0.186-0.124-0.366h0.077
		c-0.029,0-0.077-0.039-0.077-0.039c-0.144-0.427-0.519-0.893-1.1-1.392c-0.586-1.027-0.979-2.145-0.732-2.553
		C58.546,26.442,59.928,25.848,60.551,28.172"/>
	<path fill="#0B9E5C" d="M24.48,29.965c0.603-2.231,1.79-1.933,3.194-3.354c0.384,0.65-0.661,3.308-1.742,4.246
		c0.839-0.258,2.367,0.518,3.823,0.84c-1.377,0.39-1.757,1.237-3.341,0.958c-1.242-0.146-1.332-0.647-1.631-0.819
		c0.348-0.513,0.518-1.039,0.635-1.661c-0.287,0.622-0.781,1.092-1.314,1.542C24.276,31.302,24.609,31.254,24.48,29.965"/>
	<path fill="#0B9E5C" d="M20.999,32.804c0.247-2.359,1.424-2.259,2.619-3.995c0.354,0.598-0.244,3.511-1.108,4.648
		c0.738-0.401,2.339,0.099,3.762,0.213c-1.287,0.581-1.489,1.489-3.075,1.541c-1.188,0.081-1.348-0.457-1.672-0.559
		c0.257-0.539,0.379-1.141,0.379-1.812c-0.169,0.7-0.581,1.273-0.99,1.828C20.999,34.183,21.323,34.108,20.999,32.804"/>
	<path fill="#0B9E5C" d="M17.05,36.106c0.196-2.526,0.852-2.253,1.955-4.075c0.407,0.594,0.221,3.492-0.516,4.628
		c0.737-0.464,2.267,0,3.713-0.073c-1.256,0.782-1.455,1.71-2.976,1.841c-1.169,0.057-1.343-0.404-1.625-0.457
		c0.233-0.602,0.301-1.2,0.301-1.904c-0.116,0.704-0.505,1.349-0.94,1.904C17.05,37.501,17.366,37.369,17.05,36.106"/>
	<path fill="#0B9E5C" d="M15.282,35.852c0.47,0.574,0.53,3.455-0.138,4.764c0.74-0.547,2.253-0.326,3.67-0.547
		c-1.171,0.92-1.26,1.869-2.734,2.244c-1.123,0.276-1.351-0.198-1.66-0.262c0.218-0.602,0.218-1.257,0.161-1.904
		c-0.105,0.704-0.395,1.415-0.724,2.032c0.014-0.47,0.307-0.618-0.155-1.889C13.665,37.745,14.387,37.864,15.282,35.852"/>
	<path fill="#0B9E5C" d="M11.419,41.567c0.649,0.258,0.986,2.939,0.453,4.26c0.675-0.633,2.473-1.008,3.98-1.642
		c-1.122,1.143-1.029,1.976-2.629,2.788c-1.202,0.575-1.534,0.289-1.918,0.37c0.087-0.622,0-1.17-0.225-1.718
		c0.046,0.667-0.165,1.348-0.442,2.006c-0.04-0.484,0.255-0.693-0.524-1.55C9.556,43.989,10.834,43.467,11.419,41.567"/>
	<path fill="#0B9E5C" d="M8.301,50.321C7.334,48.323,8.5,47.707,8.7,45.742c0.676,0.208,1.559,2.716,1.315,4.109
		c0.529-0.736,2.258-1.323,3.617-2.079c-0.914,1.208-0.641,2.037-2.091,3.029c-1.066,0.745-1.472,0.442-1.816,0.572
		c-0.035-0.572-0.269-1.07-0.56-1.564c0.163,0.629,0.113,1.294-0.03,1.946C9.001,51.374,9.244,51.104,8.301,50.321"/>
	<path fill="#0B9E5C" d="M6.313,51.446c0.655,0.195,1.476,2.765,1.23,4.189c0.578-0.748,2.292-1.233,3.644-1.944
		c-0.927,1.196-0.681,2.025-2.146,2.938c-1.047,0.697-1.421,0.394-1.775,0.51c-0.045-0.583-0.256-1.118-0.547-1.613
		c0.153,0.619,0.073,1.242-0.082,1.967c-0.113-0.454,0.119-0.725-0.778-1.514C4.89,53.993,6.055,53.404,6.313,51.446"/>
	<path fill="#0B9E5C" d="M4.823,60.396c-1.324-1.837-0.285-2.601-0.431-4.572c0.718,0.1,2.026,2.573,2.026,3.979
		c0.374-0.813,2.029-1.5,3.187-2.419c-0.65,1.351-0.254,2.134-1.484,3.212c-0.934,0.85-1.366,0.622-1.702,0.694
		c-0.149-0.544-0.458-1.046-0.828-1.487c0.268,0.592,0.338,1.25,0.338,1.95C5.691,61.394,5.878,61.053,4.823,60.396"/>
	<path fill="#0B9E5C" d="M2.78,61.755c0.716,0.125,1.998,2.672,2.043,4.076c0.417-0.767,1.972-1.404,3.172-2.313
		c-0.661,1.352-0.251,2.12-1.47,3.178c-0.933,0.799-1.349,0.544-1.702,0.657c-0.122-0.58-0.468-1.086-0.833-1.568
		c0.299,0.638,0.342,1.314,0.342,2.032c-0.229-0.464-0.017-0.718-1.094-1.444C1.929,64.438,2.937,63.759,2.78,61.755"/>
	<path fill="#0B9E5C" d="M4.864,71.665c-0.246-0.573-0.666-1.025-1.109-1.434c0.357,0.523,0.579,1.239,0.679,1.937
		c-0.26-0.394-0.144-0.697-1.304-1.274c-1.671-1.795-0.975-2.221-1.524-4.231c0.718,0.089,2.592,2.18,2.946,3.471
		c0.224-0.815,1.657-1.667,2.637-2.733c-0.336,1.442,0.193,2.121-0.837,3.355C5.664,71.698,5.176,71.501,4.864,71.665"/>
	<path fill="#0B9E5C" d="M1.605,72.711c0.72,0.138,2.594,2.313,2.944,3.685c0.226-0.762,1.625-1.601,2.563-2.609
		c-0.323,1.402,0.221,2.16-0.763,3.375C5.665,78.089,5.174,77.795,4.888,78c-0.245-0.606-0.688-1.106-1.122-1.501
		c0.372,0.547,0.568,1.27,0.725,1.956c-0.315-0.366-0.173-0.687-1.32-1.32C1.523,75.293,2.158,74.832,1.605,72.711"/>
	<path fill="#0B9E5C" d="M1.377,78.601c0.694,0.039,2.729,1.838,3.241,3.166c0.085-0.848,1.31-1.869,2.017-3.007
		c-0.074,1.498,0.584,2.244-0.181,3.554c-0.522,0.994-1.033,0.86-1.248,0.994c-0.382-0.531-0.85-0.994-1.361-1.351
		c0.489,0.509,0.798,1.217,1.044,1.913c-0.34-0.373-0.291-0.696-1.511-1.216C0.494,80.113,3.537,83.521,1.377,78.601"/>
	<path fill="#0B9E5C" d="M5.008,87.521c0.101-0.914,1.364-2.258,2.179-3.65c-0.178,1.531,0.395,2.188-0.432,3.734
		c-0.616,1.211-1.092,1.142-1.336,1.429c-0.311-0.5-0.695-0.849-1.22-1.173C4.642,88.364,4.89,89,5.108,89.688
		C4.776,89.344,4.823,89,3.709,88.746c-1.676-1.295-0.927-1.951-1.587-3.808C2.78,84.751,4.599,86.254,5.008,87.521"/>
	<path fill="#0B9E5C" d="M2.401,89.33c0.657-0.254,2.922,1.31,3.528,2.582c-0.05-0.923,1.041-2.423,1.612-3.892
		c0.079,1.537,0.755,2.061,0.155,3.668c-0.393,1.279-0.908,1.279-1.106,1.586c-0.383-0.485-0.852-0.765-1.383-0.967
		c0.518,0.42,0.846,0.977,1.145,1.598c-0.36-0.25-0.36-0.621-1.53-0.629C2.879,92.26,3.393,91.054,2.401,89.33"/>
	<path fill="#0B9E5C" d="M7.933,97.655c-0.03-0.924,0.983-2.377,1.567-3.836c0.072,1.508,0.775,1.988,0.225,3.635
		c-0.396,1.27-0.882,1.27-1.116,1.551c-0.365-0.468-0.864-0.689-1.387-0.953c0.484,0.41,0.868,0.979,1.196,1.603
		c-0.398-0.255-0.369-0.624-1.565-0.65c-2.029-0.981-1.49-2.185-2.537-3.864C5.006,94.901,7.305,96.394,7.933,97.655"/>
	<path fill="#0B9E5C" d="M5.591,99.771c0.615-0.371,3.235,0.763,4.1,1.823c-0.216-0.848,0.633-2.401,0.92-3.924
		c0.377,1.478,1.154,1.859,0.88,3.487c-0.185,1.201-0.658,1.316-0.854,1.625c-0.459-0.411-1.008-0.529-1.613-0.678
		c0.605,0.32,1.071,0.795,1.52,1.323c-0.449-0.128-0.496-0.528-1.718-0.394C6.619,102.474,6.969,101.2,5.591,99.771"/>
	<path fill="#0B9E5C" d="M8.121,104.882c0.617-0.351,3.245,0.867,4.108,1.979c-0.177-0.855,0.714-2.328,1.068-3.738
		c0.293,1.41,1.111,1.816,0.752,3.411c-0.193,1.163-0.693,1.262-0.884,1.534c-0.484-0.371-1.039-0.623-1.623-0.752
		c0.583,0.308,1.08,0.836,1.45,1.375c-0.403-0.209-0.448-0.539-1.687-0.42C9.042,107.541,9.455,106.349,8.121,104.882"/>
	<path fill="#0B9E5C" d="M10.071,109.085c0.646-0.395,3.485,0.386,4.564,1.307c-0.34-0.764,0.252-2.3,0.408-3.758
		c0.58,1.35,1.452,1.661,1.405,3.221c0,1.195-0.524,1.291-0.658,1.59c-0.51-0.297-1.143-0.395-1.748-0.454
		c0.604,0.202,1.187,0.616,1.708,1.097c-0.448-0.104-0.574-0.48-1.83-0.188C11.583,111.507,11.705,110.334,10.071,109.085"/>
	<path fill="#0B9E5C" d="M12.811,113.571c0.654-0.316,3.539,0.683,4.629,1.677c-0.343-0.793,0.344-2.274,0.539-3.685
		c0.511,1.405,1.411,1.711,1.281,3.224c-0.009,1.157-0.549,1.271-0.683,1.557c-0.548-0.327-1.136-0.502-1.786-0.618
		c0.675,0.291,1.22,0.732,1.745,1.252c-0.48-0.184-0.557-0.521-1.873-0.373C14.24,116.083,14.455,114.901,12.811,113.571"/>
	<path fill="#0B9E5C" d="M23.197,120.954c-0.456-0.329-0.968-0.855-1.95-0.598c-2.536-0.258-3.177-1.81-5.038-2.901
		c0.582-0.411,3.669,0.203,4.929,1.022c-0.498-0.765-0.093-2.207-0.157-3.614c0.78,1.218,1.747,1.435,1.932,2.922
		c0.193,1.237,0.165,1.981,0.438,2.714c-0.394-0.4-0.86-0.708-1.365-0.938C22.46,119.946,22.871,120.44,23.197,120.954"/>
	<path fill="#0B9E5C" d="M65.03,120.704c-1.088-0.264-1.802,0.425-2.371,0.861c0.419-0.609,0.912-1.275,1.377-1.563
		c-0.509,0.093-1.021,0.352-1.436,0.653c0.023-0.562-0.041-1.155,0.12-2.171c0.197-1.484,1.207-1.691,2.044-2.973
		c-0.145,1.44,0.266,2.973-0.24,3.708c1.291-0.806,4.416-1.362,5.034-0.948C67.6,119.37,67.573,120.539,65.03,120.704"/>
	<path fill="#0B9E5C" d="M69.067,117.384c-1.289-0.15-1.403,0.184-1.901,0.329c0.555-0.479,1.132-0.917,1.842-1.229
		c-0.663,0.123-1.291,0.312-1.848,0.631c-0.135-0.319-0.654-0.43-0.698-1.631c-0.082-1.547,0.833-1.879,1.428-3.213
		c0.136,1.449,0.804,2.937,0.468,3.748c1.084-1.043,4.076-1.99,4.717-1.662C71.381,115.726,71.568,116.927,69.067,117.384"/>
	<path fill="#0B9E5C" d="M71.899,112.968c-1.264-0.252-1.366,0.033-1.858,0.198c0.546-0.466,1.099-0.938,1.777-1.163
		c-0.626,0.084-1.23,0.208-1.777,0.514c-0.157-0.33-0.658-0.457-0.704-1.66c-0.061-1.586,0.832-1.894,1.44-3.234
		c0.107,1.445,0.77,3.086,0.415,3.849c1.127-0.975,4.002-1.78,4.619-1.382C74.13,111.343,74.347,112.539,71.899,112.968"/>
	<path fill="#0B9E5C" d="M74.596,109.231c-1.283-0.095-1.315,0.242-1.736,0.459c0.419-0.555,0.878-1.047,1.484-1.388
		c-0.605,0.122-1.171,0.358-1.634,0.716c-0.171-0.287-0.7-0.33-0.952-1.573c-0.345-1.625,0.484-2.011,0.781-3.479
		c0.405,1.469,1.287,2.971,1.114,3.879c0.86-1.145,3.502-2.41,4.209-2.096C76.487,107.272,76.837,108.481,74.596,109.231"/>
	<path fill="#0B9E5C" d="M77.444,103.922c-1.254-0.138-1.281,0.183-1.723,0.396c0.444-0.533,0.927-1.02,1.522-1.379
		c-0.596,0.135-1.152,0.36-1.623,0.721c-0.207-0.325-0.691-0.424-0.86-1.693c-0.295-1.656,0.501-2.043,0.86-3.504
		c0.344,1.53,1.184,3.083,0.94,4.014c0.883-1.168,3.55-2.271,4.197-1.914C79.386,102.063,79.729,103.298,77.444,103.922"/>
	<path fill="#0B9E5C" d="M79.5,99.78c-1.25,0.048-1.224,0.425-1.604,0.632c0.289-0.584,0.672-1.202,1.165-1.585
		c-0.523,0.23-1.027,0.501-1.406,0.941c-0.254-0.301-0.715-0.328-1.095-1.549c-0.578-1.652,0.128-2.147,0.217-3.688
		c0.573,1.441,1.629,2.919,1.584,3.811c0.7-1.229,3.05-2.706,3.713-2.535C80.951,97.594,81.51,98.813,79.5,99.78"/>
	<path fill="#0B9E5C" d="M81.543,93.904c-1.221,0.11-1.221,0.411-1.564,0.694c0.271-0.642,0.649-1.218,1.188-1.632
		c-0.576,0.224-1.058,0.502-1.44,0.938c-0.227-0.286-0.717-0.286-1.157-1.55c-0.557-1.678,0.126-2.205,0.171-3.764
		c0.644,1.503,1.663,2.977,1.652,3.92c0.644-1.301,2.901-2.878,3.591-2.566C82.964,91.649,83.517,92.896,81.543,93.904"/>
	<path fill="#EFB780" d="M71.899,101.542c0,0-6.277,1.009-13.926-4.063c0.573-0.748,0.924-2.84,0.573-4.051
		c-0.171-0.974-0.227-0.146-0.443,0.452c-0.728,1.833-1.307,1.976-2.098,2.586c-2.266-2.313-2.591-2.33-5.491-4.022
		c-2.111-1.135-2.279-1.85-3.448-2.598c-2.017,0.942-5.231,2.786-6.81,1.698c-1.319-0.657,1.552-1.409,2.68-3.185
		c1.008-1.408,2.208-1.809,3.843-1.408c3.121,0.652,4.717,1.791,9.394,3.803c5.687,0.443,9.905,2.139,15.693,3.396
		c0.96,0.27,2.381,0.394,3.046,0.442C74.173,96.915,73.441,98.536,71.899,101.542"/>
	<path fill="#EFB780" d="M46.903,95.328c1.701,1.917,3.239,2.278,4.304,4.593c-0.34,0.671-1.027,0.854-1.753,0.436
		c-2.551-2.873-4.884-3.305-3.92-4.643c-0.547-0.074-0.964,0.665-0.862,1.107c0.427,1.992,2.769,2.833,3.421,4.603
		c-0.323,1.358-3.104,0.117-4.339-3.463l-0.069-0.165c-0.531,1.018-0.948,1.396,0.886,3.628c0.363,0.812,0.633,1.649-0.713,1.476
		c0.26,0.222-0.673-0.088-0.267,0h0.267c-0.061,0-0.153-0.088-0.275-0.151c0.651-3.539-2.617-2.827-2.514-2.827
		c0.501-1.195-1.377-2.551-3.19-1.732c0.269-0.942-1.687-2.436-4.383-1.366c-0.399-0.966-2.828-1.95-5.116,0.975
		c-4.121,0.33-10.826,3.953-14.916,2.125c-0.167,0.177-2.549-6.639-2.629-6.817c4.741-0.471,15.473-1.19,19.256-2.793
		c3.036-1.932,8.612-2.907,9.951-2.195c-0.13,1.023-2.526,2.968-1.31,3.976c2.139,1.993,5.494,1.099,7.795-0.282
		c2.355,2.457,6.167,2.791,7.646,5.988l-0.437,1.085c-0.824,0.515-0.869,0.515-1.808-0.77c-2.265-3.036-4.402-2.359-4.775-4.438
		C46.325,93.958,46.903,94.838,46.903,95.328"/>
	<path fill="#EFB780" d="M35.914,101.537c-0.862,0.353,0.374-0.534,0.647-0.735l0.366-0.445c0.703-0.676,1.697-1.543,2.338-0.152
		c0.38,0.8-2.427,2.398-2.909,2.544c-0.454,0.151-0.531,0.151-0.873-0.272C35.231,102.065,35.457,101.669,35.914,101.537"/>
	<path fill="#EFB780" d="M33.447,101.235c-0.514,0.129-0.896,0.188-1.202-0.23c-0.203-0.499,0.662-1.475,1.006-1.855
		c0.311-0.336,0.596-0.4,0.655-0.426l0.533-0.479c1.043-0.132,0.934,0,1.138,0.479C35.808,99.19,33.906,101.197,33.447,101.235"/>
	<path fill="#EFB780" d="M40.255,101.712c0,0,1.151-1.207,1.635,0.45c0.184,0.672-1.057,1.448-2.198,1.761
		C39.086,103.61,37.766,103.659,40.255,101.712"/>
	<path fill="#EFB780" d="M30.595,99.327c-0.453,0.202-1.152-0.604-0.769-0.791l0.458-0.88c0.767-0.287,1.262-0.652,1.501-0.287
		C32.033,97.839,30.98,99.188,30.595,99.327"/>
	<path fill="#168FBA" d="M43.113,30.066c-18.751,0-34.012,19.842-34.723,44.729h69.415C77.091,49.908,61.859,30.066,43.113,30.066"
		/>
	<path fill="#231F20" d="M45.053,84.972l0.04-19.695c0,0,6.748,0.132,8.23-0.127c0,0,2.452-0.934,2.853-3.105
		c0.255-1.448-0.896-5.856-1.075-6.663c0,0-1.2-0.897-1.328-1.873c0,0-0.649-7.427-2.198-9.591
		c-1.493-2.127-3.756-4.612-8.766-4.518c-5.045,0.061-7.434,3.376-7.788,5.629c-0.474,2.912,2.743,2.867,2.743,2.867
		s-1.367,1.177-1.848,1.775c-0.46,0.651-1.732,1.877-3.05,4.401c-1.353,2.549-2.208,6.523-1.71,7.907
		c0.578,1.332,2.933,2.973,5.653,3.298c2.702,0.273,4.492-0.16,4.492-0.16v19.632L45.053,84.972z"/>
	<path fill="#D93E26" d="M37.762,57.955c-1.989,0.045-2.804,1.103-4.559,1.177c0,0,0.405-3.697,4.009-8.028
		c1.458-1.643,4.961-3.55,6.724-4.382l-0.082-0.4c-1.577,0.229-5.729,1.021-6.888-0.814c-0.21-1.857,2.297-3.901,5.736-4.124
		c2.15-0.093,3.711,0.671,5.317,1.623c1.902,1.319,2.776,3.46,3.054,5.601c-2.374,1.064-2.984,1.522-3.212,1.654
		c0.331,0.041,0.894,0.164,1.559,0.179c0.897,0.019,1.405-0.104,1.783-0.179v1.323c0.199,0.171,0.32,0.354,0.413,0.532
		c-4.123,1.805-6.255,2.64-6.541,2.409c0,0,0.811,0.177,1.724,0.23c1.393,0.045,3.429-0.579,4.92-1.029
		c-0.039,0.799,0,1.462,1.217,1.958l0.039,0.073l-0.052,0.038c-4.235,2.277-5.86,2.061-6.173,1.838l-3.067-0.612
		c0.885,0.307,2.382,1.749,3.984,1.972c1.495,0.238,4.246-1.071,5.783-1.537l0.543,1.918c-2.553,0-5.306,3.683-9.176,2.332
		C42.859,60.239,40.474,57.955,37.762,57.955"/>
	<path fill="#D93E26" d="M41.298,63.185c-1.951-0.02-4.943,0-5.048-0.128c-0.932-0.202-3.446-1.568-3.087-1.956
		c0.14-0.063,0.925,0.118,3.186-0.862C38.892,59.198,41.138,62.516,41.298,63.185"/>
	<path fill="#D93E26" d="M54.346,61.217c-0.118,0.663-0.729,1.841-1.445,1.965c-0.528-0.049-2.976,0.06-4.38,0.06
		c1.035,0,1.58-0.332,2.248-0.633C54.813,60.597,54.346,61.217,54.346,61.217"/>
	<path fill="#FFFFFF" d="M41.007,133.944c0.241-0.658-0.1-1.525-0.1-1.525s-1.397,1.96-3.239,3.117
		c-1.675,0.984-4.543,1.631-5.028,1.734c0.353,0.41,0.775,0.791,1.207,1.117c0.507-0.074,2.654-0.272,4.776-1.621
		C40,135.947,41.007,133.944,41.007,133.944"/>
	<path fill="#168FBA" d="M45.387,133.944c-0.211-0.658,0.06-1.525,0.06-1.525s1.398,1.96,3.255,3.117
		c1.67,0.984,4.469,1.613,5.038,1.734c0.811-0.75,1.347-1.526,1.347-1.526s-2.593-0.34-5.094-1.099
		c-2.517-0.752-3.629-2.352-3.841-2.821c-0.211-0.491,0.212-1.574,0.6-1.925c0.357-0.336,4.555-0.629,4.402-4.166
		c-0.177-4.166-7.087-2.995-7.964-2.817c-0.855-0.177-7.806-1.349-7.936,2.817c-0.142,3.537,4.065,3.83,4.422,4.166
		c0.332,0.351,0.798,1.434,0.565,1.925c-0.233,0.47-1.303,2.067-3.812,2.821c-2.547,0.759-5.119,1.099-5.119,1.099
		s0.542,0.774,1.33,1.526c0.487-0.104,3.355-0.75,5.029-1.734c1.838-1.157,3.24-3.117,3.24-3.117s0.339,0.868,0.099,1.525
		c0,0-1.008,2.003-2.383,2.822c-2.123,1.349-4.271,1.547-4.776,1.621c0.654,0.471,1.384,0.842,2.052,0.807
		c4.378-0.162,6.041-5.023,6.041-5.023s0.538,0.4,1.243,0.475h0.004h0.038c0.711-0.073,1.212-0.475,1.212-0.475
		s1.712,4.861,6.075,5.023c0.674,0.035,1.357-0.336,2.009-0.807c-0.561-0.074-2.676-0.326-4.751-1.621
		C46.417,135.947,45.387,133.944,45.387,133.944"/>
	<path fill="#FFFFFF" d="M53.738,137.271c-0.569-0.123-3.367-0.75-5.038-1.734c-1.856-1.159-3.255-3.12-3.255-3.12
		s-0.27,0.868-0.059,1.528c0,0,1.031,2.003,2.383,2.822c2.074,1.295,4.191,1.545,4.751,1.621h0.024
		C52.975,138.063,53.411,137.681,53.738,137.271"/>
	<path fill="#FFFFFF" d="M39.947,124.239c0,0-1.125,0.885-1.245,1.852c-0.11,0.961,0.297,2.014,0.297,2.014
		s-2.292-0.756-2.209-2.273C36.93,123.636,39.947,124.239,39.947,124.239"/>
	<path fill="#FFFFFF" d="M46.491,124.239c0,0,1.07,0.885,1.177,1.852c0.149,0.961-0.234,2.014-0.234,2.014s2.291-0.756,2.173-2.273
		C49.455,123.636,46.491,124.239,46.491,124.239"/>
	<path fill="#FFFFFF" d="M43.368,125.034H43.01c-3.848-0.018-1.65,3.543-1.65,3.543s0.663-0.488,1.613-0.488h0.433
		c0.97,0.012,1.643,0.488,1.643,0.488S47.25,125.017,43.368,125.034"/>
	<path fill="#FFFFFF" d="M43.403,129.793h-0.218h-0.034h-0.144c-1.067,0-0.984,0.528-0.984,1.026c0,0.514,0.254,2.642,1.086,2.642
		h0.042h0.112c0.868,0,1.074-2.128,1.074-2.642C44.338,130.321,44.439,129.793,43.403,129.793"/>
</g>
<rect x="-22.241" y="-33.792" fill="none" width="841.891" height="595.28"/>
<g>
	<g>
		<path fill="#178CCC" d="M111.403,77.093h14.559c8.601,0,14.038,4.903,14.038,12.347v0.106c0,8.277-6.653,12.607-14.774,12.607
			h-7.332v11.866h-6.491V77.093z M125.44,96.299c4.903,0,7.96-2.749,7.96-6.604v-0.104c0-4.327-3.111-6.592-7.96-6.592h-7.546
			v13.299H125.44z"/>
		<path fill="#178CCC" d="M145.396,86.17h6.38v6.274c1.741-4.168,4.964-7.015,9.866-6.804v6.753h-0.368
			c-5.594,0-9.499,3.64-9.499,11.024v10.602h-6.38V86.17z"/>
		<path fill="#178CCC" d="M165.138,100.204v-0.112c0-7.969,5.646-14.506,13.615-14.506c8.854,0,13.342,6.967,13.342,14.981
			c0,0.584-0.057,1.153-0.106,1.796h-20.471c0.69,4.534,3.909,7.07,8.021,7.07c3.112,0,5.333-1.163,7.543-3.327l3.744,3.327
			c-2.632,3.162-6.272,5.226-11.397,5.226C171.36,114.659,165.138,108.797,165.138,100.204z M185.766,98.147
			c-0.422-4.12-2.85-7.34-7.066-7.34c-3.905,0-6.651,3.012-7.23,7.34H185.766z"/>
		<path fill="#178CCC" d="M195.751,110.38l2.847-4.322c3.007,2.269,6.272,3.425,9.126,3.425c2.744,0,4.328-1.156,4.328-3.009v-0.102
			c0-2.168-2.954-2.903-6.229-3.905c-4.113-1.155-8.705-2.843-8.705-8.179v-0.104c0-5.275,4.381-8.489,9.92-8.489
			c3.48,0,7.282,1.211,10.236,3.165l-2.532,4.532c-2.689-1.634-5.54-2.635-7.864-2.635c-2.479,0-3.902,1.162-3.902,2.792v0.108
			c0,2.009,3.008,2.843,6.28,3.907c4.059,1.265,8.655,3.113,8.655,8.123v0.099c0,5.862-4.545,8.764-10.346,8.764
			C203.608,114.551,199.235,113.125,195.751,110.38z"/>
		<path fill="#178CCC" d="M223.99,75.824h6.855v6.07h-6.855V75.824z M224.256,86.17h6.379v27.85h-6.379V86.17z"/>
		<path fill="#178CCC" d="M237.026,100.15v-0.106c0-9.236,6.271-14.458,12.924-14.458c4.596,0,7.492,2.318,9.496,4.903V75.51h6.379
			v38.51h-6.379v-4.639c-2.056,2.904-4.957,5.218-9.496,5.218C243.41,114.599,237.026,109.381,237.026,100.15z M259.552,100.15
			v-0.106c0-5.38-3.8-8.922-8.079-8.922c-4.366,0-8.015,3.379-8.015,8.922v0.106c0,5.377,3.698,8.909,8.015,8.909
			C255.752,109.06,259.552,105.472,259.552,100.15z"/>
		<path fill="#178CCC" d="M271.759,100.204v-0.112c0-7.969,5.641-14.506,13.609-14.506c8.86,0,13.346,6.967,13.346,14.981
			c0,0.584-0.058,1.153-0.102,1.796h-20.474c0.685,4.534,3.901,7.07,8.019,7.07c3.115,0,5.329-1.163,7.542-3.327l3.752,3.327
			c-2.64,3.162-6.281,5.226-11.398,5.226C277.979,114.659,271.759,108.797,271.759,100.204z M292.375,98.147
			c-0.41-4.12-2.842-7.34-7.058-7.34c-3.906,0-6.652,3.012-7.23,7.34H292.375z"/>
		<path fill="#178CCC" d="M304.636,86.17h6.383v4.319c1.795-2.636,4.378-4.903,8.705-4.903c6.277,0,9.921,4.223,9.921,10.713v17.721
			h-6.384V98.2c0-4.332-2.159-6.806-5.966-6.806c-3.689,0-6.276,2.577-6.276,6.909v15.716h-6.383V86.17z"/>
		<path fill="#178CCC" d="M335.304,100.252v-0.102c0-7.918,6.115-14.564,14.455-14.564c5.281,0,8.545,1.947,11.133,4.798
			l-3.961,4.28c-1.95-2.065-4.008-3.491-7.23-3.491c-4.634,0-8.022,4.013-8.022,8.871v0.106c0,4.954,3.438,8.96,8.345,8.96
			c3.003,0,5.218-1.418,7.229-3.479l3.842,3.803c-2.734,3.054-5.956,5.226-11.393,5.226
			C341.419,114.659,335.304,108.168,335.304,100.252z"/>
		<path fill="#178CCC" d="M366.551,75.824h6.858v6.07h-6.858V75.824z M366.811,86.17h6.386v27.85h-6.386V86.17z"/>
		<path fill="#178CCC" d="M398.054,114.02v-3.428c-1.9,2.267-4.805,4.007-9.021,4.007c-5.273,0-9.919-3.002-9.919-8.596v-0.106
			c0-6.169,4.798-9.127,11.297-9.127c3.364,0,5.53,0.476,7.692,1.165v-0.523c0-3.861-2.428-5.966-6.855-5.966
			c-3.115,0-5.433,0.678-7.968,1.737l-1.743-5.113c3.065-1.374,6.064-2.325,10.609-2.325c8.224,0,12.234,4.327,12.234,11.766v16.51
			H398.054z M398.21,102.363c-1.633-0.643-3.909-1.107-6.385-1.107c-4.008,0-6.381,1.636-6.381,4.326v0.106
			c0,2.638,2.373,4.112,5.372,4.112c4.226,0,7.394-2.377,7.394-5.856V102.363z"/>
		<path fill="#178CCC" d="M425.357,100.15v-0.106c0-9.236,6.268-14.458,12.918-14.458c4.594,0,7.49,2.318,9.492,4.903V75.51h6.383
			v38.51h-6.383v-4.639c-2.059,2.904-4.961,5.218-9.492,5.218C431.734,114.599,425.357,109.381,425.357,100.15z M447.871,100.15
			v-0.106c0-5.38-3.793-8.922-8.07-8.922c-4.365,0-8.018,3.379-8.018,8.922v0.106c0,5.377,3.693,8.909,8.018,8.909
			C444.078,109.06,447.871,105.472,447.871,100.15z"/>
		<path fill="#178CCC" d="M460.083,100.204v-0.112c0-7.969,5.641-14.506,13.609-14.506c8.859,0,13.34,6.967,13.34,14.981
			c0,0.584-0.041,1.153-0.1,1.796h-20.471c0.686,4.534,3.906,7.07,8.02,7.07c3.115,0,5.33-1.163,7.543-3.327l3.746,3.327
			c-2.637,3.162-6.273,5.226-11.4,5.226C466.3,114.659,460.083,108.797,460.083,100.204z M480.703,98.147
			c-0.414-4.12-2.844-7.34-7.068-7.34c-3.896,0-6.643,3.012-7.223,7.34H480.703z"/>
		<path fill="#178CCC" d="M508.634,75.51h6.381v38.51h-6.381V75.51z"/>
		<path fill="#178CCC" d="M539.875,114.02v-3.428c-1.896,2.267-4.805,4.007-9.016,4.007c-5.285,0-9.922-3.002-9.922-8.596v-0.106
			c0-6.169,4.791-9.127,11.283-9.127c3.379,0,5.539,0.476,7.703,1.165v-0.523c0-3.861-2.426-5.966-6.852-5.966
			c-3.119,0-5.439,0.678-7.971,1.737l-1.74-5.113c3.066-1.374,6.066-2.325,10.6-2.325c8.23,0,12.242,4.327,12.242,11.766v16.51
			H539.875z M540.033,102.363c-1.645-0.643-3.9-1.107-6.387-1.107c-4.006,0-6.383,1.636-6.383,4.326v0.106
			c0,2.638,2.377,4.112,5.385,4.112c4.219,0,7.385-2.377,7.385-5.856V102.363z"/>
		<path fill="#178CCC" d="M569.339,77.093h6.01l19.787,25.533V77.093h6.379v36.927h-5.439l-20.352-26.269v26.269h-6.385V77.093z"/>
		<path fill="#178CCC" d="M626.798,114.02v-3.428c-1.898,2.267-4.789,4.007-9.016,4.007c-5.279,0-9.918-3.002-9.918-8.596v-0.106
			c0-6.169,4.799-9.127,11.289-9.127c3.383,0,5.543,0.476,7.701,1.165v-0.523c0-3.861-2.426-5.966-6.859-5.966
			c-3.113,0-5.43,0.678-7.967,1.737l-1.742-5.113c3.07-1.374,6.074-2.325,10.609-2.325c8.232,0,12.238,4.327,12.238,11.766v16.51
			H626.798z M626.964,102.363c-1.635-0.643-3.914-1.107-6.383-1.107c-4.012,0-6.387,1.636-6.387,4.326v0.106
			c0,2.638,2.375,4.112,5.381,4.112c4.225,0,7.389-2.377,7.389-5.856V102.363z"/>
		<path fill="#178CCC" d="M638.687,100.252v-0.102c0-7.918,6.121-14.564,14.459-14.564c5.275,0,8.545,1.947,11.129,4.798
			l-3.953,4.28c-1.959-2.065-4.01-3.491-7.232-3.491c-4.637,0-8.018,4.013-8.018,8.871v0.106c0,4.954,3.426,8.96,8.332,8.96
			c3.012,0,5.225-1.418,7.229-3.479l3.854,3.803c-2.74,3.054-5.957,5.226-11.396,5.226
			C644.808,114.659,638.687,108.168,638.687,100.252z"/>
		<path fill="#178CCC" d="M669.931,75.824h6.867v6.07h-6.867V75.824z M670.191,86.17h6.393v27.85h-6.393V86.17z"/>
		<path fill="#178CCC" d="M682.871,100.252v-0.102c0-7.964,6.33-14.564,14.875-14.564c8.549,0,14.822,6.489,14.822,14.458v0.106
			c0,7.911-6.33,14.509-14.928,14.509C689.146,114.659,682.871,108.168,682.871,100.252z M706.185,100.252v-0.102
			c0-4.911-3.537-8.978-8.545-8.978c-5.117,0-8.387,4.013-8.387,8.871v0.106c0,4.843,3.533,8.96,8.492,8.96
			C702.914,109.11,706.185,105.052,706.185,100.252z M700.642,73.979l5.807,2.588l-6.492,6.066h-4.793L700.642,73.979z"/>
		<path fill="#178CCC" d="M718.548,86.17h6.387v4.319c1.789-2.636,4.373-4.903,8.701-4.903c6.277,0,9.916,4.223,9.916,10.713v17.721
			h-6.383V98.2c0-4.332-2.16-6.806-5.961-6.806c-3.703,0-6.273,2.577-6.273,6.909v15.716h-6.387V86.17z"/>
	</g>
</g>
<g>
	<path fill="#178CCC" d="M118.698,39.775h-9.434v-4.845h24.138v4.845h-9.434v24.902h-5.27V39.775z"/>
	<path fill="#178CCC" d="M138.331,42.24h5.142v5.057c1.402-3.357,3.995-5.652,7.947-5.482v5.439h-0.297
		c-4.505,0-7.649,2.932-7.649,8.882v8.542h-5.142V42.24z"/>
	<path fill="#178CCC" d="M154.394,58.218v-0.085c0-4.844,3.782-7.224,9.264-7.224c2.507,0,4.292,0.382,6.035,0.935v-0.553
		c0-3.187-1.955-4.887-5.567-4.887c-2.507,0-4.377,0.552-6.417,1.402l-1.36-4.037c2.465-1.105,4.887-1.828,8.457-1.828
		c3.357,0,5.864,0.893,7.437,2.507c1.658,1.615,2.422,3.995,2.422,6.927v13.301h-5.015v-2.805c-1.53,1.827-3.867,3.272-7.309,3.272
		C158.134,65.145,154.394,62.723,154.394,58.218z M169.778,56.604v-1.53c-1.317-0.51-3.06-0.893-5.1-0.893
		c-3.315,0-5.27,1.402-5.27,3.74v0.085c0,2.167,1.912,3.4,4.377,3.4C167.186,61.406,169.778,59.451,169.778,56.604z M167.525,32.423
		l4.674,2.083l-5.227,4.887h-3.867L167.525,32.423z"/>
	<path fill="#178CCC" d="M180.826,42.24h5.142v3.399c1.445-1.997,3.4-3.867,6.842-3.867c3.23,0,5.524,1.572,6.714,3.952
		c1.785-2.38,4.165-3.952,7.564-3.952c4.887,0,7.861,3.102,7.861,8.584v14.321h-5.142V51.929c0-3.57-1.658-5.482-4.547-5.482
		c-2.805,0-4.802,1.955-4.802,5.567v12.664h-5.142V51.887c0-3.485-1.7-5.439-4.547-5.439s-4.802,2.125-4.802,5.567v12.664h-5.142
		V42.24z"/>
	<path fill="#178CCC" d="M221.282,33.911h5.525v4.887h-5.525V33.911z M221.495,42.24h5.142v22.438h-5.142V42.24z"/>
	<path fill="#178CCC" d="M234.414,58.473V46.66h-2.847V42.24h2.847v-6.162h5.142v6.162h6.034v4.419h-6.034v11.006
		c0,1.997,1.02,2.805,2.762,2.805c1.147,0,2.167-0.255,3.187-0.765v4.207c-1.275,0.723-2.677,1.147-4.632,1.147
		C237.091,65.06,234.414,63.403,234.414,58.473z"/>
	<path fill="#178CCC" d="M249.584,53.544v-0.085c0-6.417,4.547-11.687,10.964-11.687c7.139,0,10.751,5.609,10.751,12.069
		c0,0.467-0.042,0.935-0.085,1.445h-16.488c0.553,3.655,3.145,5.694,6.459,5.694c2.507,0,4.292-0.935,6.077-2.677l3.018,2.677
		c-2.125,2.55-5.057,4.207-9.179,4.207C254.599,65.188,249.584,60.471,249.584,53.544z M266.201,51.887
		c-0.34-3.315-2.295-5.907-5.694-5.907c-3.145,0-5.354,2.422-5.822,5.907H266.201z"/>
	<path fill="#178CCC" d="M274.657,61.746l2.295-3.485c2.465,1.828,5.057,2.762,7.352,2.762c2.21,0,3.485-0.935,3.485-2.422v-0.085
		c0-1.742-2.38-2.337-5.015-3.145c-3.314-0.935-7.012-2.295-7.012-6.587v-0.085c0-4.25,3.527-6.842,7.989-6.842
		c2.805,0,5.864,0.978,8.244,2.55l-2.04,3.655c-2.167-1.317-4.462-2.125-6.332-2.125c-1.998,0-3.145,0.935-3.145,2.21v0.085
		c0,1.657,2.422,2.337,5.057,3.187c3.272,1.02,6.969,2.507,6.969,6.544v0.085c0,4.717-3.655,7.054-8.329,7.054
		C280.989,65.103,277.461,63.955,274.657,61.746z"/>
	<path fill="#178CCC" d="M309.035,58.218v-0.085c0-4.844,3.782-7.224,9.264-7.224c2.507,0,4.292,0.382,6.035,0.935v-0.553
		c0-3.187-1.955-4.887-5.567-4.887c-2.507,0-4.377,0.552-6.417,1.402l-1.36-4.037c2.465-1.105,4.887-1.828,8.457-1.828
		c3.357,0,5.864,0.893,7.437,2.507c1.658,1.615,2.422,3.995,2.422,6.927v13.301h-5.014v-2.805c-1.53,1.827-3.867,3.272-7.31,3.272
		C312.775,65.145,309.035,62.723,309.035,58.218z M324.419,56.604v-1.53c-1.317-0.51-3.06-0.893-5.1-0.893
		c-3.315,0-5.27,1.402-5.27,3.74v0.085c0,2.167,1.912,3.4,4.377,3.4C321.827,61.406,324.419,59.451,324.419,56.604z"/>
	<path fill="#178CCC" d="M348.811,34.931h11.091c9.349,0,15.809,6.417,15.809,14.789v0.085c0,8.372-6.459,14.874-15.809,14.874
		h-11.091V34.931z M354.038,39.69v20.228h5.864c6.247,0,10.327-4.207,10.327-10.029v-0.085c0-5.822-4.08-10.114-10.327-10.114
		H354.038z"/>
	<path fill="#178CCC" d="M381.533,33.911h5.524v4.887h-5.524V33.911z M381.746,42.24h5.142v22.438h-5.142V42.24z"/>
	<path fill="#178CCC" d="M391.774,61.746l2.295-3.485c2.465,1.828,5.057,2.762,7.352,2.762c2.21,0,3.484-0.935,3.484-2.422v-0.085
		c0-1.742-2.38-2.337-5.015-3.145c-3.314-0.935-7.011-2.295-7.011-6.587v-0.085c0-4.25,3.527-6.842,7.989-6.842
		c2.805,0,5.865,0.978,8.244,2.55l-2.039,3.655c-2.168-1.317-4.462-2.125-6.332-2.125c-1.997,0-3.145,0.935-3.145,2.21v0.085
		c0,1.657,2.422,2.337,5.057,3.187c3.272,1.02,6.97,2.507,6.97,6.544v0.085c0,4.717-3.655,7.054-8.329,7.054
		C398.106,65.103,394.579,63.955,391.774,61.746z"/>
	<path fill="#178CCC" d="M415.954,58.473V46.66h-2.847V42.24h2.847v-6.162h5.142v6.162h6.035v4.419h-6.035v11.006
		c0,1.997,1.021,2.805,2.763,2.805c1.147,0,2.167-0.255,3.188-0.765v4.207c-1.275,0.723-2.678,1.147-4.633,1.147
		C418.631,65.06,415.954,63.403,415.954,58.473z"/>
	<path fill="#178CCC" d="M430.87,58.218v-0.085c0-4.844,3.782-7.224,9.265-7.224c2.507,0,4.292,0.382,6.034,0.935v-0.553
		c0-3.187-1.955-4.887-5.567-4.887c-2.507,0-4.377,0.552-6.417,1.402l-1.359-4.037c2.465-1.105,4.887-1.828,8.456-1.828
		c3.357,0,5.865,0.893,7.438,2.507c1.657,1.615,2.422,3.995,2.422,6.927v13.301h-5.015v-2.805c-1.529,1.827-3.867,3.272-7.309,3.272
		C434.61,65.145,430.87,62.723,430.87,58.218z M446.253,56.604v-1.53c-1.317-0.51-3.06-0.893-5.1-0.893
		c-3.314,0-5.27,1.402-5.27,3.74v0.085c0,2.167,1.912,3.4,4.377,3.4C443.661,61.406,446.253,59.451,446.253,56.604z"/>
	<path fill="#178CCC" d="M457.302,42.24h5.143v3.442c1.444-2.083,3.526-3.91,7.012-3.91c5.057,0,7.989,3.4,7.989,8.584v14.321
		h-5.143V51.929c0-3.485-1.742-5.482-4.802-5.482c-2.975,0-5.057,2.082-5.057,5.567v12.664h-5.143V42.24z"/>
	<path fill="#178CCC" d="M482.417,53.586v-0.085c0-6.375,4.93-11.729,11.687-11.729c4.207,0,6.842,1.572,8.967,3.867l-3.229,3.442
		c-1.572-1.658-3.23-2.805-5.779-2.805c-3.74,0-6.502,3.23-6.502,7.14v0.085c0,3.995,2.762,7.182,6.714,7.182
		c2.422,0,4.207-1.105,5.822-2.762l3.102,3.06c-2.209,2.465-4.802,4.207-9.179,4.207C487.347,65.188,482.417,59.961,482.417,53.586z
		"/>
	<path fill="#178CCC" d="M508,33.911h5.524v4.887H508V33.911z M508.212,42.24h5.142v22.438h-5.142V42.24z"/>
	<path fill="#178CCC" d="M518.582,58.218v-0.085c0-4.844,3.782-7.224,9.265-7.224c2.507,0,4.292,0.382,6.034,0.935v-0.553
		c0-3.187-1.955-4.887-5.567-4.887c-2.507,0-4.377,0.552-6.417,1.402l-1.359-4.037c2.465-1.105,4.887-1.828,8.456-1.828
		c3.357,0,5.865,0.893,7.438,2.507c1.657,1.615,2.422,3.995,2.422,6.927v13.301h-5.015v-2.805c-1.529,1.827-3.867,3.272-7.309,3.272
		C522.322,65.145,518.582,62.723,518.582,58.218z M533.965,56.604v-1.53c-1.317-0.51-3.06-0.893-5.1-0.893
		c-3.314,0-5.27,1.402-5.27,3.74v0.085c0,2.167,1.912,3.4,4.377,3.4C531.373,61.406,533.965,59.451,533.965,56.604z"/>
</g>
</svg>
